SplineFontDB: 3.2
FontName: Inconsolata-ExtraCondensedBold
FullName: Inconsolata Extra Condensed Bold
FamilyName: Inconsolata Extra Condensed Bold
Weight: Bold
Copyright: Copyright 2006 The Inconsolata Project Authors (https://github.com/cyrealtype/Inconsolata)
Version: 3.000; ttfautohint (v1.8.3)
ItalicAngle: -9
UnderlinePosition: -297
UnderlineWidth: 102
Ascent: 1802
Descent: 246
InvalidEm: 0
sfntRevision: 0x00030000
LayerCount: 2
Layer: 0 1 "Back" 1
Layer: 1 1 "Fore" 0
XUID: [1021 614 2031436716 32237]
StyleMap: 0x0040
FSType: 0
OS2Version: 4
OS2_WeightWidthSlopeOnly: 0
OS2_UseTypoMetrics: 1
CreationTime: 1576097233
ModificationTime: 1732402469
PfmFamily: 81
TTFWeight: 700
TTFWidth: 2
LineGap: 0
VLineGap: 0
Panose: 0 0 0 0 0 0 0 0 0 0
OS2TypoAscent: 1759
OS2TypoAOffset: 0
OS2TypoDescent: -389
OS2TypoDOffset: 0
OS2TypoLinegap: 0
OS2WinAscent: 2056
OS2WinAOffset: 0
OS2WinDescent: 930
OS2WinDOffset: 0
HheadAscent: 1759
HheadAOffset: 0
HheadDescent: -389
HheadDOffset: 0
OS2SubXSize: 1331
OS2SubYSize: 1229
OS2SubXOff: 0
OS2SubYOff: 154
OS2SupXSize: 1331
OS2SupYSize: 1229
OS2SupXOff: 0
OS2SupYOff: 717
OS2StrikeYSize: 102
OS2StrikeYPos: 571
OS2CapHeight: 1276
OS2XHeight: 952
OS2Vendor: 'CYRE'
OS2CodePages: 60000193.cdd40000
OS2UnicodeRanges: a00000ff.0000f9eb.00000020.00000000
Lookup: 1 0 0 "'aalt' Access All Alternates in Latin lookup 0" { "'aalt' Access All Alternates in Latin lookup 0 subtable"  } ['aalt' ('DFLT' <'dflt' > 'latn' <'AZE ' 'CAT ' 'CRT ' 'KAZ ' 'MOL ' 'ROM ' 'TAT ' 'TRK ' 'dflt' > ) ]
Lookup: 3 0 0 "'aalt' Access All Alternates in Latin lookup 1" { "'aalt' Access All Alternates in Latin lookup 1 subtable"  } ['aalt' ('DFLT' <'dflt' > 'latn' <'AZE ' 'CAT ' 'CRT ' 'KAZ ' 'MOL ' 'ROM ' 'TAT ' 'TRK ' 'dflt' > ) ]

StartChar: A
Encoding: 65 65 1
Width: 719
VWidth: 2430
GlyphClass: 2
Flags: HW
AnchorPoint: "Anchor-3" 440 0 basechar 0
AnchorPoint: "Anchor-2" 258 0 basechar 0
AnchorPoint: "Anchor-0" 497.794 1514 basechar 0
LayerCount: 2
Fore
SplineSet
415.909179688 997 m 1,0,-1
 268.2109375 538 l 1,1,-1
 417.2109375 538 l 1,2,-1
 415.909179688 997 l 1,0,-1
419 0 m 1,3,-1
 419.334960938 362 l 1,4,-1
 212.334960938 362 l 1,5,-1
 94 0 l 1,6,-1
 -94 0 l 1,7,-1
 448.803710938 1533 l 1,8,-1
 554.803710938 1533 l 1,9,-1
 610 0 l 1,10,-1
 419 0 l 1,3,-1
EndSplineSet
Substitution2: "Single Substitution lookup 29 subtable" ordfeminine
Substitution2: "'aalt' Access All Alternates in Latin lookup 0 subtable" ordfeminine
EndChar

StartChar: AE
Encoding: 198 198 26
Width: 685
VWidth: 2430
GlyphClass: 1
Flags: HW
LayerCount: 2
Fore
SplineSet
235.288085938 589 m 1,0,-1
 323.288085938 589 l 1,1,-1
 442.713867188 1242 l 1,2,-1
 235.288085938 589 l 1,0,-1
-114 0 m 1,3,-1
 403.110351562 1516 l 1,4,-1
 830.110351562 1516 l 1,5,-1
 797.80078125 1312 l 1,6,-1
 598.80078125 1312 l 1,7,-1
 532.279296875 892 l 1,8,-1
 694.279296875 892 l 1,9,-1
 661.651367188 686 l 1,10,-1
 499.651367188 686 l 1,11,-1
 423.310546875 204 l 1,12,-1
 620.310546875 204 l 1,13,-1
 586 0 l 1,14,-1
 228 0 l 1,15,-1
 289.611328125 389 l 1,16,-1
 177.611328125 389 l 1,17,-1
 48 0 l 1,18,-1
 -114 0 l 1,3,-1
EndSplineSet
EndChar

StartChar: B
Encoding: 66 66 28
Width: 768
VWidth: 2430
GlyphClass: 2
Flags: HW
AnchorPoint: "Anchor-2" 284 0 basechar 0
AnchorPoint: "Anchor-0" 523.794 1514 basechar 0
LayerCount: 2
Fore
SplineSet
173.626953125 206 m 1,0,-1
 300.626953125 206 l 2,1,2
 378.626953125 206 378.626953125 206 430.837890625 261 c 128,-1,3
 483.049804688 316 483.049804688 316 502.689453125 440 c 0,4,5
 522.170898438 563 522.170898438 563 488.57421875 635 c 128,-1,6
 454.977539062 707 454.977539062 707 350.977539062 707 c 2,7,-1
 252.977539062 707 l 1,8,-1
 173.626953125 206 l 1,0,-1
285.288085938 911 m 1,9,-1
 379.288085938 911 l 2,10,11
 475.288085938 911 475.288085938 911 520.419921875 965.5 c 128,-1,12
 565.551757812 1020 565.551757812 1020 581.390625 1120 c 0,13,14
 594.853515625 1205 594.853515625 1205 566.66796875 1257.5 c 128,-1,15
 538.483398438 1310 538.483398438 1310 459.483398438 1310 c 2,16,-1
 348.483398438 1310 l 1,17,-1
 285.288085938 911 l 1,9,-1
-62 0 m 1,18,-1
 177.793945312 1514 l 1,19,-1
 486.793945312 1514 l 2,20,21
 647.793945312 1514 647.793945312 1514 731.698242188 1425 c 128,-1,22
 815.6015625 1336 815.6015625 1336 785.033203125 1143 c 0,23,24
 742.427734375 874 742.427734375 874 585.1328125 809 c 1,25,26
 658.48046875 767 658.48046875 767 695.6171875 670 c 128,-1,27
 732.75390625 573 732.75390625 573 710.10546875 430 c 0,28,29
 677.002929688 221 677.002929688 221 561.501953125 110.5 c 128,-1,30
 446 0 446 0 245 0 c 2,31,-1
 -62 0 l 1,18,-1
EndSplineSet
EndChar

StartChar: C
Encoding: 67 67 29
Width: 785
VWidth: 2430
GlyphClass: 2
Flags: HW
AnchorPoint: "Anchor-2" 325 0 basechar 0
AnchorPoint: "Anchor-0" 555.794 1514 basechar 0
LayerCount: 2
Fore
SplineSet
327.19921875 -24 m 0,0,1
 222.19921875 -24 222.19921875 -24 144.5234375 47.5 c 128,-1,2
 66.84765625 119 66.84765625 119 39.7734375 289 c 128,-1,3
 12.6982421875 459 12.6982421875 459 56.6298828125 749 c 0,4,5
 94.3251953125 987 94.3251953125 987 155.8203125 1138.5 c 128,-1,6
 217.31640625 1290 217.31640625 1290 291.016601562 1376.5 c 128,-1,7
 364.716796875 1463 364.716796875 1463 441.864257812 1495.5 c 128,-1,8
 519.01171875 1528 519.01171875 1528 587.01171875 1528 c 0,9,10
 697.01171875 1528 697.01171875 1528 761.928710938 1467.5 c 128,-1,11
 826.846679688 1407 826.846679688 1407 848.375 1303 c 1,12,-1
 725.55859375 1140 l 1,13,-1
 711.390625 1120 l 1,14,-1
 699.291015625 1132 l 1,15,16
 697.983398438 1149 697.983398438 1149 701.864257812 1173.5 c 128,-1,17
 705.744140625 1198 705.744140625 1198 693.446289062 1234 c 1,18,19
 669.20703125 1283 669.20703125 1283 635.795898438 1302.5 c 128,-1,20
 602.383789062 1322 602.383789062 1322 563.383789062 1322 c 0,21,22
 507.383789062 1322 507.383789062 1322 448.014648438 1266 c 128,-1,23
 388.645507812 1210 388.645507812 1210 338.505859375 1086 c 128,-1,24
 288.366210938 962 288.366210938 962 256.055664062 758 c 0,25,26
 208.698242188 459 208.698242188 459 249.841796875 321 c 128,-1,27
 290.984375 183 290.984375 183 380.984375 183 c 0,28,29
 436.984375 183 436.984375 183 488.478515625 224 c 128,-1,30
 539.971679688 265 539.971679688 265 585.534179688 338 c 1,31,-1
 653.92578125 170 l 1,32,33
 583.770507812 68 583.770507812 68 505.984375 22 c 128,-1,34
 428.19921875 -24 428.19921875 -24 327.19921875 -24 c 0,0,1
EndSplineSet
EndChar

StartChar: D
Encoding: 68 68 36
Width: 768
VWidth: 2430
GlyphClass: 2
Flags: HW
AnchorPoint: "Anchor-4" 398.056 758 basechar 0
AnchorPoint: "Anchor-2" 274 0 basechar 0
AnchorPoint: "Anchor-0" 469.794 1514 basechar 0
LayerCount: 2
Fore
SplineSet
174.518554688 199 m 1,0,-1
 224.518554688 199 l 2,1,2
 354.518554688 199 354.518554688 199 435.61328125 338.5 c 128,-1,3
 516.708007812 478 516.708007812 478 558.521484375 742 c 0,4,5
 600.809570312 1009 600.809570312 1009 574.8046875 1160.5 c 128,-1,6
 548.80078125 1312 548.80078125 1312 416.80078125 1312 c 2,7,-1
 350.80078125 1312 l 1,8,-1
 174.518554688 199 l 1,0,-1
-62.31640625 -2 m 1,9,-1
 177.793945312 1514 l 1,10,-1
 439.793945312 1514 l 2,11,12
 571.793945312 1514 571.793945312 1514 642.928710938 1467.5 c 128,-1,13
 714.064453125 1421 714.064453125 1421 748.909179688 1319 c 0,14,15
 782.0703125 1219 782.0703125 1219 787.267578125 1084.5 c 128,-1,16
 792.46484375 950 792.46484375 950 760.629882812 749 c 0,17,18
 700.502929688 382 700.502929688 382 559.592773438 190 c 128,-1,19
 418.68359375 -2 418.68359375 -2 180.68359375 -2 c 2,20,-1
 -62.31640625 -2 l 1,9,-1
EndSplineSet
EndChar

StartChar: Eth
Encoding: 208 208 37
Width: 741
VWidth: 2430
GlyphClass: 1
Flags: HW
LayerCount: 2
Fore
SplineSet
193.310546875 204 m 1,0,-1
 238.310546875 204 l 2,1,2
 363.310546875 204 363.310546875 204 439.295898438 336.5 c 128,-1,3
 515.282226562 469 515.282226562 469 558.521484375 742 c 0,4,5
 602.869140625 1022 602.869140625 1022 573.622070312 1162.5 c 128,-1,6
 544.375 1303 544.375 1303 421.375 1303 c 2,7,-1
 367.375 1303 l 1,8,-1
 303.387695312 899 l 1,9,-1
 426.387695312 899 l 1,10,-1
 395.185546875 702 l 1,11,-1
 272.185546875 702 l 1,12,-1
 193.310546875 204 l 1,0,-1
-24.31640625 -2 m 1,13,-1
 87.185546875 702 l 1,14,-1
 33.185546875 702 l 1,15,-1
 64.3876953125 899 l 1,16,-1
 118.387695312 899 l 1,17,-1
 215.793945312 1514 l 1,18,-1
 458.793945312 1514 l 2,19,20
 551.793945312 1514 551.793945312 1514 612.879882812 1473.5 c 128,-1,21
 673.96484375 1433 673.96484375 1433 708.724609375 1371.5 c 128,-1,22
 743.483398438 1310 743.483398438 1310 758.713867188 1242 c 0,23,24
 776.418945312 1177 776.418945312 1177 775.095703125 1055 c 128,-1,25
 773.772460938 933 773.772460938 933 744.629882812 749 c 0,26,27
 680.80078125 346 680.80078125 346 548.2421875 172 c 128,-1,28
 415.68359375 -2 415.68359375 -2 201.68359375 -2 c 2,29,-1
 -24.31640625 -2 l 1,13,-1
EndSplineSet
EndChar

StartChar: E
Encoding: 69 69 42
Width: 749
VWidth: 2430
GlyphClass: 2
Flags: HW
AnchorPoint: "Anchor-3" 582.01 19 basechar 0
AnchorPoint: "Anchor-2" 277 0 basechar 0
AnchorPoint: "Anchor-0" 539.794 1514 basechar 0
LayerCount: 2
Fore
SplineSet
-62 0 m 1,0,-1
 178.110351562 1516 l 1,1,-1
 863.110351562 1516 l 1,2,-1
 830.80078125 1312 l 1,3,-1
 356.80078125 1312 l 1,4,-1
 290.279296875 892 l 1,5,-1
 676.279296875 892 l 1,6,-1
 643.96875 688 l 1,7,-1
 257.96875 688 l 1,8,-1
 181.310546875 204 l 1,9,-1
 652.310546875 204 l 1,10,-1
 620 0 l 1,11,-1
 -62 0 l 1,0,-1
EndSplineSet
EndChar

StartChar: uni01B8
Encoding: 440 440 65
Width: 732
VWidth: 2430
GlyphClass: 1
Flags: HW
LayerCount: 2
Fore
SplineSet
299.615234375 -34 m 0,0,1
 132.615234375 -34 132.615234375 -34 52.2548828125 90 c 128,-1,2
 -28.10546875 214 -28.10546875 214 4.205078125 418 c 0,3,4
 35.40625 615 35.40625 615 134.916992188 744.5 c 128,-1,5
 234.427734375 874 234.427734375 874 369.080078125 916 c 1,6,-1
 183.383789062 1322 l 1,7,-1
 213.793945312 1514 l 1,8,-1
 785.793945312 1514 l 1,9,-1
 752.69140625 1305 l 1,10,-1
 416.69140625 1305 l 1,11,-1
 569.08984375 935 l 1,12,-1
 537.729492188 737 l 1,13,14
 521.248046875 737.947265625 521.248046875 737.947265625 505.696289062 737.947265625 c 0,15,16
 373.510742188 737.947265625 373.510742188 737.947265625 308.538085938 669.5 c 0,17,18
 235.921875 593 235.921875 593 210.580078125 433 c 0,19,20
 188.248046875 292 188.248046875 292 232.403320312 233 c 128,-1,21
 276.55859375 174 276.55859375 174 353.55859375 174 c 0,22,23
 453.55859375 174 453.55859375 174 522.061523438 234 c 1,24,25
 546.129882812 266 546.129882812 266 553.084960938 281.5 c 128,-1,26
 560.040039062 297 560.040039062 297 558.57421875 313 c 1,27,-1
 569.791992188 327 l 1,28,-1
 588.049804688 316 l 1,29,-1
 624.84765625 119 l 1,30,31
 550.702148438 36 550.702148438 36 471.658203125 1 c 128,-1,32
 392.615234375 -34 392.615234375 -34 299.615234375 -34 c 0,0,1
EndSplineSet
EndChar

StartChar: F
Encoding: 70 70 66
Width: 723
VWidth: 2430
GlyphClass: 2
Flags: HW
AnchorPoint: "Anchor-2" 251 0 basechar 0
AnchorPoint: "Anchor-0" 490.794 1514 basechar 0
LayerCount: 2
Fore
SplineSet
-62 0 m 1,0,-1
 178.110351562 1516 l 1,1,-1
 837.110351562 1516 l 1,2,-1
 804.80078125 1312 l 1,3,-1
 349.80078125 1312 l 1,4,-1
 287.396484375 918 l 1,5,-1
 651.396484375 918 l 1,6,-1
 619.086914062 714 l 1,7,-1
 255.086914062 714 l 1,8,-1
 142 0 l 1,9,-1
 -62 0 l 1,0,-1
EndSplineSet
EndChar

StartChar: G
Encoding: 71 71 67
Width: 768
VWidth: 2430
GlyphClass: 2
Flags: HW
AnchorPoint: "Anchor-2" 318 0 basechar 0
AnchorPoint: "Anchor-0" 566.794 1514 basechar 0
LayerCount: 2
Fore
SplineSet
330.19921875 -24 m 0,0,1
 141.19921875 -24 141.19921875 -24 68.8212890625 172.5 c 128,-1,2
 -3.5556640625 369 -3.5556640625 369 55.837890625 744 c 0,3,4
 57.708984375 756.461914062 57.708984375 756.461914062 59.646484375 768.690429688 c 0,5,6
 95.4775390625 994.922851562 95.4775390625 994.922851562 153.795898438 1141.5 c 0,7,8
 215.266601562 1296 215.266601562 1296 289.887695312 1382 c 128,-1,9
 364.508789062 1468 364.508789062 1468 440.15625 1500.5 c 128,-1,10
 515.803710938 1533 515.803710938 1533 578.803710938 1533 c 0,11,12
 683.803710938 1533 683.803710938 1533 754.6171875 1475 c 128,-1,13
 825.430664062 1417 825.430664062 1417 848.592773438 1317 c 1,14,-1
 724.359375 1164 l 1,15,-1
 708.350585938 1145 l 1,16,-1
 695.250976562 1157 l 1,17,18
 696.259765625 1176 696.259765625 1176 697.244140625 1198 c 128,-1,19
 698.229492188 1220 698.229492188 1220 682.614257812 1254 c 1,20,21
 659.999023438 1288 659.999023438 1288 632.087890625 1307.5 c 128,-1,22
 604.17578125 1327 604.17578125 1327 553.17578125 1327 c 0,23,24
 496.17578125 1327 496.17578125 1327 441.756835938 1277 c 128,-1,25
 387.337890625 1227 387.337890625 1227 340.751953125 1106.5 c 128,-1,26
 294.166992188 986 294.166992188 986 260.748046875 775 c 0,27,28
 212.282226562 469 212.282226562 469 242.737304688 323.5 c 128,-1,29
 273.192382812 178 273.192382812 178 360.192382812 178 c 0,30,31
 438.192382812 178 438.192382812 178 499.37890625 236 c 1,32,-1
 551.329101562 564 l 1,33,-1
 407.329101562 564 l 1,34,-1
 439.639648438 768 l 1,35,-1
 763.639648438 768 l 1,36,-1
 661.956054688 126 l 1,37,38
 578.810546875 43 578.810546875 43 494.504882812 9.5 c 128,-1,39
 410.19921875 -24 410.19921875 -24 330.19921875 -24 c 0,0,1
EndSplineSet
EndChar

StartChar: H
Encoding: 72 72 74
Width: 768
VWidth: 2430
GlyphClass: 2
Flags: HW
AnchorPoint: "Anchor-4" 585.056 758 basechar 0
AnchorPoint: "Anchor-2" 465 0 basechar 0
AnchorPoint: "Anchor-0" 598.794 1514 basechar 0
LayerCount: 2
Fore
SplineSet
177.793945312 1514 m 1,0,-1
 402.793945312 1514 l 1,1,-1
 399.78515625 1495 l 1,2,3
 388.567382812 1481 388.567382812 1481 383.295898438 1463.5 c 128,-1,4
 378.0234375 1446 378.0234375 1446 371.530273438 1405 c 2,5,-1
 290.75390625 895 l 1,6,-1
 556.75390625 895 l 1,7,-1
 654.793945312 1514 l 1,8,-1
 881.793945312 1514 l 1,9,-1
 878.78515625 1495 l 1,10,11
 867.567382812 1481 867.567382812 1481 861.795898438 1463.5 c 128,-1,12
 856.0234375 1446 856.0234375 1446 849.530273438 1405 c 2,13,-1
 627 0 l 1,14,-1
 415 0 l 1,15,-1
 524.443359375 691 l 1,16,-1
 258.443359375 691 l 1,17,-1
 149 0 l 1,18,-1
 -62 0 l 1,19,-1
 177.793945312 1514 l 1,0,-1
EndSplineSet
EndChar

StartChar: Hbar
Encoding: 294 294 75
Width: 699
VWidth: 2430
GlyphClass: 2
Flags: HW
AnchorPoint: "Anchor-4" 521.056 758 basechar 0
AnchorPoint: "Anchor-2" 401 0 basechar 0
AnchorPoint: "Anchor-0" 547.794 1514 basechar 0
LayerCount: 2
Fore
SplineSet
265.75390625 895 m 1,0,-1
 499.75390625 895 l 1,1,-1
 545.051757812 1181 l 1,2,-1
 311.051757812 1181 l 1,3,-1
 265.75390625 895 l 1,0,-1
79.0517578125 1181 m 1,4,-1
 110.5703125 1380 l 1,5,-1
 157.5703125 1380 l 1,6,-1
 178.793945312 1514 l 1,7,-1
 375.793945312 1514 l 1,8,-1
 372.78515625 1495 l 1,9,10
 362.567382812 1481 362.567382812 1481 357.795898438 1463.5 c 128,-1,11
 353.0234375 1446 353.0234375 1446 346.530273438 1405 c 2,12,-1
 342.5703125 1380 l 1,13,-1
 576.5703125 1380 l 1,14,-1
 597.793945312 1514 l 1,15,-1
 796.793945312 1514 l 1,16,-1
 793.78515625 1495 l 1,17,18
 783.567382812 1481 783.567382812 1481 777.795898438 1463.5 c 128,-1,19
 772.0234375 1446 772.0234375 1446 765.530273438 1405 c 2,20,-1
 761.5703125 1380 l 1,21,-1
 814.5703125 1380 l 1,22,-1
 783.051757812 1181 l 1,23,-1
 730.051757812 1181 l 1,24,-1
 543 0 l 1,25,-1
 358 0 l 1,26,-1
 467.443359375 691 l 1,27,-1
 233.443359375 691 l 1,28,-1
 124 0 l 1,29,-1
 -61 0 l 1,30,-1
 126.051757812 1181 l 1,31,-1
 79.0517578125 1181 l 1,4,-1
EndSplineSet
EndChar

StartChar: I
Encoding: 73 73 79
Width: 674
VWidth: 2430
GlyphClass: 2
Flags: HW
AnchorPoint: "Anchor-3" 427 0 basechar 0
AnchorPoint: "Anchor-2" 251 0 basechar 0
AnchorPoint: "Anchor-0" 476.794 1514 basechar 0
LayerCount: 2
Fore
SplineSet
-62 0 m 1,0,-1
 -29.689453125 204 l 1,1,-1
 167.310546875 204 l 1,2,-1
 342.166992188 1308 l 1,3,-1
 152.166992188 1308 l 1,4,-1
 184.793945312 1514 l 1,5,-1
 777.793945312 1514 l 1,6,-1
 745.166992188 1308 l 1,7,-1
 548.166992188 1308 l 1,8,-1
 372.994140625 202 l 1,9,-1
 579.994140625 202 l 1,10,-1
 548 0 l 1,11,-1
 -62 0 l 1,0,-1
EndSplineSet
EndChar

StartChar: J
Encoding: 74 74 94
Width: 768
VWidth: 2430
GlyphClass: 2
Flags: HW
AnchorPoint: "Anchor-2" 252 0 basechar 0
AnchorPoint: "Anchor-0" 641.794 1514 basechar 0
LayerCount: 2
Fore
SplineSet
189.248046875 -30 m 0,0,1
 115.248046875 -30 115.248046875 -30 52.712890625 4.5 c 128,-1,2
 -9.8232421875 39 -9.8232421875 39 -44.2607421875 112 c 1,3,-1
 67.3662109375 318 l 1,4,-1
 80.0087890625 341 l 1,5,-1
 94.7421875 333 l 1,6,7
 100.732421875 314 100.732421875 314 99.3525390625 289.5 c 128,-1,8
 97.9716796875 265 97.9716796875 265 118.061523438 234 c 1,9,10
 155.092773438 190 155.092773438 190 210.092773438 190 c 128,-1,11
 265.092773438 190 265.092773438 190 308.313476562 264 c 128,-1,12
 351.534179688 338 351.534179688 338 379.884765625 517 c 2,13,-1
 505.483398438 1310 l 1,14,-1
 318.483398438 1310 l 1,15,-1
 350.793945312 1514 l 1,16,-1
 881.793945312 1514 l 1,17,-1
 849.483398438 1310 l 1,18,-1
 708.483398438 1310 l 1,19,-1
 581.776367188 510 l 2,20,21
 550.2578125 311 550.2578125 311 491.831054688 191.5 c 128,-1,22
 433.403320312 72 433.403320312 72 355.16796875 20 c 0,23,24
 279.829101562 -30.07421875 279.829101562 -30.07421875 195.73046875 -30.07421875 c 0,25,26
 192.49609375 -30.07421875 192.49609375 -30.07421875 189.248046875 -30 c 0,0,1
EndSplineSet
EndChar

StartChar: K
Encoding: 75 75 96
Width: 796
VWidth: 2430
GlyphClass: 1
Flags: HW
LayerCount: 2
Fore
SplineSet
288.900390625 656 m 1,0,-1
 220.537109375 559 l 1,1,-1
 136 0 l 1,2,-1
 -62 0 l 1,3,-1
 177.793945312 1514 l 1,4,-1
 392.793945312 1514 l 1,5,-1
 389.78515625 1495 l 1,6,7
 376.567382812 1481 376.567382812 1481 370.795898438 1463.5 c 128,-1,8
 365.0234375 1446 365.0234375 1446 358.530273438 1405 c 2,9,-1
 281.396484375 918 l 1,10,-1
 658.694335938 1526 l 1,11,12
 686.90234375 1521 686.90234375 1521 729.848632812 1517.5 c 128,-1,13
 772.793945312 1514 772.793945312 1514 797.793945312 1514 c 2,14,-1
 861.793945312 1514 l 1,15,-1
 447.309570312 848 l 1,16,-1
 642 0 l 1,17,-1
 428.57421875 -9 l 1,18,-1
 288.900390625 656 l 1,0,-1
EndSplineSet
EndChar

StartChar: uni0198
Encoding: 408 408 98
Width: 800
VWidth: 2430
GlyphClass: 1
Flags: HW
LayerCount: 2
Fore
SplineSet
177.793945312 1514 m 1,0,-1
 401.793945312 1514 l 1,1,-1
 398.78515625 1495 l 1,2,3
 383.567382812 1481 383.567382812 1481 377.295898438 1463.5 c 128,-1,4
 371.0234375 1446 371.0234375 1446 364.530273438 1405 c 2,5,-1
 293.732421875 958 l 1,6,7
 414.051757812 1181 414.051757812 1181 500.69140625 1305 c 128,-1,8
 587.331054688 1429 587.331054688 1429 657.012695312 1477.5 c 128,-1,9
 726.694335938 1526 726.694335938 1526 794.694335938 1526 c 0,10,11
 816.694335938 1526 816.694335938 1526 839.40234375 1521 c 128,-1,12
 862.110351562 1516 862.110351562 1516 873.685546875 1507 c 1,13,-1
 837.098632812 1276 l 1,14,-1
 833.296875 1252 l 1,15,-1
 820.296875 1252 l 1,16,17
 813.514648438 1266 813.514648438 1266 804.915039062 1278 c 128,-1,18
 796.31640625 1290 796.31640625 1290 772.583007812 1298 c 0,19,20
 768.583007812 1298 768.583007812 1298 756.583007812 1298 c 0,21,22
 726.583007812 1298 726.583007812 1298 688.119140625 1263.5 c 128,-1,23
 649.654296875 1229 649.654296875 1229 585.979492188 1139.5 c 128,-1,24
 522.303710938 1050 522.303710938 1050 425.6953125 882 c 1,25,-1
 642 0 l 1,26,-1
 426.099609375 -12 l 1,27,-1
 278.040039062 619 l 1,28,29
 252.75390625 573 252.75390625 573 224.360351562 520 c 1,30,-1
 142 0 l 1,31,-1
 -62 0 l 1,32,-1
 177.793945312 1514 l 1,0,-1
EndSplineSet
EndChar

StartChar: L
Encoding: 76 76 99
Width: 746
VWidth: 2430
GlyphClass: 2
Flags: HW
AnchorPoint: "Anchor-4" 160.056 758 basechar 0
AnchorPoint: "Anchor-2" 270 0 basechar 0
AnchorPoint: "Anchor-1" 347.599 1115 basechar 0
AnchorPoint: "Anchor-0" 453.794 1514 basechar 0
LayerCount: 2
Fore
SplineSet
177.793945312 1514 m 1,0,-1
 415.793945312 1514 l 1,1,-1
 412.78515625 1495 l 1,2,3
 396.567382812 1481 396.567382812 1481 389.795898438 1463.5 c 128,-1,4
 383.0234375 1446 383.0234375 1446 376.530273438 1405 c 2,5,-1
 187.102539062 209 l 1,6,-1
 653.102539062 209 l 1,7,-1
 620 0 l 1,8,-1
 -62 0 l 1,9,-1
 177.793945312 1514 l 1,0,-1
EndSplineSet
EndChar

StartChar: uni01C7
Encoding: 455 455 100
Width: 717
VWidth: 2350
GlyphClass: 1
Flags: HW
LayerCount: 2
Fore
SplineSet
-41.568359375 129 m 1,0,-1
 177.793945312 1514 l 1,1,-1
 385.793945312 1514 l 1,2,3
 383.41796875 1499 383.41796875 1499 379.78515625 1495 c 128,-1,4
 376.151367188 1491 376.151367188 1491 370.146484375 1481.5 c 128,-1,5
 364.141601562 1472 364.141601562 1472 358.756835938 1438 c 2,6,-1
 180.732421875 314 l 1,7,-1
 351.732421875 314 l 1,8,-1
 322.431640625 129 l 1,9,-1
 -41.568359375 129 l 1,0,-1
274.037109375 -246 m 0,10,11
 132.037109375 -246 132.037109375 -246 56.9345703125 -133 c 1,12,-1
 188.751953125 30 l 1,13,14
 203.05859375 13 203.05859375 13 197.5546875 3.5 c 128,-1,15
 192.049804688 -6 192.049804688 -6 209.565429688 -28 c 0,16,17
 218.505859375 -41 218.505859375 -41 236.368164062 -54.5 c 128,-1,18
 254.229492188 -68 254.229492188 -68 286.229492188 -68 c 0,19,20
 337.229492188 -68 337.229492188 -68 374.475585938 3 c 128,-1,21
 411.720703125 74 411.720703125 74 442.2890625 267 c 2,22,-1
 610.651367188 1330 l 1,23,-1
 475.651367188 1330 l 1,24,-1
 504.793945312 1514 l 1,25,-1
 830.793945312 1514 l 1,26,-1
 631.546875 256 l 2,27,28
 630.073242188 246.026367188 630.073242188 246.026367188 628.528320312 236.272460938 c 0,0,0
 601.106445312 63.1337890625 601.106445312 63.1337890625 551.005859375 -41 c 128,-1,29
 498.083984375 -151 498.083984375 -151 427.060546875 -198.5 c 128,-1,30
 356.037109375 -246 356.037109375 -246 274.037109375 -246 c 0,10,11
EndSplineSet
EndChar

StartChar: Lcaron
Encoding: 317 317 102
Width: 746
VWidth: 2430
GlyphClass: 2
Flags: HW
AnchorPoint: "Anchor-4" 160.056 758 basechar 0
AnchorPoint: "Anchor-2" 270 0 basechar 0
AnchorPoint: "Anchor-1" 347.599 1115 basechar 0
AnchorPoint: "Anchor-0" 453.794 1514 basechar 0
LayerCount: 2
Fore
SplineSet
177.793945312 1514 m 1,0,-1
 415.793945312 1514 l 1,1,-1
 412.78515625 1495 l 1,2,3
 396.567382812 1481 396.567382812 1481 389.795898438 1463.5 c 128,-1,4
 383.0234375 1446 383.0234375 1446 376.530273438 1405 c 2,5,-1
 187.102539062 209 l 1,6,-1
 653.102539062 209 l 1,7,-1
 620 0 l 1,8,-1
 -62 0 l 1,9,-1
 177.793945312 1514 l 1,0,-1
588.80078125 990 m 1,10,-1
 500.99609375 1067 l 1,11,12
 553.07421875 1118 553.07421875 1118 584.4140625 1167.5 c 128,-1,13
 615.75390625 1217 615.75390625 1217 622.088867188 1257 c 0,14,15
 626.365234375 1284 626.365234375 1284 614.4296875 1306.5 c 128,-1,16
 602.493164062 1329 602.493164062 1329 589.53125 1354.5 c 128,-1,17
 576.5703125 1380 576.5703125 1380 582.747070312 1419 c 0,18,19
 591.93359375 1477 591.93359375 1477 633.922851562 1508.5 c 128,-1,20
 675.912109375 1540 675.912109375 1540 717.912109375 1540 c 0,21,22
 770.912109375 1540 770.912109375 1540 800.65625 1500.5 c 128,-1,23
 830.399414062 1461 830.399414062 1461 817.887695312 1382 c 0,24,25
 788.427734375 1196 788.427734375 1196 588.80078125 990 c 1,10,-1
EndSplineSet
EndChar

StartChar: uni01C8
Encoding: 456 456 106
Width: 705
VWidth: 2355
GlyphClass: 1
Flags: HW
LayerCount: 2
Fore
SplineSet
218.037109375 -246 m 0,0,1
 163.037109375 -246 163.037109375 -246 112.551757812 -217.5 c 128,-1,2
 62.0654296875 -189 62.0654296875 -189 32.826171875 -140 c 1,3,-1
 164.602539062 48 l 1,4,5
 175.2265625 33 175.2265625 33 169.05859375 13 c 128,-1,6
 162.891601562 -7 162.891601562 -7 195.139648438 -37 c 0,7,8
 214.763671875 -52 214.763671875 -52 248.763671875 -52 c 0,9,10
 299.763671875 -52 299.763671875 -52 340.81640625 2 c 128,-1,11
 381.869140625 56 381.869140625 56 402.618164062 187 c 2,12,-1
 530.1171875 992 l 1,13,-1
 374.1171875 992 l 1,14,-1
 403.1015625 1175 l 1,15,-1
 738.1015625 1175 l 1,16,-1
 583.04296875 196 l 2,17,18
 545.665039062 -40 545.665039062 -40 448.350585938 -143 c 128,-1,19
 351.037109375 -246 351.037109375 -246 218.037109375 -246 c 0,0,1
-39.0341796875 145 m 1,20,-1
 179.219726562 1523 l 1,21,-1
 380.219726562 1523 l 1,22,23
 376.735351562 1501 376.735351562 1501 369.096679688 1487.5 c 128,-1,24
 361.458984375 1474 361.458984375 1474 356.865234375 1445 c 2,25,-1
 181.05859375 335 l 1,26,-1
 335.05859375 335 l 1,27,-1
 302.965820312 145 l 1,28,-1
 -39.0341796875 145 l 1,20,-1
668.244140625 1359 m 0,29,30
 615.244140625 1359 615.244140625 1359 584.525390625 1395.5 c 128,-1,31
 553.806640625 1432 553.806640625 1432 562.201171875 1485 c 128,-1,32
 570.595703125 1538 570.595703125 1538 612.875976562 1574.5 c 128,-1,33
 655.157226562 1611 655.157226562 1611 708.157226562 1611 c 0,34,35
 759.157226562 1611 759.157226562 1611 790.717773438 1573.5 c 128,-1,36
 822.278320312 1536 822.278320312 1536 814.201171875 1485 c 0,37,38
 805.806640625 1432 805.806640625 1432 762.525390625 1395.5 c 128,-1,39
 719.244140625 1359 719.244140625 1359 668.244140625 1359 c 0,29,30
EndSplineSet
EndChar

StartChar: Lslash
Encoding: 321 321 108
Width: 776
VWidth: 2430
GlyphClass: 1
Flags: HW
LayerCount: 2
Fore
SplineSet
5 0 m 1,0,-1
 90.52734375 540 l 1,1,-1
 5.6669921875 503 l 1,2,-1
 40.9873046875 726 l 1,3,-1
 126.639648438 768 l 1,4,-1
 244.793945312 1514 l 1,5,-1
 458.793945312 1514 l 2,6,7
 465.477539062 1512 465.477539062 1512 463.685546875 1507 c 0,8,9
 462.259765625 1498 462.259765625 1498 450.883789062 1483 c 128,-1,10
 439.508789062 1468 439.508789062 1468 430.6484375 1431 c 2,11,-1
 341.319335938 867 l 1,12,-1
 569.266601562 974 l 2,13,14
 605.483398438 988 605.483398438 988 626.334960938 1006 c 1,15,-1
 587.530273438 761 l 1,16,-1
 307.57421875 635 l 1,17,-1
 240.102539062 209 l 1,18,-1
 663.102539062 209 l 1,19,-1
 630 0 l 1,20,-1
 5 0 l 1,0,-1
EndSplineSet
EndChar

StartChar: M
Encoding: 77 77 109
Width: 768
VWidth: 2430
GlyphClass: 2
Flags: HW
AnchorPoint: "Anchor-2" 288 0 basechar 0
AnchorPoint: "Anchor-0" 527.794 1514 basechar 0
LayerCount: 2
Fore
SplineSet
-62 0 m 1,0,-1
 177.793945312 1514 l 1,1,-1
 344.793945312 1514 l 1,2,-1
 431.1796875 904 l 1,3,-1
 717.110351562 1516 l 1,4,-1
 882.110351562 1516 l 1,5,-1
 642 0 l 1,6,-1
 469 0 l 1,7,-1
 635.245117188 1037 l 1,8,-1
 403.2109375 538 l 1,9,-1
 336.2109375 538 l 1,10,-1
 270.453125 1032 l 1,11,-1
 109 0 l 1,12,-1
 -62 0 l 1,0,-1
EndSplineSet
EndChar

StartChar: N
Encoding: 78 78 111
Width: 768
VWidth: 2430
GlyphClass: 2
Flags: HW
AnchorPoint: "Anchor-2" 282 0 basechar 0
AnchorPoint: "Anchor-0" 521.794 1514 basechar 0
LayerCount: 2
Fore
SplineSet
177.793945312 1514 m 1,0,-1
 373.793945312 1514 l 1,1,-1
 542.86328125 580 l 1,2,-1
 683.793945312 1514 l 1,3,-1
 881.793945312 1514 l 1,4,-1
 878.78515625 1495 l 1,5,6
 862.567382812 1481 862.567382812 1481 857.795898438 1463.5 c 128,-1,7
 853.0234375 1446 853.0234375 1446 846.530273438 1405 c 2,8,-1
 624 0 l 1,9,-1
 453 0 l 1,10,-1
 278.225585938 999 l 1,11,-1
 120 0 l 1,12,-1
 -62 0 l 1,13,-1
 177.793945312 1514 l 1,0,-1
EndSplineSet
EndChar

StartChar: Eng
Encoding: 330 330 117
Width: 722
VWidth: 2328
GlyphClass: 2
Flags: HW
AnchorPoint: "Anchor-2" 286.45 167 basechar 0
AnchorPoint: "Anchor-0" 503.794 1514 basechar 0
LayerCount: 2
Fore
SplineSet
662.793945312 1514 m 1,0,-1
 835.793945312 1514 l 1,1,2
 832.78515625 1495 832.78515625 1495 826.067382812 1481 c 128,-1,3
 819.349609375 1467 819.349609375 1467 815.390625 1442 c 2,4,-1
 613.450195312 167 l 2,5,6
 577.813476562 -58 577.813476562 -58 489.42578125 -152 c 128,-1,7
 401.037109375 -246 401.037109375 -246 293.037109375 -246 c 0,8,9
 254.037109375 -246 254.037109375 -246 215.150390625 -229.5 c 128,-1,10
 176.263671875 -213 176.263671875 -213 140.173828125 -182 c 1,11,-1
 242.68359375 -2 l 1,12,13
 257.049804688 -6 257.049804688 -6 261.83203125 -20 c 128,-1,14
 266.615234375 -34 266.615234375 -34 276.055664062 -47 c 128,-1,15
 285.497070312 -60 285.497070312 -60 318.497070312 -60 c 0,16,17
 366.497070312 -60 366.497070312 -60 396.920898438 -0.5 c 128,-1,18
 427.344726562 59 427.344726562 59 449.202148438 197 c 1,19,-1
 276.25390625 1056 l 1,20,-1
 135.450195312 167 l 1,21,-1
 -35.5498046875 167 l 1,22,-1
 177.793945312 1514 l 1,23,-1
 346.793945312 1514 l 1,24,-1
 531.176757812 683 l 1,25,-1
 662.793945312 1514 l 1,0,-1
EndSplineSet
EndChar

StartChar: O
Encoding: 79 79 120
Width: 757
VWidth: 2430
GlyphClass: 2
Flags: HW
AnchorPoint: "Anchor-4" 402.056 758 basechar 0
AnchorPoint: "Anchor-3" 334.752 30 basechar 0
AnchorPoint: "Anchor-2" 285 0 basechar 0
AnchorPoint: "Anchor-1" 726.956 1414 basechar 0
AnchorPoint: "Anchor-0" 522.11 1516 basechar 0
LayerCount: 2
Fore
SplineSet
312.55859375 174 m 0,0,1
 362.55859375 174 362.55859375 174 406.953125 227 c 128,-1,2
 451.34765625 280 451.34765625 280 489.8828125 406.5 c 128,-1,3
 528.418945312 533 528.418945312 533 563.263671875 753 c 0,4,5
 612.521484375 1064 612.521484375 1064 591.848632812 1195.5 c 128,-1,6
 571.17578125 1327 571.17578125 1327 495.17578125 1327 c 0,7,8
 416.17578125 1327 416.17578125 1327 354.348632812 1195.5 c 128,-1,9
 292.521484375 1064 292.521484375 1064 243.263671875 753 c 0,10,11
 208.260742188 532 208.260742188 532 206.803710938 406 c 128,-1,12
 205.34765625 280 205.34765625 280 232.953125 227 c 128,-1,13
 260.55859375 174 260.55859375 174 312.55859375 174 c 0,0,1
280.723632812 -27 m 128,-1,15
 162.723632812 -27 162.723632812 -27 96.33984375 49.5 c 128,-1,16
 29.9560546875 126 29.9560546875 126 18.119140625 297.5 c 128,-1,17
 6.2822265625 469 6.2822265625 469 50.9462890625 751 c 0,18,19
 116.359375 1164 116.359375 1164 233.685546875 1346 c 128,-1,20
 351.01171875 1528 351.01171875 1528 527.01171875 1528 c 0,21,22
 704.01171875 1528 704.01171875 1528 762.185546875 1346 c 128,-1,23
 820.359375 1164 820.359375 1164 754.946289062 751 c 0,24,25
 710.282226562 469 710.282226562 469 643.619140625 297.5 c 128,-1,26
 576.956054688 126 576.956054688 126 487.83984375 49.5 c 128,-1,14
 398.723632812 -27 398.723632812 -27 280.723632812 -27 c 128,-1,15
EndSplineSet
Substitution2: "Single Substitution lookup 29 subtable" ordmasculine
Substitution2: "'aalt' Access All Alternates in Latin lookup 0 subtable" ordmasculine
EndChar

StartChar: Oslash
Encoding: 216 216 148
Width: 757
VWidth: 2430
GlyphClass: 2
Flags: HW
AnchorPoint: "Anchor-4" 402.056 758 basechar 0
AnchorPoint: "Anchor-3" 334.752 30 basechar 0
AnchorPoint: "Anchor-2" 285 0 basechar 0
AnchorPoint: "Anchor-1" 726.956 1414 basechar 0
AnchorPoint: "Anchor-0" 522.11 1516 basechar 0
LayerCount: 2
Fore
SplineSet
312.55859375 174 m 0,0,1
 362.55859375 174 362.55859375 174 406.953125 227 c 128,-1,2
 451.34765625 280 451.34765625 280 489.8828125 406.5 c 128,-1,3
 528.418945312 533 528.418945312 533 563.263671875 753 c 0,4,5
 592.248046875 936 592.248046875 936 599.412109375 1057 c 1,6,-1
 219.497070312 262 l 1,7,8
 242.55859375 174 242.55859375 174 312.55859375 174 c 0,0,1
243.263671875 753 m 0,9,10
 218.23828125 595 218.23828125 595 208.974609375 486 c 1,11,-1
 578.40625 1259 l 1,12,13
 552.17578125 1327 552.17578125 1327 495.17578125 1327 c 0,14,15
 416.17578125 1327 416.17578125 1327 354.348632812 1195.5 c 128,-1,16
 292.521484375 1064 292.521484375 1064 243.263671875 753 c 0,9,10
37.626953125 -116 m 1,17,-1
 -55.294921875 -65 l 1,18,-1
 46.8076171875 144 l 1,19,20
 15.537109375 237 15.537109375 237 16.3740234375 387.5 c 128,-1,21
 17.2109375 538 17.2109375 538 50.9462890625 751 c 0,22,23
 116.359375 1164 116.359375 1164 233.685546875 1346 c 128,-1,24
 351.01171875 1528 351.01171875 1528 527.01171875 1528 c 0,25,26
 623.01171875 1528 623.01171875 1528 682.93359375 1477 c 1,27,-1
 767.6015625 1658 l 1,28,-1
 860.048828125 1604 l 1,29,-1
 752.25390625 1378 l 1,30,31
 824.953125 1193 824.953125 1193 754.946289062 751 c 0,32,33
 710.282226562 469 710.282226562 469 643.619140625 297.5 c 128,-1,34
 576.956054688 126 576.956054688 126 487.83984375 49.5 c 128,-1,35
 398.723632812 -27 398.723632812 -27 280.723632812 -27 c 0,36,37
 171.723632812 -27 171.723632812 -27 108.384765625 34 c 1,38,-1
 37.626953125 -116 l 1,17,-1
EndSplineSet
EndChar

StartChar: OE
Encoding: 338 338 154
Width: 709
VWidth: 2430
GlyphClass: 1
Flags: HW
LayerCount: 2
Fore
SplineSet
198.092773438 190 m 128,-1,1
 250.092773438 190 250.092773438 190 284.534179688 338 c 1,2,-1
 415.04296875 1162 l 1,3,4
 430.6015625 1336 430.6015625 1336 368.6015625 1336 c 0,5,6
 343.6015625 1336 343.6015625 1336 316.657226562 1289 c 128,-1,7
 289.713867188 1242 289.713867188 1242 258.415039062 1117 c 128,-1,8
 231.75390625 1010.51855469 231.75390625 1010.51855469 202.706054688 827.118164062 c 0,0,0
 197.654296875 795.22265625 197.654296875 795.22265625 192.530273438 761 c 0,9,10
 145.490234375 464 145.490234375 464 145.791992188 327 c 128,-1,0
 146.092773438 190 146.092773438 190 198.092773438 190 c 128,-1,1
134.307617188 -17 m 0,11,12
 63.3076171875 -17 63.3076171875 -17 20.6318359375 54.5 c 128,-1,13
 -22.0439453125 126 -22.0439453125 126 -25.7763671875 295 c 128,-1,14
 -29.509765625 464 -29.509765625 464 17.0556640625 758 c 0,15,16
 83.5771484375 1178 83.5771484375 1178 175.348632812 1356.5 c 128,-1,17
 267.120117188 1535 267.120117188 1535 382.120117188 1535 c 0,18,19
 440.120117188 1535 440.120117188 1535 469.033203125 1465 c 1,20,-1
 477.110351562 1516 l 1,21,-1
 841.110351562 1516 l 1,22,-1
 808.80078125 1312 l 1,23,-1
 611.80078125 1312 l 1,24,-1
 545.279296875 892 l 1,25,-1
 714.279296875 892 l 1,26,-1
 681.651367188 686 l 1,27,-1
 512.651367188 686 l 1,28,-1
 435.994140625 202 l 1,29,-1
 630.994140625 202 l 1,30,-1
 599 0 l 1,31,-1
 235 0 l 1,32,-1
 242.760742188 49 l 1,33,34
 221.375976562 15 221.375976562 15 191.341796875 -1 c 128,-1,35
 161.307617188 -17 161.307617188 -17 134.307617188 -17 c 0,11,12
EndSplineSet
EndChar

StartChar: P
Encoding: 80 80 155
Width: 768
VWidth: 2430
GlyphClass: 2
Flags: HW
AnchorPoint: "Anchor-2" 117 0 basechar 0
AnchorPoint: "Anchor-0" 515.794 1514 basechar 0
LayerCount: 2
Fore
SplineSet
283.884765625 839 m 1,0,-1
 408.884765625 839 l 2,1,2
 479.884765625 839 479.884765625 839 531.625 900.5 c 128,-1,3
 583.366210938 962 583.366210938 962 600.3125 1069 c 0,4,5
 618.685546875 1185 618.685546875 1185 586.688476562 1245 c 128,-1,6
 554.69140625 1305 554.69140625 1305 482.69140625 1305 c 2,7,-1
 357.69140625 1305 l 1,8,-1
 283.884765625 839 l 1,0,-1
-62 0 m 1,9,-1
 177.793945312 1514 l 1,10,-1
 523.793945312 1514 l 2,11,12
 704.793945312 1514 704.793945312 1514 775.000976562 1398.5 c 128,-1,13
 845.20703125 1283 845.20703125 1283 811.629882812 1071 c 0,14,15
 780.427734375 874 780.427734375 874 668.684570312 752.5 c 128,-1,16
 556.940429688 631 556.940429688 631 390.940429688 631 c 2,17,-1
 250.940429688 631 l 1,18,-1
 151 0 l 1,19,-1
 -62 0 l 1,9,-1
EndSplineSet
EndChar

StartChar: Thorn
Encoding: 222 222 156
Width: 768
VWidth: 2430
GlyphClass: 1
Flags: HW
LayerCount: 2
Fore
SplineSet
234.853515625 561 m 1,0,-1
 368.853515625 561 l 2,1,2
 453.853515625 561 453.853515625 561 499.806640625 627 c 128,-1,3
 545.760742188 693 545.760742188 693 561.916015625 795 c 128,-1,4
 578.071289062 897 578.071289062 897 550.658203125 967 c 128,-1,5
 523.245117188 1037 523.245117188 1037 438.245117188 1037 c 2,6,-1
 310.245117188 1037 l 1,7,-1
 234.853515625 561 l 1,0,-1
-62 0 m 1,8,-1
 177.793945312 1514 l 1,9,-1
 399.793945312 1514 l 2,10,11
 401.477539062 1512 401.477539062 1512 400.368164062 1505 c 128,-1,12
 399.259765625 1498 399.259765625 1498 390.04296875 1484 c 128,-1,13
 380.825195312 1470 380.825195312 1470 374.073242188 1440 c 2,14,-1
 343.822265625 1249 l 1,15,-1
 488.822265625 1249 l 2,16,17
 666.822265625 1249 666.822265625 1249 733.366210938 1123 c 128,-1,18
 799.909179688 997 799.909179688 997 769.024414062 802 c 0,19,20
 737.030273438 600 737.030273438 600 630.182617188 481 c 128,-1,21
 523.334960938 362 523.334960938 362 344.334960938 362 c 2,22,-1
 203.334960938 362 l 1,23,-1
 146 0 l 1,24,-1
 -62 0 l 1,8,-1
EndSplineSet
EndChar

StartChar: Q
Encoding: 81 81 157
Width: 762
VWidth: 2380
GlyphClass: 2
Flags: HW
AnchorPoint: "Anchor-2" 299.305 84 basechar 0
AnchorPoint: "Anchor-0" 525.952 1515 basechar 0
LayerCount: 2
Fore
SplineSet
334.229492188 254 m 0,0,1
 402.229492188 254 402.229492188 254 464.418945312 372 c 128,-1,2
 526.608398438 490 526.608398438 490 570.639648438 768 c 0,3,4
 605.642578125 989 605.642578125 989 604.440429688 1114 c 128,-1,5
 603.23828125 1239 603.23828125 1239 573.736328125 1289.5 c 128,-1,6
 544.235351562 1340 544.235351562 1340 501.235351562 1340 c 0,7,8
 424.235351562 1340 424.235351562 1340 362.25390625 1217 c 128,-1,9
 300.272460938 1094 300.272460938 1094 257.350585938 823 c 0,10,11
 209.04296875 518 209.04296875 518 232.13671875 386 c 128,-1,12
 255.229492188 254 255.229492188 254 334.229492188 254 c 0,0,1
458.196289062 -245 m 1,13,14
 441.286132812 -246.025390625 441.286132812 -246.025390625 425.526367188 -246.025390625 c 0,15,16
 302.944335938 -246.025390625 302.944335938 -246.025390625 249.857421875 -184 c 0,17,18
 189.944335938 -114 189.944335938 -114 219.086914062 70 c 1,19,20
 97.263671875 109 97.263671875 109 52.03125 278 c 128,-1,21
 6.7978515625 447 6.7978515625 447 61.7568359375 794 c 0,22,23
 96.443359375 1013 96.443359375 1013 147.592773438 1156 c 128,-1,24
 198.741210938 1299 198.741210938 1299 260.887695312 1382 c 128,-1,25
 323.033203125 1465 323.033203125 1465 392.41796875 1499 c 128,-1,26
 461.803710938 1533 461.803710938 1533 531.803710938 1533 c 0,27,28
 627.803710938 1533 627.803710938 1533 698.008789062 1468 c 128,-1,29
 768.212890625 1403 768.212890625 1403 789.713867188 1242 c 128,-1,30
 811.213867188 1081 811.213867188 1081 766.390625 798 c 0,31,32
 728.219726562 557 728.219726562 557 673.724609375 405.5 c 128,-1,33
 619.229492188 254 619.229492188 254 549.137695312 174.5 c 128,-1,34
 479.046875 95 479.046875 95 392.086914062 70 c 1,35,36
 385.633789062 4 385.633789062 4 399.931640625 -32 c 128,-1,37
 414.229492188 -68 414.229492188 -68 462.229492188 -68 c 2,38,-1
 573.338867188 -61 l 1,39,-1
 542.196289062 -245 l 1,40,-1
 458.196289062 -245 l 1,13,14
EndSplineSet
EndChar

StartChar: R
Encoding: 82 82 158
Width: 768
VWidth: 2430
GlyphClass: 2
Flags: HW
AnchorPoint: "Anchor-2" 272 0 basechar 0
AnchorPoint: "Anchor-0" 511.794 1514 basechar 0
LayerCount: 2
Fore
SplineSet
277.884765625 839 m 1,0,-1
 397.884765625 839 l 2,1,2
 463.884765625 839 463.884765625 839 510.174804688 894.5 c 128,-1,3
 556.46484375 950 556.46484375 950 576.104492188 1074 c 0,4,5
 594.477539062 1190 594.477539062 1190 566.084960938 1247.5 c 128,-1,6
 537.69140625 1305 537.69140625 1305 471.69140625 1305 c 2,7,-1
 351.69140625 1305 l 1,8,-1
 277.884765625 839 l 1,0,-1
-62 0 m 1,9,-1
 177.793945312 1514 l 1,10,-1
 488.793945312 1514 l 2,11,12
 674.793945312 1514 674.793945312 1514 745.659179688 1399.5 c 128,-1,13
 816.524414062 1285 816.524414062 1285 783.421875 1076 c 0,14,15
 757.60546875 913 757.60546875 913 693.529296875 811.5 c 128,-1,16
 629.453125 710 629.453125 710 533.484375 666 c 1,17,-1
 642 0 l 1,18,-1
 437 0 l 1,19,-1
 336.366210938 640 l 1,20,-1
 246.366210938 640 l 1,21,-1
 145 0 l 1,22,-1
 -62 0 l 1,9,-1
EndSplineSet
EndChar

StartChar: S
Encoding: 83 83 166
Width: 768
VWidth: 2430
GlyphClass: 2
Flags: HW
AnchorPoint: "Anchor-2" 291 0 basechar 0
AnchorPoint: "Anchor-0" 542.794 1514 basechar 0
LayerCount: 2
Fore
SplineSet
273.19921875 -24 m 0,0,1
 55.19921875 -24 55.19921875 -24 -42.0439453125 126 c 1,2,-1
 80.4345703125 350 l 1,3,-1
 91.2353515625 374 l 1,4,-1
 105.65234375 364 l 1,5,6
 111.958984375 347 111.958984375 347 111.158203125 323 c 128,-1,7
 110.357421875 299 110.357421875 299 127.971679688 265 c 1,8,9
 159.794921875 226 159.794921875 226 202.15234375 203 c 128,-1,10
 244.508789062 180 244.508789062 180 298.508789062 180 c 0,11,12
 376.508789062 180 376.508789062 180 428.537109375 237 c 128,-1,13
 480.565429688 294 480.565429688 294 497.51171875 401 c 0,14,15
 505.90625 454 505.90625 454 501.771484375 500.5 c 128,-1,16
 497.63671875 547 497.63671875 547 465.763671875 592 c 128,-1,17
 433.890625 637 433.890625 637 363.760742188 693 c 1,18,19
 228.490234375 786 228.490234375 786 182.200195312 891.5 c 128,-1,20
 135.909179688 997 135.909179688 997 159.666992188 1147 c 0,21,22
 188.967773438 1332 188.967773438 1332 297.043945312 1433.5 c 128,-1,23
 405.120117188 1535 405.120117188 1535 549.120117188 1535 c 0,24,25
 747.120117188 1535 747.120117188 1535 833.778320312 1375 c 1,26,-1
 715.051757812 1181 l 1,27,-1
 702.567382812 1159 l 1,28,-1
 688.151367188 1169 l 1,29,30
 683.84375 1186 683.84375 1186 684.803710938 1211 c 128,-1,31
 685.762695312 1236 685.762695312 1236 667.831054688 1268 c 1,32,33
 640.69140625 1305 640.69140625 1305 607.750976562 1318 c 128,-1,34
 574.809570312 1331 574.809570312 1331 532.809570312 1331 c 0,35,36
 469.809570312 1331 469.809570312 1331 424.76171875 1286.5 c 128,-1,37
 379.713867188 1242 379.713867188 1242 366.567382812 1159 c 0,38,39
 357.380859375 1101 357.380859375 1101 365.595703125 1055 c 128,-1,40
 373.809570312 1009 373.809570312 1009 409.9453125 962.5 c 128,-1,41
 446.080078125 916 446.080078125 916 523.2109375 860 c 0,42,43
 652.48046875 767 652.48046875 767 691.666992188 664 c 128,-1,44
 730.853515625 561 730.853515625 561 708.837890625 422 c 0,45,46
 677.63671875 225 677.63671875 225 561.41796875 100.5 c 128,-1,47
 445.19921875 -24 445.19921875 -24 273.19921875 -24 c 0,0,1
EndSplineSet
EndChar

StartChar: uni1E9E
Encoding: 7838 7838 177
Width: 768
VWidth: 2430
GlyphClass: 1
Flags: HW
LayerCount: 2
Fore
SplineSet
351.19921875 -24 m 0,0,1
 253.19921875 -24 253.19921875 -24 195.384765625 34 c 1,2,-1
 272.63671875 225 l 1,3,4
 302.318359375 182.913085938 302.318359375 182.913085938 345.0703125 182.913085938 c 0,0,0
 347.013671875 182.913085938 347.013671875 182.913085938 348.984375 183 c 0,5,6
 404.984375 183 404.984375 183 448.071289062 253 c 128,-1,7
 491.158203125 323 491.158203125 323 512.698242188 459 c 0,8,9
 532.655273438 585 532.655273438 585 509.142578125 667 c 128,-1,10
 485.629882812 749 485.629882812 749 382.629882812 749 c 2,11,-1
 343.629882812 749 l 1,12,-1
 376.256835938 955 l 1,13,-1
 580.120117188 1213 l 1,14,15
 594.849609375 1306 594.849609375 1306 577.853515625 1366 c 128,-1,16
 560.856445312 1426 560.856445312 1426 496.856445312 1426 c 0,17,18
 438.856445312 1426 438.856445312 1426 391.323242188 1359.5 c 128,-1,19
 343.791015625 1293 343.791015625 1293 320.033203125 1143 c 2,20,-1
 139 0 l 1,21,-1
 -62 0 l 1,22,-1
 113.490234375 1108 l 2,23,24
 145.483398438 1310 145.483398438 1310 208.801757812 1422.5 c 128,-1,25
 272.120117188 1535 272.120117188 1535 354.985351562 1581.5 c 128,-1,26
 437.849609375 1628 437.849609375 1628 526.849609375 1628 c 0,27,28
 675.849609375 1628 675.849609375 1628 736.8984375 1511.5 c 128,-1,29
 797.946289062 1395 797.946289062 1395 763.577148438 1178 c 1,30,-1
 548.98046875 928 l 1,31,32
 666.01171875 884 666.01171875 884 703.817382812 756.5 c 128,-1,33
 741.624023438 629 741.624023438 629 711.689453125 440 c 0,34,35
 674.626953125 206 674.626953125 206 579.413085938 91 c 128,-1,36
 484.19921875 -24 484.19921875 -24 351.19921875 -24 c 0,0,1
EndSplineSet
EndChar

StartChar: T
Encoding: 84 84 179
Width: 768
VWidth: 2430
GlyphClass: 2
Flags: HW
AnchorPoint: "Anchor-4" 402.056 758 basechar 0
AnchorPoint: "Anchor-2" 291 0 basechar 0
AnchorPoint: "Anchor-0" 530.794 1514 basechar 0
LayerCount: 2
Fore
SplineSet
186 0 m 1,0,-1
 393.166992188 1308 l 1,1,-1
 145.166992188 1308 l 1,2,-1
 178.110351562 1516 l 1,3,-1
 882.110351562 1516 l 1,4,-1
 849.166992188 1308 l 1,5,-1
 587.166992188 1308 l 1,6,-1
 380 0 l 1,7,-1
 186 0 l 1,0,-1
EndSplineSet
EndChar

StartChar: Tbar
Encoding: 358 358 180
Width: 768
VWidth: 2430
GlyphClass: 2
Flags: HW
AnchorPoint: "Anchor-4" 402.056 758 basechar 0
AnchorPoint: "Anchor-2" 291 0 basechar 0
AnchorPoint: "Anchor-0" 530.794 1514 basechar 0
LayerCount: 2
Fore
SplineSet
186 0 m 1,0,-1
 292.909179688 675 l 1,1,-1
 121.909179688 675 l 1,2,-1
 151.2109375 860 l 1,3,-1
 322.2109375 860 l 1,4,-1
 393.166992188 1308 l 1,5,-1
 145.166992188 1308 l 1,6,-1
 178.110351562 1516 l 1,7,-1
 882.110351562 1516 l 1,8,-1
 849.166992188 1308 l 1,9,-1
 587.166992188 1308 l 1,10,-1
 516.2109375 860 l 1,11,-1
 684.2109375 860 l 1,12,-1
 654.909179688 675 l 1,13,-1
 486.909179688 675 l 1,14,-1
 380 0 l 1,15,-1
 186 0 l 1,0,-1
EndSplineSet
EndChar

StartChar: U
Encoding: 85 85 186
Width: 768
VWidth: 2430
GlyphClass: 2
Flags: HW
AnchorPoint: "Anchor-3" 357.801 24 basechar 0
AnchorPoint: "Anchor-2" 287 0 basechar 0
AnchorPoint: "Anchor-1" 868.794 1514 basechar 0
AnchorPoint: "Anchor-0" 526.794 1514 basechar 0
LayerCount: 2
Fore
SplineSet
284.248046875 -30 m 0,0,1
 95.248046875 -30 95.248046875 -30 35.4716796875 104 c 128,-1,2
 -24.3046875 238 -24.3046875 238 16.55859375 496 c 2,3,-1
 177.793945312 1514 l 1,4,-1
 406.793945312 1514 l 1,5,-1
 403.78515625 1495 l 1,6,7
 389.567382812 1481 389.567382812 1481 383.795898438 1463.5 c 128,-1,8
 378.0234375 1446 378.0234375 1446 371.530273438 1405 c 2,9,-1
 227.2421875 494 l 2,10,11
 201.900390625 334 201.900390625 334 218.571289062 253 c 0,12,13
 234.840820312 173.952148438 234.840820312 173.952148438 312.677734375 173.952148438 c 0,14,15
 314.599609375 173.952148438 314.599609375 173.952148438 316.55859375 174 c 0,16,17
 399.55859375 174 399.55859375 174 443.600585938 259.5 c 128,-1,18
 487.642578125 345 487.642578125 345 512.350585938 501 c 2,19,-1
 672.793945312 1514 l 1,20,-1
 881.793945312 1514 l 1,21,-1
 721.666992188 503 l 2,22,23
 676.52734375 218 676.52734375 218 567.046875 95 c 128,-1,24
 457.565429688 -28 457.565429688 -28 284.248046875 -30 c 0,0,1
EndSplineSet
EndChar

StartChar: V
Encoding: 86 86 209
Width: 735
VWidth: 2430
GlyphClass: 2
Flags: HW
AnchorPoint: "Anchor-2" 269 0 basechar 0
AnchorPoint: "Anchor-0" 508.794 1514 basechar 0
LayerCount: 2
Fore
SplineSet
203.891601562 -7 m 1,0,-1
 160.110351562 1516 l 1,1,-1
 347.110351562 1516 l 1,2,-1
 359.2421875 494 l 1,3,-1
 680.793945312 1514 l 1,4,-1
 863.793945312 1514 l 1,5,-1
 343.891601562 -7 l 1,6,-1
 203.891601562 -7 l 1,0,-1
EndSplineSet
EndChar

StartChar: W
Encoding: 87 87 210
Width: 699
VWidth: 2430
GlyphClass: 2
Flags: HW
AnchorPoint: "Anchor-2" 247 0 basechar 0
AnchorPoint: "Anchor-0" 496.794 1514 basechar 0
LayerCount: 2
Fore
SplineSet
21 0 m 1,0,-1
 135.793945312 1514 l 1,1,-1
 291.793945312 1514 l 1,2,-1
 207.624023438 629 l 1,3,-1
 428.34375 1347 l 1,4,-1
 517.34375 1347 l 1,5,-1
 509.624023438 629 l 1,6,-1
 693.793945312 1514 l 1,7,-1
 839.793945312 1514 l 1,8,-1
 477 0 l 1,9,-1
 370 0 l 1,10,-1
 385.884765625 839 l 1,11,-1
 132 0 l 1,12,-1
 21 0 l 1,0,-1
EndSplineSet
EndChar

StartChar: X
Encoding: 88 88 215
Width: 788
VWidth: 2430
GlyphClass: 2
Flags: HW
AnchorPoint: "Anchor-2" 282 0 basechar 0
AnchorPoint: "Anchor-0" 521.794 1514 basechar 0
LayerCount: 2
Fore
SplineSet
-62 0 m 1,0,-1
 296.272460938 772 l 1,1,-1
 182.110351562 1516 l 1,2,-1
 373.110351562 1516 l 1,3,-1
 443.551757812 1020 l 1,4,-1
 671.110351562 1516 l 1,5,-1
 850.110351562 1516 l 1,6,-1
 515.748046875 775 l 1,7,-1
 642 0 l 1,8,-1
 449 0 l 1,9,-1
 366.360351562 520 l 1,10,-1
 125 0 l 1,11,-1
 -62 0 l 1,0,-1
EndSplineSet
EndChar

StartChar: Y
Encoding: 89 89 216
Width: 747
VWidth: 2430
GlyphClass: 2
Flags: HW
AnchorPoint: "Anchor-2" 291 0 basechar 0
AnchorPoint: "Anchor-0" 514.794 1514 basechar 0
LayerCount: 2
Fore
SplineSet
194 0 m 1,0,-1
 283.645507812 566 l 1,1,-1
 166.793945312 1514 l 1,2,-1
 357.793945312 1514 l 1,3,-1
 429.427734375 874 l 1,4,-1
 686.793945312 1514 l 1,5,-1
 870.793945312 1514 l 1,6,-1
 471.645507812 566 l 1,7,-1
 382 0 l 1,8,-1
 194 0 l 1,0,-1
EndSplineSet
EndChar

StartChar: Z
Encoding: 90 90 226
Width: 768
VWidth: 2430
GlyphClass: 2
Flags: HW
AnchorPoint: "Anchor-2" 309 0 basechar 0
AnchorPoint: "Anchor-0" 534.794 1514 basechar 0
LayerCount: 2
Fore
SplineSet
-40.4599609375 136 m 1,0,-1
 590.166992188 1308 l 1,1,-1
 164.166992188 1308 l 1,2,-1
 196.793945312 1514 l 1,3,-1
 861.793945312 1514 l 1,4,-1
 840.25390625 1378 l 1,5,-1
 213.626953125 206 l 1,6,-1
 570.626953125 206 l 2,7,8
 610.626953125 206 610.626953125 206 626.918945312 211 c 128,-1,9
 643.2109375 216 643.2109375 216 660.586914062 231 c 1,10,-1
 678.586914062 231 l 1,11,-1
 642 0 l 1,12,-1
 -62 0 l 1,13,-1
 -40.4599609375 136 l 1,0,-1
EndSplineSet
EndChar

StartChar: a
Encoding: 97 97 232
Width: 768
VWidth: 2430
GlyphClass: 2
Flags: HW
AnchorPoint: "Anchor-3" 536 0 basechar 0
AnchorPoint: "Anchor-2" 276 0 basechar 0
AnchorPoint: "Anchor-0" 474.173 1106 basechar 0
LayerCount: 2
Fore
SplineSet
195.424804688 331 m 0,0,1
 183.546875 256 183.546875 256 207.998046875 211.5 c 128,-1,2
 232.450195312 167 232.450195312 167 283.450195312 167 c 0,3,4
 370.450195312 167 370.450195312 167 426.595703125 250 c 128,-1,5
 482.7421875 333 482.7421875 333 516.884765625 517 c 1,6,7
 501.201171875 519 501.201171875 519 482.780273438 519.5 c 128,-1,8
 464.360351562 520 464.360351562 520 447.360351562 520 c 0,9,10
 332.360351562 520 332.360351562 520 271.57421875 474 c 128,-1,11
 210.788085938 428 210.788085938 428 195.424804688 331 c 0,0,1
206.723632812 -27 m 0,12,13
 75.7236328125 -27 75.7236328125 -27 19.5322265625 66.5 c 128,-1,14
 -36.658203125 160 -36.658203125 160 -14.326171875 301 c 0,15,16
 17.984375 505 17.984375 505 147.71875 607.5 c 128,-1,17
 277.453125 710 277.453125 710 475.453125 710 c 0,18,19
 504.453125 710 504.453125 710 543.661132812 705 c 1,20,21
 562.002929688 865 562.002929688 865 531.421875 915 c 128,-1,22
 500.840820312 965 500.840820312 965 426.840820312 965 c 0,23,24
 371.840820312 965 371.840820312 965 324.356445312 943 c 128,-1,25
 276.872070312 921 276.872070312 921 222.002929688 865 c 1,26,-1
 136.809570312 1009 l 1,27,28
 207.580078125 1077 207.580078125 1077 291.915039062 1117 c 128,-1,29
 376.250976562 1157 376.250976562 1157 478.250976562 1157 c 0,30,31
 586.250976562 1157 586.250976562 1157 656.782226562 1113 c 128,-1,32
 727.3125 1069 727.3125 1069 750.624023438 951 c 128,-1,33
 773.934570312 833 773.934570312 833 739.40625 615 c 2,34,-1
 642 0 l 1,35,-1
 432 0 l 1,36,-1
 450.373046875 116 l 1,37,38
 396.2265625 33 396.2265625 33 335.975585938 3 c 128,-1,39
 275.723632812 -27 275.723632812 -27 206.723632812 -27 c 0,12,13
EndSplineSet
Substitution2: "Single Substitution lookup 29 subtable" ordfeminine
Substitution2: "'aalt' Access All Alternates in Latin lookup 0 subtable" ordfeminine
EndChar

StartChar: ae
Encoding: 230 230 257
Width: 684
VWidth: 2430
GlyphClass: 1
Flags: HW
LayerCount: 2
Fore
SplineSet
119.232421875 153 m 0,0,1
 166.232421875 153 166.232421875 153 192.62109375 247 c 128,-1,2
 219.008789062 341 219.008789062 341 246.568359375 515 c 1,3,4
 171.776367188 510 171.776367188 510 134.64453125 455.5 c 128,-1,5
 97.51171875 401 97.51171875 401 82.1484375 304 c 0,6,7
 58.232421875 153 58.232421875 153 119.232421875 153 c 0,0,1
416.185546875 702 m 1,8,-1
 558.453125 710 l 1,9,10
 579.359375 842 579.359375 842 572.100585938 903.5 c 128,-1,11
 564.840820312 965 564.840820312 965 531.840820312 965 c 0,12,13
 457.682617188 964 457.682617188 964 416.185546875 702 c 1,8,-1
78.7236328125 -27 m 0,14,15
 -13.2763671875 -27 -13.2763671875 -27 -52.36328125 64 c 128,-1,16
 -91.4501953125 155 -91.4501953125 155 -67.8515625 304 c 0,17,18
 -38.2333984375 491 -38.2333984375 491 43.837890625 583 c 128,-1,19
 125.909179688 675 125.909179688 675 272.760742188 693 c 1,20,21
 295.092773438 834 295.092773438 834 283.966796875 899.5 c 128,-1,22
 272.840820312 965 272.840820312 965 229.840820312 965 c 0,23,24
 172.840820312 965 172.840820312 965 117.6953125 882 c 1,25,-1
 73.02734375 1023 l 1,26,27
 158.19140625 1144 158.19140625 1144 272.350585938 1145 c 0,28,29
 321.350585938 1145 321.350585938 1145 358.172851562 1106 c 128,-1,30
 394.99609375 1067 394.99609375 1067 404.443359375 1013 c 1,31,32
 433.3125 1069 433.3125 1069 480.33203125 1107 c 128,-1,33
 527.350585938 1145 527.350585938 1145 568.350585938 1145 c 0,34,35
 670.350585938 1145 670.350585938 1145 696.65625 1017.5 c 128,-1,36
 722.961914062 890 722.961914062 890 684.474609375 647 c 2,37,-1
 668.63671875 547 l 1,38,-1
 389.418945312 533 l 1,39,-1
 372.629882812 427 l 2,40,41
 351.723632812 295 351.723632812 295 369.58203125 221.5 c 128,-1,42
 387.440429688 148 387.440429688 148 443.440429688 148 c 0,43,44
 504.440429688 148 504.440429688 148 555.63671875 225 c 1,45,-1
 602.254882812 90 l 1,46,47
 513.881835938 -26 513.881835938 -26 407.723632812 -27 c 0,48,49
 360.723632812 -27 360.723632812 -27 316.450195312 6 c 128,-1,50
 272.176757812 39 272.176757812 39 253.155273438 102 c 1,51,52
 218.494140625 41 218.494140625 41 173.108398438 7 c 128,-1,53
 127.723632812 -27 127.723632812 -27 78.7236328125 -27 c 0,14,15
EndSplineSet
EndChar

StartChar: b
Encoding: 98 98 259
Width: 768
VWidth: 2430
GlyphClass: 2
Flags: HW
AnchorPoint: "Anchor-2" 454 0 basechar 0
AnchorPoint: "Anchor-0" 630.599 1115 basechar 0
LayerCount: 2
Fore
SplineSet
315.92578125 170 m 0,0,1
 361.92578125 170 361.92578125 170 400.59765625 199.5 c 128,-1,2
 439.270507812 229 439.270507812 229 471.836914062 311.5 c 128,-1,3
 504.403320312 394 504.403320312 394 530.061523438 556 c 0,4,5
 566.33203125 785 566.33203125 785 542.0859375 875 c 128,-1,6
 517.840820312 965 517.840820312 965 444.840820312 965 c 0,7,8
 379.840820312 965 379.840820312 965 321.240234375 866.5 c 128,-1,9
 262.639648438 768 262.639648438 768 229.537109375 559 c 0,10,11
 196.91015625 353 196.91015625 353 218.91796875 261.5 c 128,-1,12
 240.92578125 170 240.92578125 170 315.92578125 170 c 0,0,1
324.723632812 -27 m 0,13,14
 262.723632812 -27 262.723632812 -27 213.7421875 11 c 128,-1,15
 164.760742188 49 164.760742188 49 146.431640625 129 c 1,16,-1
 104 0 l 1,17,-1
 -62 0 l 1,18,-1
 194.741210938 1621 l 1,19,-1
 415.741210938 1621 l 1,20,-1
 412.731445312 1602 l 1,21,22
 399.514648438 1588 399.514648438 1588 393.243164062 1570.5 c 128,-1,23
 386.970703125 1553 386.970703125 1553 380.477539062 1512 c 2,24,-1
 298.1171875 992 l 1,25,26
 344.580078125 1077 344.580078125 1077 408.57421875 1118 c 0,27,28
 469.590820312 1157.09277344 469.590820312 1157.09277344 524.87109375 1157.09277344 c 0,29,30
 527.567382812 1157.09277344 527.567382812 1157.09277344 530.250976562 1157 c 0,31,32
 621.250976562 1157 621.250976562 1157 678.435546875 1104.5 c 128,-1,33
 735.620117188 1052 735.620117188 1052 751.926757812 924.5 c 128,-1,34
 768.232421875 797 768.232421875 797 732.75390625 573 c 0,35,36
 695.375976562 337 695.375976562 337 631.865234375 207.5 c 128,-1,37
 568.353515625 78 568.353515625 78 489.5390625 25.5 c 128,-1,38
 410.723632812 -27 410.723632812 -27 324.723632812 -27 c 0,13,14
EndSplineSet
EndChar

StartChar: c
Encoding: 99 99 261
Width: 768
VWidth: 2430
GlyphClass: 2
Flags: HW
AnchorPoint: "Anchor-2" 331 0 basechar 0
AnchorPoint: "Anchor-0" 510.291 1132 basechar 0
LayerCount: 2
Fore
SplineSet
339.723632812 -27 m 0,0,1
 153.723632812 -27 153.723632812 -27 67.1640625 121 c 128,-1,2
 -19.39453125 269 -19.39453125 269 26.853515625 561 c 0,3,4
 58.3720703125 760 58.3720703125 760 132.358398438 892.5 c 128,-1,5
 206.34375 1025 206.34375 1025 306.797851562 1091 c 128,-1,6
 407.250976562 1157 407.250976562 1157 517.250976562 1157 c 0,7,8
 624.250976562 1157 624.250976562 1157 694.727539062 1109.5 c 128,-1,9
 765.204101562 1062 765.204101562 1062 796.741210938 977 c 1,10,-1
 677.924804688 814 l 1,11,-1
 665.916015625 795 l 1,12,-1
 649.024414062 802 l 1,13,14
 647.033203125 821 647.033203125 821 648.518554688 843 c 128,-1,15
 650.002929688 865 650.002929688 865 631.75390625 895 c 1,16,17
 585.1484375 948 585.1484375 948 501.1484375 948 c 0,18,19
 449.1484375 948 449.1484375 948 397.025390625 912.5 c 128,-1,20
 344.903320312 877 344.903320312 877 301.440429688 792 c 128,-1,21
 257.977539062 707 257.977539062 707 234.853515625 561 c 0,22,23
 201.750976562 352 201.750976562 352 247.997070312 262 c 128,-1,24
 294.2421875 172 294.2421875 172 380.2421875 172 c 0,25,26
 489.2421875 172 489.2421875 172 582.456054688 287 c 1,27,-1
 644.739257812 112 l 1,28,29
 581.65234375 42 581.65234375 42 501.1875 7.5 c 128,-1,30
 420.723632812 -27 420.723632812 -27 339.723632812 -27 c 0,0,1
EndSplineSet
EndChar

StartChar: d
Encoding: 100 100 268
Width: 768
VWidth: 2430
GlyphClass: 2
Flags: HW
AnchorPoint: "Anchor-4" 682.869 1344 basechar 0
AnchorPoint: "Anchor-2" 292 0 basechar 0
AnchorPoint: "Anchor-1" 825.599 1115 basechar 0
AnchorPoint: "Anchor-0" 468.599 1115 basechar 0
LayerCount: 2
Fore
SplineSet
303.55859375 174 m 0,0,1
 446.565429688 174 446.565429688 174 507.486328125 558.639648438 c 0,2,3
 507.91015625 561.310546875 507.91015625 561.310546875 508.329101562 564 c 0,4,5
 541.431640625 773 541.431640625 773 521.135742188 869 c 128,-1,6
 500.840820312 965 500.840820312 965 430.840820312 965 c 0,7,8
 361.840820312 965 361.840820312 965 311.219726562 879 c 128,-1,9
 260.598632812 793 260.598632812 793 227.813476562 586 c 0,10,11
 192.176757812 361 192.176757812 361 218.868164062 267.5 c 128,-1,12
 245.55859375 174 245.55859375 174 303.55859375 174 c 0,0,1
230.19921875 -24 m 0,13,14
 149.19921875 -24 149.19921875 -24 90.513671875 28.5 c 128,-1,15
 31.8291015625 81 31.8291015625 81 11.9189453125 211 c 128,-1,16
 -7.9912109375 341 -7.9912109375 341 27.9619140625 568 c 0,17,18
 62.96484375 789 62.96484375 789 121.9765625 918.5 c 128,-1,19
 180.987304688 1048 180.987304688 1048 256.27734375 1103.5 c 128,-1,20
 331.567382812 1159 331.567382812 1159 422.567382812 1159 c 0,21,22
 489.567382812 1159 489.567382812 1159 531.286132812 1122.5 c 128,-1,23
 573.005859375 1086 573.005859375 1086 581.334960938 1006 c 1,24,-1
 678.741210938 1621 l 1,25,-1
 898.741210938 1621 l 1,26,-1
 895.731445312 1602 l 1,27,28
 879.514648438 1588 879.514648438 1588 873.243164062 1570.5 c 128,-1,29
 866.970703125 1553 866.970703125 1553 860.477539062 1512 c 2,30,-1
 646.81640625 163 l 2,31,32
 640.1640625 121 640.1640625 121 635.908203125 81.5 c 128,-1,33
 631.65234375 42 631.65234375 42 637 0 c 1,34,-1
 443 0 l 1,35,36
 437.384765625 34 437.384765625 34 436.661132812 61 c 128,-1,37
 435.9375 88 435.9375 88 442.431640625 129 c 1,38,39
 400.028320312 57 400.028320312 57 342.61328125 16.5 c 128,-1,40
 285.19921875 -24 285.19921875 -24 230.19921875 -24 c 0,13,14
EndSplineSet
EndChar

StartChar: eth
Encoding: 240 240 269
Width: 768
VWidth: 2430
GlyphClass: 1
Flags: HW
LayerCount: 2
Fore
SplineSet
326.450195312 167 m 0,0,1
 388.450195312 167 388.450195312 167 443.4921875 252.5 c 128,-1,2
 498.534179688 338 498.534179688 338 533.853515625 561 c 0,3,4
 564.263671875 753 564.263671875 753 534.309570312 848 c 128,-1,5
 504.356445312 943 504.356445312 943 444.356445312 943 c 0,6,7
 380.040039062 941 380.040039062 941 318.943359375 852 c 128,-1,8
 257.84765625 763 257.84765625 763 225.853515625 561 c 0,9,10
 194.334960938 362 194.334960938 362 225.892578125 264.5 c 128,-1,11
 257.450195312 167 257.450195312 167 326.450195312 167 c 0,0,1
291.931640625 -32 m 0,12,13
 192.931640625 -32 192.931640625 -32 120.5390625 25.5 c 128,-1,14
 48.1455078125 83 48.1455078125 83 19.4443359375 208 c 128,-1,15
 -9.2578125 333 -9.2578125 333 23.52734375 540 c 0,16,17
 71.9931640625 846 71.9931640625 846 187.538085938 991.5 c 128,-1,18
 303.083007812 1137 303.083007812 1137 433.083007812 1137 c 0,19,20
 539.083007812 1137 539.083007812 1137 580.887695312 1060 c 1,21,22
 573.182617188 1125 573.182617188 1125 554.501953125 1187 c 128,-1,23
 535.822265625 1249 535.822265625 1249 509.583007812 1298 c 1,24,-1
 336.446289062 1234 l 1,25,-1
 301.6796875 1387 l 1,26,-1
 442.073242188 1440 l 1,27,28
 414.04296875 1484 414.04296875 1484 387.561523438 1522 c 128,-1,29
 361.080078125 1560 361.080078125 1560 319.672851562 1589 c 1,30,-1
 521.75 1640 l 1,31,32
 551.682617188 1608 551.682617188 1608 576.16796875 1579.5 c 128,-1,33
 600.654296875 1551 600.654296875 1551 625.685546875 1507 c 1,34,-1
 800.98046875 1572 l 1,35,-1
 831.430664062 1417 l 1,36,-1
 699.877929688 1363 l 1,37,38
 754.862304688 1224 754.862304688 1224 767.328125 1047 c 128,-1,39
 779.794921875 870 779.794921875 870 739.40625 615 c 0,40,41
 683.1796875 260 683.1796875 260 569.555664062 114 c 128,-1,42
 455.931640625 -32 455.931640625 -32 291.931640625 -32 c 0,12,13
EndSplineSet
EndChar

StartChar: dcaron
Encoding: 271 271 270
Width: 727
VWidth: 2430
GlyphClass: 1
Flags: HW
LayerCount: 2
Fore
SplineSet
195.2421875 172 m 0,0,1
 298.2421875 172 298.2421875 172 360.853515625 561 c 0,2,3
 395.064453125 777 395.064453125 777 385.76953125 873 c 128,-1,4
 376.474609375 969 376.474609375 969 330.474609375 969 c 0,5,6
 302.474609375 969 302.474609375 969 275.827148438 936.5 c 128,-1,7
 249.1796875 904 249.1796875 904 224.11328125 821.5 c 128,-1,8
 199.045898438 739 199.045898438 739 175.60546875 591 c 0,9,10
 149.788085938 428 149.788085938 428 147.375976562 337 c 128,-1,11
 144.962890625 246 144.962890625 246 158.102539062 209 c 128,-1,12
 171.2421875 172 171.2421875 172 195.2421875 172 c 0,0,1
128.19921875 -24 m 0,13,14
 68.19921875 -24 68.19921875 -24 27.984375 22 c 128,-1,15
 -12.2294921875 68 -12.2294921875 68 -19.8779296875 196.5 c 128,-1,16
 -27.525390625 325 -27.525390625 325 10.6455078125 566 c 0,17,18
 47.7080078125 800 47.7080078125 800 92.5595703125 928.5 c 128,-1,19
 137.412109375 1057 137.412109375 1057 193.990234375 1108 c 128,-1,20
 250.567382812 1159 250.567382812 1159 317.567382812 1159 c 0,21,22
 375.567382812 1159 375.567382812 1159 402.786132812 1122.5 c 128,-1,23
 430.005859375 1086 430.005859375 1086 430.54296875 1001 c 1,24,-1
 528.265625 1618 l 1,25,-1
 711.265625 1618 l 1,26,-1
 708.256835938 1599 l 1,27,28
 695.0390625 1585 695.0390625 1585 687.846679688 1568 c 128,-1,29
 680.654296875 1551 680.654296875 1551 676.001953125 1509 c 2,30,-1
 461.92578125 170 l 2,31,32
 454.956054688 126 454.956054688 126 450.462890625 85 c 128,-1,33
 445.96875 44 445.96875 44 448 0 c 1,34,-1
 289 0 l 1,35,36
 282.751953125 30 282.751953125 30 282.107421875 57.5 c 128,-1,37
 281.462890625 85 281.462890625 85 288.431640625 129 c 1,38,39
 258.028320312 57 258.028320312 57 211.61328125 16.5 c 128,-1,40
 165.19921875 -24 165.19921875 -24 128.19921875 -24 c 0,13,14
800.057617188 1623 m 0,41,42
 837.057617188 1623 837.057617188 1623 854.014648438 1588 c 128,-1,43
 870.970703125 1553 870.970703125 1553 860.517578125 1487 c 0,44,45
 834.701171875 1324 834.701171875 1324 701.698242188 1103 c 1,46,-1
 625.04296875 1162 l 1,47,48
 661.912109375 1218 661.912109375 1218 687.411132812 1268.5 c 128,-1,49
 712.909179688 1319 712.909179688 1319 719.877929688 1363 c 0,50,51
 724.154296875 1390 724.154296875 1390 716.243164062 1409.5 c 128,-1,52
 708.331054688 1429 708.331054688 1429 702.6328125 1453 c 128,-1,53
 697.924804688 1472.82617188 697.924804688 1472.82617188 703.2265625 1506.30078125 c 0,0,0
 704.342773438 1513.34765625 704.342773438 1513.34765625 705.90234375 1521 c 0,54,55
 712.872070312 1565 712.872070312 1565 739.96484375 1594 c 128,-1,56
 767.057617188 1623 767.057617188 1623 800.057617188 1623 c 0,41,42
EndSplineSet
EndChar

StartChar: e
Encoding: 101 101 274
Width: 768
VWidth: 2430
GlyphClass: 2
Flags: HW
AnchorPoint: "Anchor-3" 413.801 24 basechar 0
AnchorPoint: "Anchor-2" 344 0 basechar 0
AnchorPoint: "Anchor-0" 485.599 1115 basechar 0
LayerCount: 2
Fore
SplineSet
255.96875 688 m 1,0,-1
 546.96875 688 l 1,1,2
 569.30078125 829 569.30078125 829 548.674804688 894.5 c 128,-1,3
 528.048828125 960 528.048828125 960 453.048828125 960 c 0,4,5
 391.048828125 960 391.048828125 960 341.071289062 897 c 128,-1,6
 291.092773438 834 291.092773438 834 255.96875 688 c 1,0,-1
326.19921875 -24 m 0,7,8
 148.19921875 -24 148.19921875 -24 63.134765625 114.5 c 128,-1,9
 -21.9287109375 253 -21.9287109375 253 25.7451171875 554 c 0,10,11
 75.794921875 870 75.794921875 870 199.522460938 1013.5 c 128,-1,12
 323.250976562 1157 323.250976562 1157 492.250976562 1157 c 0,13,14
 646.250976562 1157 646.250976562 1157 715.001953125 1026 c 128,-1,15
 783.75390625 895 783.75390625 895 735.288085938 589 c 0,16,17
 731.487304688 565 731.487304688 565 727.685546875 541 c 128,-1,18
 723.884765625 517 723.884765625 517 718.55859375 496 c 1,19,-1
 223.55859375 496 l 1,20,21
 199.57421875 313 199.57421875 313 242.56640625 243.5 c 128,-1,22
 285.55859375 174 285.55859375 174 366.2421875 172 c 0,23,24
 421.2421875 172 421.2421875 172 468.939453125 198.5 c 128,-1,25
 516.63671875 225 516.63671875 225 558.397460938 274 c 1,26,-1
 643.015625 139 l 1,27,28
 581.13671875 64 581.13671875 64 499.66796875 20 c 128,-1,29
 418.19921875 -24 418.19921875 -24 326.19921875 -24 c 0,7,8
EndSplineSet
EndChar

StartChar: uni029A
Encoding: 666 666 296
Width: 768
VWidth: 2430
GlyphClass: 1
Flags: HW
LayerCount: 2
Fore
SplineSet
296.92578125 170 m 0,0,1
 386.92578125 170 386.92578125 170 442.784179688 257.5 c 128,-1,2
 498.642578125 345 498.642578125 345 532.853515625 561 c 0,3,4
 565.956054688 770 565.956054688 770 543.34375 864 c 128,-1,5
 520.732421875 958 520.732421875 958 435.732421875 958 c 0,6,7
 378.732421875 958 378.732421875 958 344.763671875 914 c 128,-1,8
 310.794921875 870 310.794921875 870 302.2421875 816 c 0,9,10
 292.580078125 755 292.580078125 755 310.616210938 720.5 c 128,-1,11
 328.651367188 686 328.651367188 686 378.651367188 686 c 0,12,13
 394.651367188 686 394.651367188 686 406.651367188 686 c 128,-1,14
 418.651367188 686 418.651367188 686 433.96875 688 c 1,15,-1
 402.450195312 489 l 1,16,17
 376.766601562 491 376.766601562 491 367.163085938 493.5 c 128,-1,18
 357.55859375 496 357.55859375 496 337.55859375 496 c 0,19,20
 214.55859375 496 214.55859375 496 189.534179688 338 c 0,21,22
 178.129882812 266 178.129882812 266 205.52734375 218 c 128,-1,23
 232.92578125 170 232.92578125 170 296.92578125 170 c 0,0,1
259.248046875 -30 m 0,24,25
 102.565429688 -28 102.565429688 -28 33.349609375 68.5 c 128,-1,26
 -35.8662109375 165 -35.8662109375 165 -9.2578125 333 c 0,27,28
 7.2138671875 437 7.2138671875 437 57.8798828125 507.5 c 128,-1,29
 108.545898438 578 108.545898438 578 175.297851562 608 c 1,30,31
 130.950195312 650 130.950195312 650 114.111328125 711 c 128,-1,32
 97.2724609375 772 97.2724609375 772 108.993164062 846 c 0,33,34
 130.533203125 982 130.533203125 982 226.600585938 1064.5 c 128,-1,35
 322.666992188 1147 322.666992188 1147 449.666992188 1147 c 0,36,37
 823.666992188 1147 823.666992188 1147 730.853515625 561 c 0,38,39
 682.705078125 257 682.705078125 257 561.9765625 113.5 c 128,-1,40
 441.248046875 -30 441.248046875 -30 259.248046875 -30 c 0,24,25
EndSplineSet
EndChar

StartChar: f
Encoding: 102 102 300
Width: 787
VWidth: 2430
GlyphClass: 1
Flags: HW
LayerCount: 2
Fore
SplineSet
237.08984375 935 m 1,0,-1
 86.08984375 935 l 1,1,-1
 116.974609375 1130 l 1,2,-1
 267.974609375 1130 l 1,3,-1
 279.219726562 1201 l 2,4,5
 303.135742188 1352 303.135742188 1352 361.999023438 1449 c 128,-1,6
 420.862304688 1546 420.862304688 1546 498.568359375 1591.5 c 128,-1,7
 576.275390625 1637 576.275390625 1637 654.275390625 1637 c 0,8,9
 723.275390625 1637 723.275390625 1637 786.731445312 1602 c 128,-1,10
 850.188476562 1567 850.188476562 1567 879.1015625 1497 c 1,11,-1
 788.17578125 1327 l 1,12,-1
 775.69140625 1305 l 1,13,-1
 760.80078125 1312 l 1,14,15
 756.809570312 1331 756.809570312 1331 754.635742188 1352 c 128,-1,16
 752.461914062 1373 752.461914062 1373 730.212890625 1403 c 0,17,18
 697.82421875 1438.10253906 697.82421875 1438.10253906 645.474609375 1438.10253906 c 0,0,0
 642.64453125 1438.10253906 642.64453125 1438.10253906 639.756835938 1438 c 0,19,20
 581.756835938 1438 581.756835938 1438 537.728515625 1381 c 128,-1,21
 493.701171875 1324 493.701171875 1324 474.536132812 1203 c 2,22,-1
 462.974609375 1130 l 1,23,-1
 671.974609375 1130 l 1,24,-1
 641.08984375 935 l 1,25,-1
 432.08984375 935 l 1,26,-1
 284 0 l 1,27,-1
 89 0 l 1,28,-1
 237.08984375 935 l 1,0,-1
EndSplineSet
EndChar

StartChar: g
Encoding: 103 103 301
Width: 743
VWidth: 2286
GlyphClass: 2
Flags: HW
AnchorPoint: "Anchor-2" 237.997 -221 basechar 0
AnchorPoint: "Anchor-0" 425.549 1121 basechar 0
LayerCount: 2
Fore
SplineSet
102.810546875 43 m 0,0,1
 92.990234375 -19 92.990234375 -19 137.081054688 -50 c 128,-1,2
 181.170898438 -81 181.170898438 -81 258.170898438 -81 c 0,3,4
 336.170898438 -81 336.170898438 -81 383.189453125 -43 c 128,-1,5
 430.208007812 -5 430.208007812 -5 438.760742188 49 c 0,6,7
 448.581054688 111 448.581054688 111 422.381835938 135 c 128,-1,8
 396.18359375 159 396.18359375 159 325.18359375 159 c 0,9,10
 284.18359375 159 284.18359375 159 245.737304688 162.5 c 128,-1,11
 207.291992188 166 207.291992188 166 174.55859375 174 c 1,12,13
 146.124023438 146 146.124023438 146 127.713867188 115 c 128,-1,14
 109.3046875 84 109.3046875 84 102.810546875 43 c 0,0,1
346.990234375 625 m 0,15,16
 445.990234375 625 445.990234375 625 475.608398438 812 c 0,17,18
 504.592773438 995 504.592773438 995 405.750976562 996 c 0,19,20
 308.750976562 996 308.750976562 996 279.608398438 812 c 0,21,22
 249.990234375 625 249.990234375 625 346.990234375 625 c 0,15,16
321.965820312 467 m 0,23,24
 276.965820312 467 276.965820312 467 239.708007812 478 c 1,25,26
 224.33203125 463 224.33203125 463 212.797851562 447 c 128,-1,27
 201.263671875 431 201.263671875 431 198.413085938 413 c 0,28,29
 192.235351562 374 192.235351562 374 236.884765625 356 c 128,-1,30
 281.534179688 338 281.534179688 338 402.534179688 338 c 0,31,32
 536.534179688 338 536.534179688 338 580.208984375 266.5 c 128,-1,33
 623.884765625 195 623.884765625 195 604.245117188 71 c 0,34,35
 590.624023438 -15 590.624023438 -15 543.799804688 -86.5 c 128,-1,36
 496.975585938 -158 496.975585938 -158 416.505859375 -202 c 128,-1,37
 336.037109375 -246 336.037109375 -246 224.037109375 -246 c 0,38,39
 66.037109375 -246 66.037109375 -246 -7.5087890625 -180 c 128,-1,40
 -81.0556640625 -114 -81.0556640625 -114 -60.4658203125 16 c 0,41,42
 -49.37890625 86 -49.37890625 86 -12.9052734375 139.5 c 128,-1,43
 23.568359375 193 23.568359375 193 69.794921875 226 c 1,44,45
 47.595703125 250 47.595703125 250 38.9814453125 284 c 128,-1,46
 30.3662109375 318 30.3662109375 318 37.96875 366 c 0,47,48
 47.7294921875 415 47.7294921875 415 77.77734375 459.5 c 128,-1,49
 107.826171875 504 107.826171875 504 149.002929688 543 c 1,50,51
 79.416015625 634 79.416015625 634 106.608398438 812 c 0,52,53
 132.900390625 978 132.900390625 978 223.129882812 1071 c 128,-1,54
 313.359375 1164 313.359375 1164 432.359375 1164 c 0,55,56
 549.359375 1164 549.359375 1164 606.055664062 1080 c 1,57,58
 651.548828125 1121 651.548828125 1121 698.137695312 1140.5 c 0,59,60
 736.795898438 1156.68066406 736.795898438 1156.68066406 779.432617188 1156.68066406 c 0,61,62
 788.178710938 1156.68066406 788.178710938 1156.68066406 797.092773438 1156 c 1,63,-1
 785.067382812 998 l 1,64,65
 769.9140625 1000.81640625 769.9140625 1000.81640625 754.970703125 1000.81640625 c 0,66,67
 700.947265625 1000.81640625 700.947265625 1000.81640625 649.682617188 964 c 1,68,69
 658.229492188 898 658.229492188 898 645.608398438 812 c 0,70,71
 618.208007812 639 618.208007812 639 527.586914062 553 c 128,-1,72
 436.965820312 467 436.965820312 467 321.965820312 467 c 0,23,24
EndSplineSet
EndChar

StartChar: h
Encoding: 104 104 308
Width: 746
VWidth: 2430
GlyphClass: 2
Flags: HW
AnchorPoint: "Anchor-4" 284.602 1336 basechar 0
AnchorPoint: "Anchor-2" 273 0 basechar 0
AnchorPoint: "Anchor-0" 306.741 1621 basechar 0
LayerCount: 2
Fore
SplineSet
194.741210938 1621 m 1,0,-1
 427.741210938 1621 l 1,1,-1
 424.731445312 1602 l 1,2,3
 408.514648438 1588 408.514648438 1588 401.743164062 1570.5 c 128,-1,4
 394.970703125 1553 394.970703125 1553 388.477539062 1512 c 2,5,-1
 302.94921875 972 l 1,6,7
 356.99609375 1067 356.99609375 1067 426.123046875 1112 c 128,-1,8
 495.250976562 1157 495.250976562 1157 568.250976562 1157 c 0,9,10
 684.250976562 1157 684.250976562 1157 727.358398438 1053.5 c 128,-1,11
 770.46484375 950 770.46484375 950 730.077148438 695 c 2,12,-1
 620 0 l 1,13,-1
 409 0 l 1,14,-1
 518.443359375 691 l 2,15,16
 542.359375 842 542.359375 842 526.80859375 898.5 c 128,-1,17
 511.256835938 955 511.256835938 955 463.256835938 955 c 0,18,19
 398.256835938 955 398.256835938 955 336.745117188 876 c 128,-1,20
 275.232421875 797 275.232421875 797 251 644 c 2,21,-1
 149 0 l 1,22,-1
 -62 0 l 1,23,-1
 194.741210938 1621 l 1,0,-1
EndSplineSet
EndChar

StartChar: i
Encoding: 105 105 313
Width: 649
VWidth: 2430
GlyphClass: 2
Flags: HW
AnchorPoint: "Anchor-3" 390 0 basechar 0
AnchorPoint: "Anchor-2" 231 0 basechar 0
AnchorPoint: "Anchor-0" 467.31 1492 basechar 0
LayerCount: 2
Fore
SplineSet
-62 0 m 1,0,-1
 -30.7978515625 197 l 1,1,-1
 166.202148438 197 l 1,2,-1
 282.772460938 933 l 1,3,-1
 92.7724609375 933 l 1,4,-1
 123.974609375 1130 l 1,5,-1
 522.974609375 1130 l 1,6,-1
 375.202148438 197 l 1,7,-1
 554.202148438 197 l 1,8,-1
 523 0 l 1,9,-1
 -62 0 l 1,0,-1
442.34375 1347 m 0,10,11
 384.34375 1347 384.34375 1347 350.837890625 1388 c 128,-1,12
 317.331054688 1429 317.331054688 1429 326.04296875 1484 c 0,13,14
 335.228515625 1542 335.228515625 1542 381.880859375 1584 c 128,-1,15
 428.533203125 1626 428.533203125 1626 486.533203125 1626 c 0,16,17
 542.533203125 1626 542.533203125 1626 577.459960938 1584.5 c 128,-1,18
 612.38671875 1543 612.38671875 1543 603.04296875 1484 c 0,19,20
 594.172851562 1428 594.172851562 1428 546.258789062 1387.5 c 128,-1,21
 498.34375 1347 498.34375 1347 442.34375 1347 c 0,10,11
EndSplineSet
Substitution2: "'locl' Localized Forms in Latin lookup 18 subtable" i.loclTRK
Substitution2: "'locl' Localized Forms in Latin lookup 17 subtable" i.loclTRK
Substitution2: "'locl' Localized Forms in Latin lookup 16 subtable" i.loclTRK
Substitution2: "'locl' Localized Forms in Latin lookup 15 subtable" i.loclTRK
Substitution2: "'locl' Localized Forms in Latin lookup 14 subtable" i.loclTRK
Substitution2: "Single Substitution lookup 4 subtable" dotlessi
Substitution2: "Single Substitution lookup 3 subtable" dotlessi
AlternateSubs2: "'aalt' Access All Alternates in Latin lookup 1 subtable" dotlessi i.loclTRK
EndChar

StartChar: dotlessi
Encoding: 305 305 314
Width: 649
VWidth: 2430
GlyphClass: 2
Flags: HW
AnchorPoint: "Anchor-3" 390 0 basechar 0
AnchorPoint: "Anchor-2" 231 0 basechar 0
AnchorPoint: "Anchor-0" 409.499 1127 basechar 0
LayerCount: 2
Fore
SplineSet
-62 0 m 1,0,-1
 -30.7978515625 197 l 1,1,-1
 166.202148438 197 l 1,2,-1
 282.772460938 933 l 1,3,-1
 92.7724609375 933 l 1,4,-1
 123.974609375 1130 l 1,5,-1
 522.974609375 1130 l 1,6,-1
 375.202148438 197 l 1,7,-1
 554.202148438 197 l 1,8,-1
 523 0 l 1,9,-1
 -62 0 l 1,0,-1
EndSplineSet
EndChar

StartChar: j
Encoding: 106 106 329
Width: 643
VWidth: 2358
GlyphClass: 2
Flags: HW
AnchorPoint: "Anchor-2" 244.652 -280 basechar 0
AnchorPoint: "Anchor-0" 631.052 1503 basechar 0
LayerCount: 2
Fore
SplineSet
145.037109375 -246 m 0,0,1
 -2.962890625 -246 -2.962890625 -246 -83.0654296875 -133 c 1,2,-1
 31.0185546875 38 l 1,3,-1
 41.7109375 55 l 1,4,-1
 55.7607421875 49 l 1,5,6
 59.068359375 32 59.068359375 32 61.7177734375 14 c 128,-1,7
 64.3662109375 -4 64.3662109375 -4 81.4072265625 -29 c 1,8,9
 118.497070312 -60 118.497070312 -60 174.497070312 -60 c 0,10,11
 234.497070312 -60 234.497070312 -60 270.762695312 -1.5 c 128,-1,12
 307.028320312 57 307.028320312 57 326.826171875 182 c 2,13,-1
 454.958984375 991 l 1,14,-1
 198.958984375 991 l 1,15,-1
 227.78515625 1173 l 1,16,-1
 678.78515625 1173 l 1,17,-1
 524.202148438 197 l 2,18,19
 497.751953125 30 497.751953125 30 439.967773438 -66.5 c 128,-1,20
 382.18359375 -163 382.18359375 -163 305.610351562 -204.5 c 128,-1,21
 229.037109375 -246 229.037109375 -246 145.037109375 -246 c 0,0,1
608.145507812 1371 m 0,22,23
 555.145507812 1371 555.145507812 1371 524.084960938 1408.5 c 128,-1,24
 493.0234375 1446 493.0234375 1446 501.1015625 1497 c 0,25,26
 509.49609375 1550 509.49609375 1550 552.514648438 1588 c 128,-1,27
 595.533203125 1626 595.533203125 1626 648.533203125 1626 c 0,28,29
 699.533203125 1626 699.533203125 1626 731.014648438 1588 c 128,-1,30
 762.49609375 1550 762.49609375 1550 754.1015625 1497 c 0,31,32
 746.0234375 1446 746.0234375 1446 702.584960938 1408.5 c 128,-1,33
 659.145507812 1371 659.145507812 1371 608.145507812 1371 c 0,22,23
EndSplineSet
Substitution2: "Single Substitution lookup 4 subtable" uni0237
Substitution2: "Single Substitution lookup 3 subtable" uni0237
Substitution2: "'aalt' Access All Alternates in Latin lookup 0 subtable" uni0237
EndChar

StartChar: uni0237
Encoding: 567 567 330
Width: 602
VWidth: 2279
GlyphClass: 2
Flags: HW
AnchorPoint: "Anchor-2" 233.811 -279 basechar 0
AnchorPoint: "Anchor-0" 557.657 1128 basechar 0
LayerCount: 2
Fore
SplineSet
137.037109375 -246 m 0,0,1
 -6.962890625 -246 -6.962890625 -246 -83.6982421875 -137 c 1,2,-1
 26.5927734375 29 l 1,3,-1
 37.2861328125 46 l 1,4,-1
 51.3349609375 40 l 1,5,6
 54.642578125 23 54.642578125 23 56.87109375 5.5 c 128,-1,7
 59.099609375 -12 59.099609375 -12 76.2978515625 -36 c 1,8,9
 111.376953125 -65.0322265625 111.376953125 -65.0322265625 162.29296875 -65.0322265625 c 0,10,11
 163.990234375 -65.0322265625 163.990234375 -65.0322265625 165.705078125 -65 c 0,12,13
 223.705078125 -65 223.705078125 -65 259.153320312 -8.5 c 128,-1,14
 294.602539062 48 294.602539062 48 313.766601562 169 c 2,15,-1
 437.940429688 953 l 1,16,-1
 189.940429688 953 l 1,17,-1
 217.974609375 1130 l 1,18,-1
 654.974609375 1130 l 1,19,-1
 504.984375 183 l 2,20,21
 479.326171875 21 479.326171875 21 423.596679688 -72 c 128,-1,22
 367.866210938 -165 367.866210938 -165 293.452148438 -205.5 c 128,-1,23
 219.037109375 -246 219.037109375 -246 137.037109375 -246 c 0,0,1
EndSplineSet
EndChar

StartChar: k
Encoding: 107 107 332
Width: 812
VWidth: 2430
GlyphClass: 2
Flags: HW
AnchorPoint: "Anchor-2" 261 0 basechar 0
AnchorPoint: "Anchor-0" 290.741 1621 basechar 0
LayerCount: 2
Fore
SplineSet
267.340820312 482 m 1,0,-1
 201.403320312 394 l 1,1,-1
 136 0 l 1,2,-1
 -62 0 l 1,3,-1
 194.741210938 1621 l 1,4,-1
 412.741210938 1621 l 1,5,-1
 409.731445312 1602 l 1,6,7
 394.514648438 1588 394.514648438 1588 388.243164062 1570.5 c 128,-1,8
 381.970703125 1553 381.970703125 1553 375.477539062 1512 c 2,9,-1
 242.1171875 670 l 1,10,-1
 595.55859375 1140 l 1,11,12
 620.44921875 1133 620.44921875 1133 653.078125 1127.5 c 128,-1,13
 685.70703125 1122 685.70703125 1122 710.70703125 1122 c 2,14,-1
 786.70703125 1122 l 1,15,-1
 428 644 l 1,16,-1
 642 0 l 1,17,-1
 426.57421875 -9 l 1,18,-1
 267.340820312 482 l 1,0,-1
EndSplineSet
EndChar

StartChar: kgreenlandic
Encoding: 312 312 334
Width: 812
VWidth: 2430
GlyphClass: 2
Flags: HW
AnchorPoint: "Anchor-2" 261 0 basechar 0
AnchorPoint: "Anchor-0" 214.599 1115 basechar 0
LayerCount: 2
Fore
SplineSet
267.340820312 482 m 1,0,-1
 201.403320312 394 l 1,1,-1
 136 0 l 1,2,-1
 -62 0 l 1,3,-1
 116.974609375 1130 l 1,4,-1
 334.974609375 1130 l 1,5,-1
 331.96484375 1111 l 1,6,7
 316.748046875 1097 316.748046875 1097 310.475585938 1079.5 c 128,-1,8
 304.204101562 1062 304.204101562 1062 297.551757812 1020 c 2,9,-1
 242.1171875 670 l 1,10,-1
 595.55859375 1140 l 1,11,12
 620.44921875 1133 620.44921875 1133 653.078125 1127.5 c 128,-1,13
 685.70703125 1122 685.70703125 1122 710.70703125 1122 c 2,14,-1
 786.70703125 1122 l 1,15,-1
 428 644 l 1,16,-1
 642 0 l 1,17,-1
 426.57421875 -9 l 1,18,-1
 267.340820312 482 l 1,0,-1
EndSplineSet
EndChar

StartChar: l
Encoding: 108 108 335
Width: 713
VWidth: 2430
GlyphClass: 2
Flags: HW
AnchorPoint: "Anchor-4" 351.537 559 basechar 0
AnchorPoint: "Anchor-2" 263 0 basechar 0
AnchorPoint: "Anchor-1" 831.599 1115 basechar 0
AnchorPoint: "Anchor-0" 519.741 1621 basechar 0
LayerCount: 2
Fore
SplineSet
-62 0 m 1,0,-1
 -30.4814453125 199 l 1,1,-1
 190.518554688 199 l 1,2,-1
 384.5390625 1424 l 1,3,-1
 172.5390625 1424 l 1,4,-1
 203.741210938 1621 l 1,5,-1
 627.741210938 1621 l 1,6,-1
 402.518554688 199 l 1,7,-1
 618.518554688 199 l 1,8,-1
 587 0 l 1,9,-1
 -62 0 l 1,0,-1
EndSplineSet
EndChar

StartChar: ldot
Encoding: 320 320 339
Width: 831
VWidth: 2430
GlyphClass: 1
Flags: HW
LayerCount: 2
Fore
SplineSet
604.008789062 663 m 128,-1,1
 545.008789062 663 545.008789062 663 509.977539062 707 c 128,-1,2
 474.946289062 751 474.946289062 751 484.608398438 812 c 128,-1,3
 494.26953125 873 494.26953125 873 544.159179688 916.5 c 128,-1,4
 594.048828125 960 594.048828125 960 651.048828125 960 c 0,5,6
 710.048828125 960 710.048828125 960 745.080078125 916 c 128,-1,7
 780.111328125 872 780.111328125 872 770.608398438 812 c 0,8,9
 760.946289062 751 760.946289062 751 711.977539062 707 c 128,-1,0
 663.008789062 663 663.008789062 663 604.008789062 663 c 128,-1,1
-62 0 m 1,10,-1
 -30.4814453125 199 l 1,11,-1
 140.518554688 199 l 1,12,-1
 334.856445312 1426 l 1,13,-1
 172.856445312 1426 l 1,14,-1
 204.533203125 1626 l 1,15,-1
 574.533203125 1626 l 1,16,-1
 348.518554688 199 l 1,17,-1
 580.518554688 199 l 1,18,-1
 549 0 l 1,19,-1
 -62 0 l 1,10,-1
EndSplineSet
EndChar

StartChar: uni01C9
Encoding: 457 457 341
Width: 793
VWidth: 2358
GlyphClass: 1
Flags: HW
LayerCount: 2
Fore
SplineSet
271.037109375 -246 m 0,0,1
 211.037109375 -246 211.037109375 -246 162.734375 -219.5 c 128,-1,2
 114.431640625 -193 114.431640625 -193 86.083984375 -151 c 1,3,-1
 198.334960938 40 l 1,4,5
 210.384765625 34 210.384765625 34 208.721679688 23.5 c 128,-1,6
 207.05859375 13 207.05859375 13 211.68359375 -2 c 128,-1,7
 216.307617188 -17 216.307617188 -17 242.981445312 -38 c 0,8,9
 265.2890625 -55 265.2890625 -55 301.2890625 -55 c 0,10,11
 356.2890625 -55 356.2890625 -55 396.524414062 -3 c 128,-1,12
 436.760742188 49 436.760742188 49 457.826171875 182 c 2,13,-1
 585.958984375 991 l 1,14,-1
 428.958984375 991 l 1,15,-1
 457.78515625 1173 l 1,16,-1
 798.78515625 1173 l 1,17,-1
 643.092773438 190 l 2,18,19
 617.434570312 28 617.434570312 28 562.650390625 -68.5 c 128,-1,20
 507.866210938 -165 507.866210938 -165 432.952148438 -205.5 c 128,-1,21
 358.037109375 -246 358.037109375 -246 271.037109375 -246 c 0,0,1
724.244140625 1359 m 128,-1,23
 673.244140625 1359 673.244140625 1359 642.762695312 1397 c 128,-1,24
 612.28125 1435 612.28125 1435 620.359375 1486 c 0,25,26
 628.75390625 1539 628.75390625 1539 670.272460938 1577 c 128,-1,27
 711.791015625 1615 711.791015625 1615 764.791015625 1615 c 0,28,29
 815.791015625 1615 815.791015625 1615 847.772460938 1577 c 128,-1,30
 879.75390625 1539 879.75390625 1539 871.359375 1486 c 0,31,32
 863.28125 1435 863.28125 1435 819.262695312 1397 c 128,-1,22
 775.244140625 1359 775.244140625 1359 724.244140625 1359 c 128,-1,23
-40.509765625 142 m 1,33,-1
 -8.68359375 324 l 1,34,-1
 70.31640625 324 l 1,35,-1
 247.70703125 1444 l 1,36,-1
 176.70703125 1444 l 1,37,-1
 205.533203125 1626 l 1,38,-1
 455.533203125 1626 l 1,39,-1
 249.31640625 324 l 1,40,-1
 393.31640625 324 l 1,41,-1
 364.490234375 142 l 1,42,-1
 -40.509765625 142 l 1,33,-1
EndSplineSet
EndChar

StartChar: lslash
Encoding: 322 322 343
Width: 689
VWidth: 2430
GlyphClass: 1
Flags: HW
LayerCount: 2
Fore
SplineSet
-62 0 m 1,0,-1
 -30.4814453125 199 l 1,1,-1
 175.518554688 199 l 1,2,-1
 241.40625 615 l 1,3,-1
 118.745117188 554 l 1,4,-1
 158.81640625 807 l 1,5,-1
 281.002929688 865 l 1,6,-1
 369.5390625 1424 l 1,7,-1
 172.5390625 1424 l 1,8,-1
 203.741210938 1621 l 1,9,-1
 613.741210938 1621 l 1,10,-1
 509.366210938 962 l 1,11,-1
 652.819335938 1028 l 1,12,-1
 612.748046875 775 l 1,13,-1
 468.661132812 705 l 1,14,-1
 388.518554688 199 l 1,15,-1
 594.518554688 199 l 1,16,-1
 563 0 l 1,17,-1
 -62 0 l 1,0,-1
EndSplineSet
EndChar

StartChar: m
Encoding: 109 109 344
Width: 768
VWidth: 2430
GlyphClass: 2
Flags: HW
AnchorPoint: "Anchor-2" 293 0 basechar 0
AnchorPoint: "Anchor-0" 627.599 1115 basechar 0
LayerCount: 2
Fore
SplineSet
-62 0 m 1,0,-1
 116.974609375 1130 l 1,1,-1
 272.974609375 1130 l 1,2,-1
 257.453125 1032 l 1,3,4
 288.638671875 1090 288.638671875 1090 325.9453125 1123.5 c 128,-1,5
 363.250976562 1157 363.250976562 1157 401.250976562 1157 c 0,6,7
 489.250976562 1157 489.250976562 1157 493.017578125 1004 c 1,8,9
 526.421875 1076 526.421875 1076 572.8359375 1116.5 c 128,-1,10
 619.250976562 1157 619.250976562 1157 670.250976562 1157 c 0,11,12
 747.250976562 1157 747.250976562 1157 775.342773438 1075.5 c 0,13,14
 800.9375 1001.24414062 800.9375 1001.24414062 780.432617188 871.786132812 c 0,15,16
 778.432617188 859.155273438 778.432617188 859.155273438 775.993164062 846 c 1,17,-1
 642 0 l 1,18,-1
 475 0 l 1,19,-1
 601.708007812 800 l 2,20,21
 619.446289062 912 619.446289062 912 616.252929688 945.5 c 128,-1,22
 613.05859375 979 613.05859375 979 593.05859375 979 c 0,23,24
 561.05859375 979 561.05859375 979 532.080078125 916 c 128,-1,25
 503.1015625 853 503.1015625 853 486.629882812 749 c 2,26,-1
 368 0 l 1,27,-1
 214 0 l 1,28,-1
 338.806640625 788 l 2,29,30
 357.1796875 904 357.1796875 904 353.619140625 941.5 c 128,-1,31
 350.05859375 979 350.05859375 979 326.05859375 979 c 0,32,33
 299.05859375 979 299.05859375 979 271.926757812 924.5 c 128,-1,34
 244.794921875 870 244.794921875 870 227.055664062 758 c 2,35,-1
 107 0 l 1,36,-1
 -62 0 l 1,0,-1
EndSplineSet
EndChar

StartChar: n
Encoding: 110 110 346
Width: 744
VWidth: 2430
GlyphClass: 2
Flags: HW
AnchorPoint: "Anchor-2" 290 0 basechar 0
AnchorPoint: "Anchor-0" 474.599 1115 basechar 0
LayerCount: 2
Fore
SplineSet
-62 0 m 1,0,-1
 116.974609375 1130 l 1,1,-1
 327.974609375 1130 l 1,2,-1
 302.474609375 969 l 1,3,4
 354.9375 1054 354.9375 1054 419.09375 1105.5 c 128,-1,5
 483.250976562 1157 483.250976562 1157 558.250976562 1157 c 0,6,7
 628.250976562 1157 628.250976562 1157 678.232421875 1119 c 128,-1,8
 728.213867188 1081 728.213867188 1081 743.112304688 982.5 c 128,-1,9
 758.01171875 884 758.01171875 884 730.453125 710 c 2,10,-1
 618 0 l 1,11,-1
 409 0 l 1,12,-1
 520.661132812 705 l 2,13,14
 542.993164062 846 542.993164062 846 526.125 900.5 c 128,-1,15
 509.256835938 955 509.256835938 955 460.256835938 955 c 0,16,17
 402.256835938 955 402.256835938 955 339.537109375 881 c 128,-1,18
 276.81640625 807 276.81640625 807 254.80078125 668 c 2,19,-1
 149 0 l 1,20,-1
 -62 0 l 1,0,-1
EndSplineSet
EndChar

StartChar: eng
Encoding: 331 331 352
Width: 667
VWidth: 2281
GlyphClass: 1
Flags: HW
LayerCount: 2
Fore
SplineSet
221.037109375 -246 m 0,0,1
 180.037109375 -246 180.037109375 -246 132.229492188 -229 c 128,-1,2
 84.4228515625 -212 84.4228515625 -212 54.44140625 -174 c 1,3,-1
 144.158203125 1 l 1,4,5
 156.524414062 -3 156.524414062 -3 158.411132812 -19.5 c 128,-1,6
 160.297851562 -36 160.297851562 -36 173.922851562 -51 c 128,-1,7
 187.546875 -66 187.546875 -66 232.546875 -66 c 0,8,9
 296.546875 -66 296.546875 -66 333.791992188 5 c 128,-1,10
 371.037109375 76 371.037109375 76 395.111328125 228 c 2,11,-1
 474.779296875 731 l 2,12,13
 497.26953125 873 497.26953125 873 479.267578125 923.5 c 128,-1,14
 461.266601562 974 461.266601562 974 420.266601562 974 c 0,15,16
 360.266601562 974 360.266601562 974 308.600585938 903.5 c 128,-1,17
 256.934570312 833 256.934570312 833 236.819335938 706 c 2,18,-1
 146.223632812 134 l 1,19,-1
 -40.7763671875 134 l 1,20,-1
 117.44921875 1133 l 1,21,-1
 304.44921875 1133 l 1,22,-1
 281.958984375 991 l 1,23,24
 377.250976562 1157 377.250976562 1157 505.250976562 1157 c 0,25,26
 567.250976562 1157 567.250976562 1157 612.07421875 1118 c 128,-1,27
 656.896484375 1079 656.896484375 1079 669.983398438 988 c 128,-1,28
 683.071289062 897 683.071289062 897 657.095703125 733 c 2,29,-1
 580.913085938 252 l 2,30,31
 537.673828125 -21 537.673828125 -21 442.85546875 -133.5 c 128,-1,32
 348.037109375 -246 348.037109375 -246 221.037109375 -246 c 0,0,1
EndSplineSet
EndChar

StartChar: o
Encoding: 111 111 355
Width: 768
VWidth: 2430
GlyphClass: 2
Flags: HW
AnchorPoint: "Anchor-4" 380.537 559 basechar 0
AnchorPoint: "Anchor-3" 355.177 39 basechar 0
AnchorPoint: "Anchor-2" 292 0 basechar 0
AnchorPoint: "Anchor-1" 632.996 1067 basechar 0
AnchorPoint: "Anchor-0" 468.599 1115 basechar 0
LayerCount: 2
Fore
SplineSet
317.192382812 178 m 0,0,1
 472.192382812 178 472.192382812 178 535.329101562 564 c 0,2,3
 567.322265625 766 567.322265625 766 541.290039062 860.5 c 128,-1,4
 515.256835938 955 515.256835938 955 440.256835938 955 c 0,5,6
 371.256835938 955 371.256835938 955 313.2109375 860 c 128,-1,7
 255.1640625 765 255.1640625 765 223.329101562 564 c 0,8,9
 192.126953125 367 192.126953125 367 218.16015625 272.5 c 128,-1,10
 244.192382812 178 244.192382812 178 317.192382812 178 c 0,0,1
285.673828125 -21 m 128,-1,12
 132.673828125 -21 132.673828125 -21 55.373046875 116 c 128,-1,13
 -21.9287109375 253 -21.9287109375 253 26.537109375 559 c 0,14,15
 76.111328125 872 76.111328125 872 197.680664062 1014.5 c 128,-1,16
 319.250976562 1157 319.250976562 1157 472.250976562 1157 c 128,-1,17
 625.250976562 1157 625.250976562 1157 702.680664062 1014.5 c 128,-1,18
 780.111328125 872 780.111328125 872 730.537109375 559 c 0,19,20
 682.387695312 255 682.387695312 255 560.53125 117 c 128,-1,11
 438.673828125 -21 438.673828125 -21 285.673828125 -21 c 128,-1,12
EndSplineSet
Substitution2: "Single Substitution lookup 29 subtable" ordmasculine
Substitution2: "'aalt' Access All Alternates in Latin lookup 0 subtable" ordmasculine
EndChar

StartChar: oslash
Encoding: 248 248 383
Width: 768
VWidth: 2430
GlyphClass: 2
Flags: HW
AnchorPoint: "Anchor-4" 380.537 559 basechar 0
AnchorPoint: "Anchor-3" 355.177 39 basechar 0
AnchorPoint: "Anchor-2" 292 0 basechar 0
AnchorPoint: "Anchor-1" 632.996 1067 basechar 0
AnchorPoint: "Anchor-0" 468.599 1115 basechar 0
LayerCount: 2
Fore
SplineSet
317.192382812 178 m 0,0,1
 472.192382812 178 472.192382812 178 535.329101562 564 c 0,2,3
 551.80078125 668 551.80078125 668 552.155273438 746 c 1,4,-1
 268.41015625 192 l 1,5,6
 287.192382812 178 287.192382812 178 317.192382812 178 c 0,0,1
223.329101562 564 m 0,7,8
 207.490234375 464 207.490234375 464 206.611328125 389 c 1,9,-1
 491.356445312 943 l 1,10,11
 471.256835938 955 471.256835938 955 440.256835938 955 c 0,12,13
 371.256835938 955 371.256835938 955 313.290039062 860.5 c 128,-1,14
 255.322265625 766 255.322265625 766 223.329101562 564 c 0,7,8
99.4599609375 -136 m 1,15,-1
 -28.0869140625 -70 l 1,16,-1
 62.4716796875 104 l 1,17,18
 21.55859375 174 21.55859375 174 11.53515625 287.5 c 128,-1,19
 1.51171875 401 1.51171875 401 26.537109375 559 c 0,20,21
 76.111328125 872 76.111328125 872 197.680664062 1014.5 c 128,-1,22
 319.250976562 1157 319.250976562 1157 472.250976562 1157 c 0,23,24
 537.250976562 1157 537.250976562 1157 589.291015625 1132 c 1,25,-1
 654.72265625 1261 l 1,26,-1
 781.111328125 1194 l 1,27,-1
 696.819335938 1028 l 1,28,29
 737.415039062 956 737.415039062 956 747.04296875 840 c 128,-1,30
 756.669921875 724 756.669921875 724 730.537109375 559 c 0,31,32
 682.387695312 255 682.387695312 255 561.53125 117 c 128,-1,33
 440.673828125 -21 440.673828125 -21 285.673828125 -21 c 0,34,35
 220.673828125 -21 220.673828125 -21 170.31640625 2 c 1,36,-1
 99.4599609375 -136 l 1,15,-1
EndSplineSet
EndChar

StartChar: oe
Encoding: 339 339 389
Width: 695
VWidth: 2430
GlyphClass: 1
Flags: HW
LayerCount: 2
Fore
SplineSet
148.549804688 155 m 0,0,1
 171.549804688 155 171.549804688 155 189.716796875 175 c 128,-1,2
 207.884765625 195 207.884765625 195 214.061523438 234 c 0,3,4
 215.170898438 241 215.170898438 241 216.071289062 253 c 128,-1,5
 216.971679688 265 216.971679688 265 218.456054688 287 c 0,6,7
 224.810546875 365 224.810546875 365 231.080078125 433 c 128,-1,8
 237.350585938 501 237.350585938 501 249.86328125 580 c 0,9,10
 271.403320312 716 271.403320312 716 290.990234375 786 c 128,-1,11
 310.577148438 856 310.577148438 856 313.111328125 872 c 0,12,13
 319.288085938 911 319.288085938 911 310.827148438 936.5 c 128,-1,14
 302.366210938 962 302.366210938 962 274.366210938 962 c 0,15,16
 239.366210938 962 239.366210938 962 200.6953125 882 c 128,-1,17
 162.024414062 802 162.024414062 802 127.813476562 586 c 0,18,19
 90.1181640625 348 90.1181640625 348 95.833984375 251.5 c 128,-1,20
 101.549804688 155 101.549804688 155 148.549804688 155 c 0,0,1
410.760742188 693 m 1,21,-1
 570.760742188 693 l 1,22,23
 594.993164062 846 594.993164062 846 588.733398438 907.5 c 128,-1,24
 582.474609375 969 582.474609375 969 537.474609375 969 c 0,25,26
 494.474609375 969 494.474609375 969 463.387695312 899 c 128,-1,27
 432.30078125 829 432.30078125 829 410.760742188 693 c 1,21,-1
405.248046875 -30 m 0,28,29
 306.248046875 -30 306.248046875 -30 260.39453125 53 c 1,30,31
 191.416992188 -27.01171875 191.416992188 -27.01171875 108.766601562 -27.01171875 c 0,0,0
 107.74609375 -27.01171875 107.74609375 -27.01171875 106.723632812 -27 c 0,32,33
 53.7236328125 -27 53.7236328125 -27 10.009765625 19 c 128,-1,34
 -33.705078125 65 -33.705078125 65 -46.6689453125 191.5 c 128,-1,35
 -59.6337890625 318 -59.6337890625 318 -21.462890625 559 c 0,36,37
 13.5400390625 780 13.5400390625 780 63.7333984375 907.5 c 128,-1,38
 113.927734375 1035 113.927734375 1035 175.138671875 1090 c 128,-1,39
 236.350585938 1145 236.350585938 1145 303.350585938 1145 c 0,40,41
 386.350585938 1145 386.350585938 1145 421.095703125 1055 c 1,42,43
 484.350585938 1145 484.350585938 1145 571.350585938 1145 c 0,44,45
 666.350585938 1145 666.350585938 1145 703.82421875 1037.5 c 128,-1,46
 741.297851562 930 741.297851562 930 702.96875 688 c 2,47,-1
 676.360351562 520 l 1,48,-1
 379.360351562 520 l 1,49,50
 356.810546875 365 356.810546875 365 358.060546875 284.5 c 128,-1,51
 359.310546875 204 359.310546875 204 380.875976562 176 c 128,-1,52
 402.440429688 148 402.440429688 148 439.440429688 148 c 0,53,54
 514.440429688 148 514.440429688 148 571.6953125 238 c 1,55,-1
 606.729492188 93 l 1,56,57
 512.248046875 -30 512.248046875 -30 405.248046875 -30 c 0,28,29
EndSplineSet
EndChar

StartChar: p
Encoding: 112 112 390
Width: 723
VWidth: 2298
GlyphClass: 2
Flags: HW
AnchorPoint: "Anchor-2" 297.689 118 basechar 0
AnchorPoint: "Anchor-0" 457.975 1130 basechar 0
LayerCount: 2
Fore
SplineSet
310.129882812 266 m 0,0,1
 352.129882812 266 352.129882812 266 387.985351562 293.5 c 128,-1,2
 423.841796875 321 423.841796875 321 454.616210938 398.5 c 128,-1,3
 485.390625 476 485.390625 476 508.83203125 624 c 0,4,5
 540.508789062 824 540.508789062 824 518.862304688 902 c 128,-1,6
 497.216796875 980 497.216796875 980 430.533203125 982 c 0,7,8
 363.533203125 982 363.533203125 982 308.06640625 887.5 c 128,-1,9
 252.598632812 793 252.598632812 793 220.921875 593 c 0,10,11
 193.62109375 408 193.62109375 408 220.375976562 337 c 128,-1,12
 247.129882812 266 247.129882812 266 310.129882812 266 c 0,0,1
-100.962890625 -246 m 1,13,-1
 117.766601562 1135 l 1,14,-1
 306.766601562 1135 l 1,15,-1
 284.909179688 997 l 1,16,17
 328.104492188 1074 328.104492188 1074 382.677734375 1115.5 c 128,-1,18
 437.250976562 1157 437.250976562 1157 503.250976562 1157 c 0,19,20
 580.250976562 1157 580.250976562 1157 634.96484375 1111 c 128,-1,21
 689.6796875 1065 689.6796875 1065 709.385742188 949.5 c 128,-1,22
 729.092773438 834 729.092773438 834 695.83203125 624 c 0,23,24
 664.471679688 426 664.471679688 426 610.01953125 309.5 c 128,-1,25
 555.568359375 193 555.568359375 193 484.569335938 142.5 c 128,-1,26
 413.571289062 92 413.571289062 92 332.571289062 92 c 0,27,28
 199.571289062 92 199.571289062 92 164.319335938 223 c 1,29,-1
 90.037109375 -246 l 1,30,-1
 -100.962890625 -246 l 1,13,-1
EndSplineSet
EndChar

StartChar: thorn
Encoding: 254 254 391
Width: 741
VWidth: 2365
GlyphClass: 1
Flags: HW
LayerCount: 2
Fore
SplineSet
321.34765625 280 m 0,0,1
 364.34765625 280 364.34765625 280 400.703125 307.5 c 128,-1,2
 437.05859375 335 437.05859375 335 468.729492188 415 c 128,-1,3
 500.400390625 495 500.400390625 495 524.474609375 647 c 0,4,5
 556.943359375 852 556.943359375 852 534.614257812 932 c 128,-1,6
 512.28515625 1012 512.28515625 1012 443.6015625 1014 c 0,7,8
 374.6015625 1014 374.6015625 1014 317.73828125 917 c 128,-1,9
 260.875 820 260.875 820 228.40625 615 c 0,10,11
 200.313476562 425 200.313476562 425 228.830078125 352.5 c 128,-1,12
 257.34765625 280 257.34765625 280 321.34765625 280 c 0,0,1
194.741210938 1621 m 1,13,-1
 407.741210938 1621 l 1,14,-1
 404.890625 1603 l 1,15,16
 389.831054688 1590 389.831054688 1590 383.875976562 1574.5 c 128,-1,17
 377.920898438 1559 377.920898438 1559 371.744140625 1520 c 2,18,-1
 294.135742188 1030 l 1,19,20
 338.6484375 1109 338.6484375 1109 395.30078125 1151 c 128,-1,21
 451.953125 1193 451.953125 1193 518.953125 1193 c 0,22,23
 597.953125 1193 597.953125 1193 654.008789062 1146 c 128,-1,24
 710.064453125 1099 710.064453125 1099 730.795898438 980.5 c 128,-1,25
 751.52734375 862 751.52734375 862 717.474609375 647 c 0,26,27
 685.322265625 444 685.322265625 444 628.81640625 324 c 128,-1,28
 572.310546875 204 572.310546875 204 499.57421875 152 c 128,-1,29
 426.838867188 100 426.838867188 100 343.838867188 100 c 0,30,31
 206.838867188 100 206.838867188 100 171.220703125 235 c 1,32,-1
 95.037109375 -246 l 1,33,-1
 -100.962890625 -246 l 1,34,-1
 194.741210938 1621 l 1,13,-1
EndSplineSet
EndChar

StartChar: q
Encoding: 113 113 392
Width: 722
VWidth: 2299
GlyphClass: 1
Flags: HW
LayerCount: 2
Fore
SplineSet
313.921875 271 m 0,0,1
 374.921875 271 374.921875 271 425.250976562 352 c 128,-1,2
 475.580078125 433 475.580078125 433 508.840820312 643 c 0,3,4
 539.884765625 839 539.884765625 839 514.60546875 913 c 128,-1,5
 489.325195312 987 489.325195312 987 427.325195312 987 c 0,6,7
 362.325195312 987 362.325195312 987 311.208984375 910.5 c 128,-1,8
 260.092773438 834 260.092773438 834 227.624023438 629 c 0,9,10
 196.263671875 431 196.263671875 431 221.592773438 351 c 128,-1,11
 246.921875 271 246.921875 271 313.921875 271 c 0,0,1
368.037109375 -246 m 1,12,-1
 442.953125 227 l 1,13,14
 402.07421875 152 402.07421875 152 354.481445312 123 c 128,-1,15
 311.349609375 96.71875 311.349609375 96.71875 258.418945312 96.71875 c 0,0,0
 252.943359375 96.71875 252.943359375 96.71875 247.36328125 97 c 0,16,17
 99.36328125 97 99.36328125 97 47.7451171875 232 c 128,-1,18
 -3.873046875 367 -3.873046875 367 36.5146484375 622 c 0,19,20
 67.875 820 67.875 820 124.143554688 938.5 c 128,-1,21
 180.412109375 1057 180.412109375 1057 255.990234375 1108 c 128,-1,22
 331.567382812 1159 331.567382812 1159 419.567382812 1159 c 0,23,24
 486.567382812 1159 486.567382812 1159 523.20703125 1122 c 128,-1,25
 559.846679688 1085 559.846679688 1085 571.759765625 1015 c 1,26,-1
 590.44921875 1133 l 1,27,-1
 775.44921875 1133 l 1,28,-1
 557.037109375 -246 l 1,29,-1
 368.037109375 -246 l 1,12,-1
EndSplineSet
EndChar

StartChar: r
Encoding: 114 114 393
Width: 750
VWidth: 2430
GlyphClass: 2
Flags: HW
AnchorPoint: "Anchor-2" 286 0 basechar 0
AnchorPoint: "Anchor-0" 478.074 1118 basechar 0
LayerCount: 2
Fore
SplineSet
116.974609375 1130 m 1,0,-1
 333.974609375 1130 l 1,1,-1
 306.158203125 967 l 1,2,3
 354.887695312 1060 354.887695312 1060 430.227539062 1109.5 c 0,4,5
 502.641601562 1157.078125 502.641601562 1157.078125 572.6015625 1157.078125 c 0,6,7
 575.427734375 1157.078125 575.427734375 1157.078125 578.250976562 1157 c 0,8,9
 656.250976562 1157 656.250976562 1157 705.127929688 1121.5 c 128,-1,10
 754.005859375 1086 754.005859375 1086 785.551757812 1020 c 1,11,-1
 668.884765625 839 l 1,12,-1
 658.2421875 816 l 1,13,-1
 640.350585938 823 l 1,14,15
 636.359375 842 636.359375 842 633.502929688 865 c 128,-1,16
 630.645507812 888 630.645507812 888 609.080078125 916 c 1,17,18
 565.940429688 953 565.940429688 953 516.940429688 953 c 0,19,20
 463.940429688 953 463.940429688 953 410.609375 922.5 c 128,-1,21
 357.279296875 892 357.279296875 892 313.662109375 815.5 c 128,-1,22
 270.045898438 739 270.045898438 739 247.713867188 598 c 2,23,-1
 152.68359375 -2 l 1,24,-1
 -62.31640625 -2 l 1,25,-1
 116.974609375 1130 l 1,0,-1
EndSplineSet
EndChar

StartChar: uni027B
Encoding: 635 635 399
Width: 713
VWidth: 2276
GlyphClass: 1
Flags: HW
LayerCount: 2
Fore
SplineSet
439.037109375 -246 m 0,0,1
 334.037109375 -246 334.037109375 -246 286.416015625 -171 c 128,-1,2
 238.794921875 -96 238.794921875 -96 265.9375 88 c 1,3,-1
 293.4375 249 l 1,4,5
 256.508789062 180 256.508789062 180 202.38671875 144.5 c 128,-1,6
 148.263671875 109 148.263671875 109 97.263671875 109 c 0,7,8
 49.263671875 109 49.263671875 109 8.8525390625 128.5 c 128,-1,9
 -31.5595703125 148 -31.5595703125 148 -63.005859375 202 c 1,10,-1
 22.7109375 377 l 1,11,-1
 30.1953125 399 l 1,12,-1
 41.5615234375 395 l 1,13,14
 45.1865234375 380 45.1865234375 380 45.4931640625 363 c 128,-1,15
 45.80078125 346 45.80078125 346 60.6337890625 326 c 0,16,17
 92.4560546875 287 92.4560546875 287 138.456054688 287 c 0,18,19
 199.456054688 287 199.456054688 287 260.255859375 361.5 c 128,-1,20
 321.055664062 436 321.055664062 436 347.030273438 600 c 2,21,-1
 431.291015625 1132 l 1,22,-1
 615.291015625 1132 l 1,23,-1
 447.9375 88 l 2,24,25
 434.633789062 4 434.633789062 4 443.481445312 -38 c 128,-1,26
 452.329101562 -80 452.329101562 -80 488.329101562 -80 c 0,27,28
 500.329101562 -80 500.329101562 -80 512.883789062 -76.5 c 128,-1,29
 525.4375 -73 525.4375 -73 536.86328125 -64 c 0,30,31
 548.130859375 -56 548.130859375 -56 554.03125 -44 c 128,-1,32
 559.931640625 -32 559.931640625 -32 570.565429688 -28 c 1,33,-1
 578.431640625 -193 l 1,34,35
 517.037109375 -246 517.037109375 -246 439.037109375 -246 c 0,0,1
EndSplineSet
EndChar

StartChar: uni024D
Encoding: 589 589 402
Width: 768
VWidth: 2430
GlyphClass: 2
Flags: HW
AnchorPoint: "Anchor-2" 328 0 basechar 0
AnchorPoint: "Anchor-0" 519.074 1118 basechar 0
LayerCount: 2
Fore
SplineSet
0.720703125 396 m 1,0,-1
 32.3974609375 596 l 1,1,-1
 99.3974609375 596 l 1,2,-1
 183.974609375 1130 l 1,3,-1
 385.974609375 1130 l 1,4,-1
 358.158203125 967 l 1,5,6
 404.887695312 1060 404.887695312 1060 475.227539062 1109.5 c 0,7,8
 542.8359375 1157.078125 542.8359375 1157.078125 607.06640625 1157.078125 c 0,9,10
 609.661132812 1157.078125 609.661132812 1157.078125 612.250976562 1157 c 0,11,12
 685.250976562 1157 685.250976562 1157 730.127929688 1121.5 c 128,-1,13
 775.005859375 1086 775.005859375 1086 803.551757812 1020 c 1,14,-1
 692.884765625 839 l 1,15,-1
 683.2421875 816 l 1,16,-1
 666.350585938 823 l 1,17,18
 662.359375 842 662.359375 842 660.502929688 865 c 128,-1,19
 658.645507812 888 658.645507812 888 638.080078125 916 c 1,20,21
 598.940429688 953 598.940429688 953 553.940429688 953 c 0,22,23
 503.940429688 953 503.940429688 953 454.109375 922.5 c 128,-1,24
 404.279296875 892 404.279296875 892 363.162109375 815.5 c 128,-1,25
 322.045898438 739 322.045898438 739 299.713867188 598 c 2,26,-1
 299.397460938 596 l 1,27,-1
 497.397460938 596 l 1,28,-1
 465.720703125 396 l 1,29,-1
 267.720703125 396 l 1,30,-1
 204.68359375 -2 l 1,31,-1
 4.68359375 -2 l 1,32,-1
 67.720703125 396 l 1,33,-1
 0.720703125 396 l 1,0,-1
EndSplineSet
EndChar

StartChar: s
Encoding: 115 115 403
Width: 745
VWidth: 2430
GlyphClass: 1
Flags: HW
LayerCount: 2
Fore
SplineSet
279.19921875 -24 m 0,0,1
 167.19921875 -24 167.19921875 -24 85.42578125 9 c 128,-1,2
 3.65234375 42 3.65234375 42 -46.1611328125 100 c 1,3,-1
 66.4560546875 287 l 1,4,-1
 76.9404296875 309 l 1,5,-1
 93.673828125 301 l 1,6,7
 99.6640625 282 99.6640625 282 105.313476562 264 c 128,-1,8
 110.962890625 246 110.962890625 246 137.319335938 223 c 0,9,10
 169.568359375 193 169.568359375 193 209.350585938 179 c 128,-1,11
 249.133789062 165 249.133789062 165 302.133789062 165 c 0,12,13
 370.133789062 165 370.133789062 165 414.865234375 207.5 c 128,-1,14
 459.595703125 250 459.595703125 250 469.57421875 313 c 0,15,16
 477.96875 366 477.96875 366 448.12109375 408 c 128,-1,17
 418.2734375 450 418.2734375 450 333.2421875 494 c 0,18,19
 222.63671875 547 222.63671875 547 155.411132812 624.5 c 128,-1,20
 88.185546875 702 88.185546875 702 110.676757812 844 c 0,21,22
 131.108398438 973 131.108398438 973 230.1796875 1065 c 128,-1,23
 329.250976562 1157 329.250976562 1157 478.250976562 1157 c 0,24,25
 694.250976562 1157 694.250976562 1157 778.017578125 1004 c 1,26,-1
 655.993164062 846 l 1,27,-1
 640.825195312 826 l 1,28,-1
 626.567382812 837 l 1,29,30
 624.577148438 856 624.577148438 856 621.166015625 875.5 c 128,-1,31
 617.75390625 895 617.75390625 895 595.188476562 923 c 1,32,33
 568.514648438 944 568.514648438 944 534.3359375 955.5 c 128,-1,34
 500.158203125 967 500.158203125 967 464.158203125 967 c 0,35,36
 403.158203125 967 403.158203125 967 360.010742188 934.5 c 128,-1,37
 316.862304688 902 316.862304688 902 308.309570312 848 c 0,38,39
 299.124023438 790 299.124023438 790 335.946289062 751 c 128,-1,40
 372.76953125 712 372.76953125 712 467.484375 666 c 0,41,42
 593.822265625 605 593.822265625 605 642.760742188 532 c 128,-1,43
 691.698242188 459 691.698242188 459 670.474609375 325 c 0,44,45
 644.024414062 158 644.024414062 158 538.111328125 67 c 128,-1,46
 432.19921875 -24 432.19921875 -24 279.19921875 -24 c 0,0,1
EndSplineSet
EndChar

StartChar: germandbls
Encoding: 223 223 414
Width: 768
VWidth: 2430
GlyphClass: 1
Flags: HW
LayerCount: 2
Fore
SplineSet
348.723632812 -27 m 0,0,1
 297.723632812 -27 297.723632812 -27 262.361328125 -13.5 c 128,-1,2
 227 0 227 0 195.276367188 27 c 1,3,-1
 278.2109375 216 l 1,4,5
 308.2421875 172 308.2421875 172 358.2421875 172 c 0,6,7
 413.2421875 172 413.2421875 172 456.284179688 257.5 c 128,-1,8
 499.326171875 343 499.326171875 343 519.598632812 471 c 0,9,10
 539.555664062 597 539.555664062 597 515.147460938 676.5 c 128,-1,11
 490.73828125 756 490.73828125 756 388.73828125 756 c 2,12,-1
 335.73828125 756 l 1,13,-1
 366.940429688 953 l 1,14,-1
 426.940429688 953 l 2,15,16
 477.940429688 953 477.940429688 953 516.522460938 1013.5 c 128,-1,17
 555.104492188 1074 555.104492188 1074 573.161132812 1188 c 128,-1,18
 591.216796875 1302 591.216796875 1302 570.774414062 1365.5 c 128,-1,19
 550.331054688 1429 550.331054688 1429 491.331054688 1429 c 0,20,21
 429.331054688 1429 429.331054688 1429 380.73046875 1330.5 c 128,-1,22
 332.129882812 1232 332.129882812 1232 302.987304688 1048 c 2,23,-1
 137 0 l 1,24,-1
 -62 0 l 1,25,-1
 101.927734375 1035 l 2,26,27
 136.456054688 1253 136.456054688 1253 196.625 1383.5 c 128,-1,28
 256.793945312 1514 256.793945312 1514 336.322265625 1571 c 128,-1,29
 415.849609375 1628 415.849609375 1628 510.849609375 1628 c 0,30,31
 651.849609375 1628 651.849609375 1628 725.793945312 1514 c 128,-1,32
 799.73828125 1400 799.73828125 1400 768.219726562 1201 c 0,33,34
 752.064453125 1099 752.064453125 1099 709.864257812 1012.5 c 128,-1,35
 667.6640625 926 667.6640625 926 597.903320312 877 c 1,36,37
 675.7265625 838 675.7265625 838 708.674804688 733.5 c 128,-1,38
 741.624023438 629 741.624023438 629 712.1640625 443 c 0,39,40
 673.676757812 200 673.676757812 200 575.200195312 86.5 c 128,-1,41
 476.723632812 -27 476.723632812 -27 348.723632812 -27 c 0,0,1
EndSplineSet
EndChar

StartChar: t
Encoding: 116 116 415
Width: 753
VWidth: 2430
GlyphClass: 2
Flags: HW
AnchorPoint: "Anchor-4" 318.155 746 basechar 0
AnchorPoint: "Anchor-2" 319 0 basechar 0
AnchorPoint: "Anchor-1" 541.499 1127 basechar 0
AnchorPoint: "Anchor-0" 472.539 1424 basechar 0
LayerCount: 2
Fore
SplineSet
358.723632812 -27 m 0,0,1
 256.723632812 -27 256.723632812 -27 203.276367188 27 c 128,-1,2
 149.829101562 81 149.829101562 81 143.631835938 215.5 c 0,3,4
 138.692382812 322.709960938 138.692382812 322.709960938 166.892578125 500.763671875 c 0,5,6
 174.071289062 546.086914062 174.071289062 546.086914062 183.397460938 596 c 2,7,-1
 239.1796875 904 l 1,8,-1
 81.1796875 904 l 1,9,-1
 114.698242188 1103 l 1,10,-1
 277.698242188 1103 l 1,11,-1
 330.946289062 1395 l 1,12,-1
 559.5390625 1424 l 1,13,-1
 581.856445312 1426 l 1,14,-1
 580.846679688 1407 l 1,15,16
 566.154296875 1390 566.154296875 1390 556.303710938 1372 c 128,-1,17
 546.452148438 1354 546.452148438 1354 538.275390625 1315 c 2,18,-1
 491.698242188 1103 l 1,19,-1
 734.698242188 1103 l 1,20,-1
 700.1796875 904 l 1,21,-1
 460.1796875 904 l 1,22,-1
 398.60546875 591 l 2,23,24
 389.760742188 543.75 389.760742188 543.75 383.19921875 502.322265625 c 0,25,26
 356.015625 330.694335938 356.015625 330.694335938 368.021484375 259 c 0,27,28
 382.92578125 170 382.92578125 170 445.92578125 170 c 0,29,30
 498.92578125 170 498.92578125 170 545.463867188 195.5 c 128,-1,31
 592.002929688 221 592.002929688 221 629.071289062 253 c 1,32,-1
 638.403320312 72 l 1,33,34
 574.009765625 19 574.009765625 19 501.366210938 -4 c 128,-1,35
 428.723632812 -27 428.723632812 -27 358.723632812 -27 c 0,0,1
EndSplineSet
EndChar

StartChar: tbar
Encoding: 359 359 416
Width: 758
VWidth: 2430
GlyphClass: 2
Flags: HW
AnchorPoint: "Anchor-4" 323.155 746 basechar 0
AnchorPoint: "Anchor-2" 324 0 basechar 0
AnchorPoint: "Anchor-1" 546.499 1127 basechar 0
AnchorPoint: "Anchor-0" 476.539 1424 basechar 0
LayerCount: 2
Fore
SplineSet
18.458984375 508 m 1,0,-1
 51.5615234375 717 l 1,1,-1
 209.561523438 717 l 1,2,-1
 244.1796875 904 l 1,3,-1
 86.1796875 904 l 1,4,-1
 119.698242188 1103 l 1,5,-1
 282.698242188 1103 l 1,6,-1
 335.946289062 1395 l 1,7,-1
 564.5390625 1424 l 1,8,-1
 585.856445312 1426 l 1,9,-1
 585.846679688 1407 l 1,10,11
 571.154296875 1390 571.154296875 1390 561.303710938 1372 c 128,-1,12
 551.452148438 1354 551.452148438 1354 542.275390625 1315 c 2,13,-1
 495.698242188 1103 l 1,14,-1
 739.698242188 1103 l 1,15,-1
 705.1796875 904 l 1,16,-1
 464.1796875 904 l 1,17,-1
 427.561523438 717 l 1,18,-1
 663.561523438 717 l 1,19,-1
 630.458984375 508 l 1,20,-1
 387.458984375 508 l 1,21,22
 357.049804688 316 357.049804688 316 375.987304688 243 c 128,-1,23
 394.92578125 170 394.92578125 170 449.92578125 170 c 0,24,25
 502.92578125 170 502.92578125 170 549.963867188 195.5 c 128,-1,26
 597.002929688 221 597.002929688 221 634.071289062 253 c 1,27,-1
 643.403320312 72 l 1,28,29
 579.009765625 19 579.009765625 19 506.866210938 -4 c 128,-1,30
 434.723632812 -27 434.723632812 -27 363.723632812 -27 c 0,31,32
 268.723632812 -27 268.723632812 -27 214.009765625 19 c 128,-1,33
 159.294921875 65 159.294921875 65 148.826171875 182 c 128,-1,34
 138.357421875 299 138.357421875 299 171.458984375 508 c 1,35,-1
 18.458984375 508 l 1,0,-1
EndSplineSet
EndChar

StartChar: u
Encoding: 117 117 423
Width: 749
VWidth: 2430
GlyphClass: 2
Flags: HW
AnchorPoint: "Anchor-3" 456 0 basechar 0
AnchorPoint: "Anchor-2" 232 0 basechar 0
AnchorPoint: "Anchor-1" 763.599 1115 basechar 0
AnchorPoint: "Anchor-0" 446.599 1115 basechar 0
LayerCount: 2
Fore
SplineSet
203.723632812 -27 m 0,0,1
 118.723632812 -27 118.723632812 -27 64.6923828125 17 c 128,-1,2
 10.6611328125 61 10.6611328125 61 -4.3369140625 171.5 c 0,3,4
 -18.4658203125 275.59375 -18.4658203125 275.59375 10.6005859375 459.112304688 c 0,5,6
 12.388671875 470.40625 12.388671875 470.40625 14.3408203125 482 c 2,7,-1
 119.974609375 1130 l 1,8,-1
 327.974609375 1130 l 1,9,-1
 222.490234375 464 l 2,10,11
 203.326171875 343 203.326171875 343 206.426757812 280.5 c 128,-1,12
 209.52734375 218 209.52734375 218 230.384765625 195 c 128,-1,13
 251.2421875 172 251.2421875 172 286.2421875 172 c 0,14,15
 349.2421875 172 349.2421875 172 398.333984375 251.5 c 128,-1,16
 447.424804688 331 447.424804688 331 471.658203125 484 c 2,17,-1
 573.974609375 1130 l 1,18,-1
 784.974609375 1130 l 1,19,-1
 633.55859375 174 l 2,20,21
 626.2734375 128 626.2734375 128 622.12109375 86 c 128,-1,22
 617.96875 44 617.96875 44 623 0 c 1,23,-1
 428 0 l 1,24,25
 417.869140625 56 417.869140625 56 429.431640625 129 c 1,26,27
 388.028320312 57 388.028320312 57 329.875976562 15 c 128,-1,28
 271.723632812 -27 271.723632812 -27 203.723632812 -27 c 0,0,1
EndSplineSet
EndChar

StartChar: v
Encoding: 118 118 446
Width: 768
VWidth: 2430
GlyphClass: 2
Flags: HW
AnchorPoint: "Anchor-2" 294 0 basechar 0
AnchorPoint: "Anchor-0" 472.499 1127 basechar 0
LayerCount: 2
Fore
SplineSet
204 0 m 1,0,-1
 116.974609375 1130 l 1,1,-1
 316.974609375 1130 l 1,2,-1
 363.008789062 341 l 1,3,-1
 492.484375 666 l 2,4,5
 543.916015625 795 543.916015625 795 581.184570312 913.5 c 128,-1,6
 618.453125 1032 618.453125 1032 638.974609375 1130 c 1,7,-1
 820.974609375 1130 l 1,8,9
 795.501953125 1026 795.501953125 1026 751.387695312 899 c 128,-1,10
 707.272460938 772 707.272460938 772 652.366210938 640 c 2,11,-1
 383 0 l 1,12,-1
 204 0 l 1,0,-1
EndSplineSet
EndChar

StartChar: w
Encoding: 119 119 447
Width: 721
VWidth: 2430
GlyphClass: 2
Flags: HW
AnchorPoint: "Anchor-2" 260 0 basechar 0
AnchorPoint: "Anchor-0" 436.599 1115 basechar 0
LayerCount: 2
Fore
SplineSet
25.68359375 -2 m 1,0,-1
 84.974609375 1130 l 1,1,-1
 240.974609375 1130 l 1,2,-1
 189.126953125 367 l 1,3,-1
 366.1484375 948 l 1,4,-1
 472.1484375 948 l 1,5,-1
 479.444335938 369 l 1,6,7
 548.900390625 656 548.900390625 656 581.221679688 828.5 c 128,-1,8
 613.54296875 1001 613.54296875 1001 626.530273438 1083 c 2,9,-1
 633.974609375 1130 l 1,10,-1
 788.974609375 1130 l 1,11,12
 729.260742188 854 729.260742188 854 657.432617188 561.5 c 128,-1,13
 585.60546875 269 585.60546875 269 510.68359375 -2 c 1,14,-1
 348.68359375 -2 l 1,15,-1
 353.953125 549 l 1,16,-1
 188.68359375 -2 l 1,17,-1
 25.68359375 -2 l 1,0,-1
EndSplineSet
EndChar

StartChar: x
Encoding: 120 120 452
Width: 768
VWidth: 2430
GlyphClass: 2
Flags: HW
AnchorPoint: "Anchor-2" 287 0 basechar 0
AnchorPoint: "Anchor-0" 465.499 1127 basechar 0
LayerCount: 2
Fore
SplineSet
-62 0 m 1,0,-1
 275.4375 571 l 1,1,-1
 120.974609375 1130 l 1,2,-1
 316.974609375 1130 l 1,3,-1
 409.806640625 788 l 1,4,-1
 602.974609375 1130 l 1,5,-1
 788.974609375 1130 l 1,6,-1
 474.545898438 578 l 1,7,-1
 642 0 l 1,8,-1
 442 0 l 1,9,-1
 342.018554688 360 l 1,10,-1
 138 0 l 1,11,-1
 -62 0 l 1,0,-1
EndSplineSet
EndChar

StartChar: y
Encoding: 121 121 453
Width: 758
VWidth: 2279
GlyphClass: 2
Flags: HW
AnchorPoint: "Anchor-2" 511.59 130 basechar 0
AnchorPoint: "Anchor-0" 476.657 1128 basechar 0
LayerCount: 2
Fore
SplineSet
64.037109375 -246 m 0,0,1
 -34.962890625 -246 -34.962890625 -246 -90.4501953125 -167 c 1,2,-1
 -4.9501953125 -6 l 1,3,-1
 5.05859375 13 l 1,4,-1
 18.1083984375 7 l 1,5,6
 21.7333984375 -8 21.7333984375 -8 27.0400390625 -25 c 128,-1,7
 32.34765625 -42 32.34765625 -42 56.3388671875 -61 c 0,8,9
 72.0712890625 -69 72.0712890625 -69 94.9130859375 -70 c 0,10,11
 139.913085938 -70 139.913085938 -70 172.782226562 -14 c 128,-1,12
 205.65234375 42 205.65234375 42 247.916015625 151 c 2,13,-1
 254.450195312 167 l 1,14,-1
 135.974609375 1130 l 1,15,-1
 318.974609375 1130 l 1,16,-1
 386.400390625 495 l 1,17,-1
 485.6796875 743 l 2,18,19
 525.04296875 840 525.04296875 840 557.985351562 937.5 c 128,-1,20
 590.927734375 1035 590.927734375 1035 611.974609375 1130 c 1,21,-1
 779.974609375 1130 l 1,22,23
 758.293945312 1031 758.293945312 1031 715.609375 922.5 c 128,-1,24
 672.924804688 814 672.924804688 814 632.245117188 715 c 2,25,-1
 351.592773438 29 l 2,26,27
 289.46875 -117 289.46875 -117 214.752929688 -181.5 c 128,-1,28
 140.037109375 -246 140.037109375 -246 64.037109375 -246 c 0,0,1
EndSplineSet
EndChar

StartChar: z
Encoding: 122 122 463
Width: 768
VWidth: 2430
GlyphClass: 2
Flags: HW
AnchorPoint: "Anchor-2" 325 0 basechar 0
AnchorPoint: "Anchor-0" 506.499 1127 basechar 0
LayerCount: 2
Fore
SplineSet
-37.4501953125 155 m 1,0,-1
 505.98046875 928 l 1,1,-1
 120.98046875 928 l 1,2,-1
 152.974609375 1130 l 1,3,-1
 779.974609375 1130 l 1,4,-1
 754.94921875 972 l 1,5,-1
 223.518554688 199 l 1,6,-1
 565.518554688 199 l 2,7,8
 603.518554688 199 603.518554688 199 622.310546875 204 c 128,-1,9
 641.102539062 209 641.102539062 209 657.319335938 223 c 1,10,-1
 677.319335938 223 l 1,11,-1
 642 0 l 1,12,-1
 -62 0 l 1,13,-1
 -37.4501953125 155 l 1,0,-1
EndSplineSet
EndChar

StartChar: u.i
Encoding: 65539 -1 468
Width: 704
VWidth: 2430
GlyphClass: 2
Flags: HW
AnchorPoint: "Anchor-3" 460 0 basechar 0
AnchorPoint: "Anchor-2" 223 0 basechar 0
AnchorPoint: "Anchor-1" 717.499 1127 basechar 0
AnchorPoint: "Anchor-0" 420.499 1127 basechar 0
LayerCount: 2
Fore
SplineSet
184.723632812 -27 m 0,0,1
 106.723632812 -27 106.723632812 -27 56.1923828125 17 c 128,-1,2
 5.6611328125 61 5.6611328125 61 -6.8369140625 171.5 c 0,3,4
 -18.5546875 275.09375 -18.5546875 275.09375 10.3125 457.349609375 c 0,5,6
 12.236328125 469.5 12.236328125 469.5 14.3408203125 482 c 2,7,-1
 119.974609375 1130 l 1,8,-1
 313.974609375 1130 l 1,9,-1
 208.490234375 464 l 2,10,11
 189.326171875 343 189.326171875 343 191.426757812 280.5 c 128,-1,12
 193.52734375 218 193.52734375 218 212.884765625 195 c 128,-1,13
 232.2421875 172 232.2421875 172 264.2421875 172 c 0,14,15
 322.2421875 172 322.2421875 172 369.833984375 251.5 c 128,-1,16
 417.424804688 331 417.424804688 331 441.658203125 484 c 2,17,-1
 543.974609375 1130 l 1,18,-1
 738.974609375 1130 l 1,19,-1
 587.55859375 174 l 2,20,21
 580.2734375 128 580.2734375 128 576.12109375 86 c 128,-1,22
 571.96875 44 571.96875 44 578 0 c 1,23,-1
 397 0 l 1,24,25
 386.869140625 56 386.869140625 56 398.431640625 129 c 1,26,27
 360.028320312 57 360.028320312 57 303.875976562 15 c 128,-1,28
 247.723632812 -27 247.723632812 -27 184.723632812 -27 c 0,0,1
EndSplineSet
EndChar

StartChar: r.serif
Encoding: 65540 -1 469
Width: 823
VWidth: 2430
GlyphClass: 1
Flags: HW
LayerCount: 2
Fore
SplineSet
-62.31640625 -2 m 1,0,-1
 -30.7978515625 197 l 1,1,-1
 56.2021484375 197 l 1,2,-1
 172.772460938 933 l 1,3,-1
 90.7724609375 933 l 1,4,-1
 121.974609375 1130 l 1,5,-1
 410.974609375 1130 l 1,6,-1
 384.840820312 965 l 1,7,8
 431.303710938 1050 431.303710938 1050 498.77734375 1103.5 c 128,-1,9
 566.250976562 1157 566.250976562 1157 631.250976562 1157 c 0,10,11
 747.250976562 1157 747.250976562 1157 805.927734375 1035 c 1,12,-1
 703.350585938 823 l 1,13,14
 686.142578125 828 686.142578125 828 681.23046875 847.5 c 128,-1,15
 676.319335938 867 676.319335938 867 669.041015625 890.5 c 128,-1,16
 661.763671875 914 661.763671875 914 640.956054688 931 c 128,-1,17
 620.1484375 948 620.1484375 948 571.1484375 948 c 0,18,19
 499.1484375 948 499.1484375 948 424.6015625 853 c 128,-1,20
 350.055664062 758 350.055664062 758 325.030273438 600 c 2,21,-1
 261.202148438 197 l 1,22,-1
 381.202148438 197 l 1,23,-1
 349.68359375 -2 l 1,24,-1
 -62.31640625 -2 l 1,0,-1
EndSplineSet
EndChar

StartChar: ordfeminine
Encoding: 170 170 470
Width: 694
VWidth: 2430
GlyphClass: 1
Flags: HW
LayerCount: 2
Fore
SplineSet
22.4189453125 533 m 1,0,-1
 652.418945312 533 l 1,1,-1
 621.534179688 338 l 1,2,-1
 -8.4658203125 338 l 1,3,-1
 22.4189453125 533 l 1,0,-1
293.288085938 911 m 0,4,5
 285.2109375 860 285.2109375 860 300.666992188 825 c 128,-1,6
 316.124023438 790 316.124023438 790 350.124023438 790 c 0,7,8
 406.124023438 790 406.124023438 790 440.651367188 847 c 128,-1,9
 475.1796875 904 475.1796875 904 499.51171875 1045 c 1,10,11
 485.51171875 1045 485.51171875 1045 465.51171875 1045 c 0,12,13
 384.51171875 1045 384.51171875 1045 344.28515625 1012 c 128,-1,14
 304.05859375 979 304.05859375 979 293.288085938 911 c 0,4,5
280.624023438 629 m 0,15,16
 183.624023438 629 183.624023438 629 143.185546875 702 c 128,-1,17
 102.748046875 775 102.748046875 775 120.01171875 884 c 0,18,19
 145.353515625 1044 145.353515625 1044 242.4453125 1123.5 c 128,-1,20
 339.536132812 1203 339.536132812 1203 488.536132812 1203 c 0,21,22
 502.536132812 1203 502.536132812 1203 522.536132812 1203 c 1,23,24
 535.909179688 1319 535.909179688 1319 515.793945312 1353 c 128,-1,25
 495.6796875 1387 495.6796875 1387 449.6796875 1387 c 0,26,27
 407.6796875 1387 407.6796875 1387 375.224609375 1371.5 c 128,-1,28
 342.76953125 1356 342.76953125 1356 304.275390625 1315 c 1,29,-1
 232.856445312 1426 l 1,30,31
 285.250976562 1479 285.250976562 1479 349.319335938 1511 c 128,-1,32
 413.38671875 1543 413.38671875 1543 493.38671875 1543 c 0,33,34
 576.38671875 1543 576.38671875 1543 628.16015625 1510 c 128,-1,35
 679.93359375 1477 679.93359375 1477 695.599609375 1386.5 c 128,-1,36
 711.266601562 1296 711.266601562 1296 683.70703125 1122 c 2,37,-1
 608.791015625 649 l 1,38,-1
 436.791015625 649 l 1,39,-1
 448.987304688 726 l 1,40,41
 413.1171875 670 413.1171875 670 372.37109375 649.5 c 128,-1,42
 331.624023438 629 331.624023438 629 280.624023438 629 c 0,15,16
EndSplineSet
EndChar

StartChar: ordmasculine
Encoding: 186 186 471
Width: 694
VWidth: 2430
GlyphClass: 1
Flags: HW
LayerCount: 2
Fore
SplineSet
22.4189453125 533 m 1,0,-1
 652.418945312 533 l 1,1,-1
 621.534179688 338 l 1,2,-1
 -8.4658203125 338 l 1,3,-1
 22.4189453125 533 l 1,0,-1
377.232421875 797 m 128,-1,5
 486.232421875 797 486.232421875 797 533.213867188 1081 c 0,6,7
 557.762695312 1236 557.762695312 1236 542.008789062 1307 c 128,-1,8
 526.25390625 1378 526.25390625 1378 469.25390625 1378 c 0,9,10
 418.25390625 1378 418.25390625 1378 378.008789062 1307 c 128,-1,11
 337.762695312 1236 337.762695312 1236 313.213867188 1081 c 0,12,4
 268.232421875 797 268.232421875 797 377.232421875 797 c 128,-1,5
350.940429688 631 m 128,-1,14
 227.940429688 631 227.940429688 631 165.25390625 734 c 128,-1,15
 102.567382812 837 102.567382812 837 140.896484375 1079 c 0,16,17
 180.967773438 1332 180.967773438 1332 276.677734375 1437.5 c 128,-1,18
 372.38671875 1543 372.38671875 1543 495.38671875 1543 c 128,-1,19
 618.38671875 1543 618.38671875 1543 681.598632812 1437 c 128,-1,20
 744.809570312 1331 744.809570312 1331 704.896484375 1079 c 0,21,22
 666.7265625 838 666.7265625 838 570.333007812 734.5 c 128,-1,13
 473.940429688 631 473.940429688 631 350.940429688 631 c 128,-1,14
EndSplineSet
EndChar

StartChar: uni2124
Encoding: 8484 8484 473
Width: 768
VWidth: 2430
GlyphClass: 1
Flags: HW
LayerCount: 2
Fore
SplineSet
723.977539062 1351 m 1,0,-1
 631.977539062 1351 l 1,1,-1
 93.341796875 160 l 1,2,-1
 188.341796875 160 l 1,3,-1
 723.977539062 1351 l 1,0,-1
881.793945312 1514 m 1,4,-1
 855.977539062 1351 l 1,5,-1
 313.341796875 160 l 1,6,-1
 554.341796875 160 l 2,7,8
 595.341796875 160 595.341796875 160 613.395507812 163.5 c 128,-1,9
 631.450195312 167 631.450195312 167 647.984375 183 c 1,10,-1
 668.984375 183 l 1,11,-1
 640 0 l 1,12,-1
 -62 0 l 1,13,-1
 -36.18359375 163 l 1,14,-1
 505.977539062 1351 l 1,15,-1
 153.977539062 1351 l 1,16,-1
 179.793945312 1514 l 1,17,-1
 881.793945312 1514 l 1,4,-1
EndSplineSet
EndChar

StartChar: zero
Encoding: 48 48 474
Width: 768
VWidth: 2430
GlyphClass: 1
Flags: HW
LayerCount: 2
Fore
SplineSet
316.2421875 172 m 0,0,1
 394.2421875 172 394.2421875 172 452.7578125 311 c 128,-1,2
 511.2734375 450 511.2734375 450 558.629882812 749 c 0,3,4
 569.716796875 819 569.716796875 819 579.219726562 879 c 1,5,-1
 220.720703125 396 l 1,6,7
 222.2421875 172 222.2421875 172 316.2421875 172 c 0,0,1
254.629882812 749 m 0,8,9
 241.80078125 668 241.80078125 668 233.505859375 603 c 1,10,-1
 594.698242188 1103 l 1,11,12
 593.701171875 1324 593.701171875 1324 498.701171875 1324 c 0,13,14
 345.701171875 1324 345.701171875 1324 254.629882812 749 c 0,8,9
284.723632812 -27 m 128,-1,16
 126.723632812 -27 126.723632812 -27 59.3662109375 157 c 128,-1,17
 -7.9912109375 341 -7.9912109375 341 56.6298828125 749 c 0,18,19
 120.142578125 1150 120.142578125 1150 247.077148438 1339 c 128,-1,20
 374.01171875 1528 374.01171875 1528 531.01171875 1528 c 0,21,22
 689.01171875 1528 689.01171875 1528 756.577148438 1339 c 128,-1,23
 824.142578125 1150 824.142578125 1150 760.629882812 749 c 0,24,25
 695.534179688 338 695.534179688 338 569.12890625 155.5 c 128,-1,15
 442.723632812 -27 442.723632812 -27 284.723632812 -27 c 128,-1,16
EndSplineSet
Substitution2: "'ss02' Style Set 2 in Latin lookup 36 subtable" zero.ss02
Substitution2: "'zero' Slashed Zero in Latin lookup 33 subtable" zero.zero
Substitution2: "'frac' Diagonal Fractions in Latin lookup 24 subtable" zero.numr
Substitution2: "'dnom' Denominators in Latin lookup 22 subtable" zero.dnom
Substitution2: "'numr' Numerators in Latin lookup 21 subtable" zero.numr
Substitution2: "'sups' Superscript in Latin lookup 20 subtable" uni2070
Substitution2: "'subs' Subscript in Latin lookup 19 subtable" uni2080
AlternateSubs2: "'aalt' Access All Alternates in Latin lookup 1 subtable" zero.zero zero.ss02 uni2080 zero.dnom zero.numr uni2070
EndChar

StartChar: one
Encoding: 49 49 475
Width: 502
VWidth: 2430
GlyphClass: 1
Flags: HW
LayerCount: 2
Fore
SplineSet
162 0 m 1,0,-1
 355.229492188 1220 l 1,1,-1
 158.499023438 1127 l 1,2,-1
 144.69140625 1305 l 1,3,-1
 465.110351562 1516 l 1,4,-1
 616.110351562 1516 l 1,5,-1
 376 0 l 1,6,-1
 162 0 l 1,0,-1
EndSplineSet
Substitution2: "'frac' Diagonal Fractions in Latin lookup 24 subtable" one.numr
Substitution2: "'dnom' Denominators in Latin lookup 22 subtable" one.dnom
Substitution2: "'numr' Numerators in Latin lookup 21 subtable" one.numr
Substitution2: "'sups' Superscript in Latin lookup 20 subtable" uni00B9
Substitution2: "'subs' Subscript in Latin lookup 19 subtable" uni2081
AlternateSubs2: "'aalt' Access All Alternates in Latin lookup 1 subtable" uni2081 one.dnom one.numr uni00B9
EndChar

StartChar: two
Encoding: 50 50 476
Width: 757
VWidth: 2430
GlyphClass: 1
Flags: HW
LayerCount: 2
Fore
SplineSet
-5.07421875 170 m 1,0,1
 136.166992188 342 136.166992188 342 240.598632812 471 c 128,-1,2
 345.030273438 600 345.030273438 600 417.58203125 704.5 c 128,-1,3
 490.1328125 809 490.1328125 809 531.521484375 903 c 128,-1,4
 572.909179688 997 572.909179688 997 590.588867188 1096 c 0,5,6
 591.657226562 1102.02832031 591.657226562 1102.02832031 592.587890625 1107.90527344 c 0,0,0
 608.1796875 1206.35253906 608.1796875 1206.35253906 585.459960938 1262.5 c 128,-1,7
 561.383789062 1322 561.383789062 1322 499.383789062 1322 c 0,8,9
 455.383789062 1322 455.383789062 1322 417.454101562 1303.5 c 128,-1,10
 379.524414062 1285 379.524414062 1285 342.23828125 1239 c 1,11,12
 319.853515625 1205 319.853515625 1205 313.161132812 1188 c 128,-1,13
 306.467773438 1171 306.467773438 1171 307.458984375 1152 c 1,14,-1
 295.608398438 1134 l 1,15,-1
 278.350585938 1145 l 1,16,-1
 132.020507812 1225 l 1,17,18
 207.353515625 1366 207.353515625 1366 308.182617188 1447 c 128,-1,19
 409.01171875 1528 409.01171875 1528 541.01171875 1528 c 0,20,21
 689.01171875 1528 689.01171875 1528 760.8515625 1416.5 c 128,-1,22
 832.69140625 1305 832.69140625 1305 799.272460938 1094 c 0,23,24
 774.72265625 939 774.72265625 939 704.76171875 803.5 c 128,-1,25
 634.80078125 668 634.80078125 668 526.310546875 526 c 128,-1,26
 417.819335938 384 417.819335938 384 271.310546875 204 c 1,27,-1
 554.310546875 204 l 2,28,29
 593.310546875 204 593.310546875 204 612.102539062 209 c 128,-1,30
 630.89453125 214 630.89453125 214 648.270507812 229 c 1,31,-1
 667.270507812 229 l 1,32,-1
 631 0 l 1,33,-1
 -32 0 l 1,34,-1
 -5.07421875 170 l 1,0,1
EndSplineSet
Substitution2: "'frac' Diagonal Fractions in Latin lookup 24 subtable" two.numr
Substitution2: "'dnom' Denominators in Latin lookup 22 subtable" two.dnom
Substitution2: "'numr' Numerators in Latin lookup 21 subtable" two.numr
Substitution2: "'sups' Superscript in Latin lookup 20 subtable" uni00B2
Substitution2: "'subs' Subscript in Latin lookup 19 subtable" uni2082
AlternateSubs2: "'aalt' Access All Alternates in Latin lookup 1 subtable" uni2082 two.dnom two.numr uni00B2
EndChar

StartChar: three
Encoding: 51 51 477
Width: 747
VWidth: 2430
GlyphClass: 1
Flags: HW
LayerCount: 2
Fore
SplineSet
264.723632812 -27 m 0,0,1
 160.723632812 -27 160.723632812 -27 81.80078125 24 c 128,-1,2
 2.87890625 75 2.87890625 75 -35.8662109375 165 c 1,3,-1
 111.565429688 294 l 1,4,-1
 130.940429688 309 l 1,5,-1
 142.040039062 297 l 1,6,7
 139.34765625 280 139.34765625 280 141.155273438 263 c 128,-1,8
 142.962890625 246 142.962890625 246 159.2109375 216 c 1,9,10
 203.81640625 163 203.81640625 163 280.81640625 163 c 0,11,12
 352.81640625 163 352.81640625 163 404.532226562 227.5 c 128,-1,13
 456.248046875 292 456.248046875 292 477.313476562 425 c 0,14,15
 503.447265625 590 503.447265625 590 447.608398438 651 c 128,-1,16
 405.03125 697.512695312 405.03125 697.512695312 315.842773438 697.512695312 c 0,0,0
 288.0625 697.512695312 288.0625 697.512695312 255.760742188 693 c 1,17,-1
 285.6953125 882 l 1,18,19
 291.34375 881.888671875 291.34375 881.888671875 296.848632812 881.888671875 c 0,0,0
 390.427734375 881.888671875 390.427734375 881.888671875 442.263671875 914 c 128,-1,20
 497.1484375 948 497.1484375 948 523.572265625 1007.5 c 128,-1,21
 549.99609375 1067 549.99609375 1067 561.55859375 1140 c 0,22,23
 576.604492188 1235 576.604492188 1235 553.26171875 1286.5 c 128,-1,24
 529.91796875 1338 529.91796875 1338 473.91796875 1338 c 0,25,26
 383.91796875 1338 383.91796875 1338 300.337890625 1227 c 1,27,-1
 176.28515625 1334 l 1,28,29
 247.6484375 1431 247.6484375 1431 336.830078125 1479.5 c 128,-1,30
 426.01171875 1528 426.01171875 1528 516.01171875 1528 c 0,31,32
 652.01171875 1528 652.01171875 1528 725.1484375 1431 c 128,-1,33
 798.28515625 1334 798.28515625 1334 768.666992188 1147 c 0,34,35
 749.501953125 1026 749.501953125 1026 694.248046875 936 c 128,-1,36
 638.993164062 846 638.993164062 846 556.81640625 807 c 1,37,38
 632.84765625 763 632.84765625 763 672.458984375 669 c 128,-1,39
 712.071289062 575 712.071289062 575 687.205078125 418 c 0,40,41
 654.577148438 212 654.577148438 212 539.650390625 92.5 c 128,-1,42
 424.723632812 -27 424.723632812 -27 264.723632812 -27 c 0,0,1
EndSplineSet
Substitution2: "'frac' Diagonal Fractions in Latin lookup 24 subtable" three.numr
Substitution2: "'dnom' Denominators in Latin lookup 22 subtable" three.dnom
Substitution2: "'numr' Numerators in Latin lookup 21 subtable" three.numr
Substitution2: "'sups' Superscript in Latin lookup 20 subtable" uni00B3
Substitution2: "'subs' Subscript in Latin lookup 19 subtable" uni2083
AlternateSubs2: "'aalt' Access All Alternates in Latin lookup 1 subtable" uni2083 three.dnom three.numr uni00B3
EndChar

StartChar: four
Encoding: 52 52 478
Width: 813
VWidth: 2430
GlyphClass: 1
Flags: HW
LayerCount: 2
Fore
SplineSet
220.061523438 556 m 1,0,-1
 425.061523438 556 l 1,1,-1
 499.34375 1025 l 1,2,-1
 220.061523438 556 l 1,0,-1
335 0 m 1,3,-1
 391.2265625 355 l 1,4,-1
 -5.7734375 355 l 1,5,-1
 21.78515625 529 l 1,6,-1
 624.110351562 1516 l 1,7,-1
 774.110351562 1516 l 1,8,-1
 622.061523438 556 l 1,9,-1
 730.061523438 556 l 1,10,-1
 697.750976562 352 l 1,11,-1
 589.750976562 352 l 1,12,-1
 534 0 l 1,13,-1
 335 0 l 1,3,-1
EndSplineSet
Substitution2: "'frac' Diagonal Fractions in Latin lookup 24 subtable" four.numr
Substitution2: "'dnom' Denominators in Latin lookup 22 subtable" four.dnom
Substitution2: "'numr' Numerators in Latin lookup 21 subtable" four.numr
Substitution2: "'sups' Superscript in Latin lookup 20 subtable" uni2074
Substitution2: "'subs' Subscript in Latin lookup 19 subtable" uni2084
AlternateSubs2: "'aalt' Access All Alternates in Latin lookup 1 subtable" uni2084 four.dnom four.numr uni2074
EndChar

StartChar: five
Encoding: 53 53 479
Width: 763
VWidth: 2430
GlyphClass: 1
Flags: HW
LayerCount: 2
Fore
SplineSet
277.723632812 -27 m 0,0,1
 165.723632812 -27 165.723632812 -27 84.9345703125 28 c 128,-1,2
 4.1455078125 83 4.1455078125 83 -29.689453125 204 c 1,3,-1
 140.57421875 313 l 1,4,-1
 159.474609375 325 l 1,5,-1
 166.2578125 311 l 1,6,7
 161.565429688 294 161.565429688 294 162.53125 278 c 128,-1,8
 163.497070312 262 163.497070312 262 178.586914062 231 c 1,9,10
 220.400390625 173 220.400390625 173 300.2421875 172 c 0,11,12
 372.2421875 172 372.2421875 172 427.284179688 257.5 c 128,-1,13
 482.326171875 343 482.326171875 343 504.340820312 482 c 0,14,15
 529.366210938 640 529.366210938 640 504.090820312 723.5 c 128,-1,16
 478.81640625 807 478.81640625 807 404.81640625 807 c 0,17,18
 309.81640625 807 309.81640625 807 230.552734375 698 c 1,19,-1
 102.461914062 729 l 1,20,-1
 259.793945312 1514 l 1,21,-1
 822.793945312 1514 l 1,22,-1
 790.80078125 1312 l 1,23,-1
 417.80078125 1312 l 1,24,-1
 344.040039062 941 l 1,25,26
 413.909179688 997 413.909179688 997 503.909179688 997 c 0,27,28
 637.909179688 997 637.909179688 997 696.374023438 870.5 c 128,-1,29
 754.837890625 744 754.837890625 744 713.974609375 486 c 0,30,31
 674.37890625 236 674.37890625 236 556.05078125 104.5 c 128,-1,32
 437.723632812 -27 437.723632812 -27 277.723632812 -27 c 0,0,1
EndSplineSet
Substitution2: "'frac' Diagonal Fractions in Latin lookup 24 subtable" five.numr
Substitution2: "'dnom' Denominators in Latin lookup 22 subtable" five.dnom
Substitution2: "'numr' Numerators in Latin lookup 21 subtable" five.numr
Substitution2: "'sups' Superscript in Latin lookup 20 subtable" uni2075
Substitution2: "'subs' Subscript in Latin lookup 19 subtable" uni2085
AlternateSubs2: "'aalt' Access All Alternates in Latin lookup 1 subtable" uni2085 five.dnom five.numr uni2075
EndChar

StartChar: six
Encoding: 54 54 480
Width: 744
VWidth: 2430
GlyphClass: 1
Flags: HW
LayerCount: 2
Fore
SplineSet
323.192382812 178 m 0,0,1
 376.192382812 178 376.192382812 178 421.9921875 252.5 c 128,-1,2
 467.791992188 327 467.791992188 327 493.450195312 489 c 0,3,4
 517.682617188 642 517.682617188 642 493.76953125 712 c 128,-1,5
 469.856445312 782 469.856445312 782 418.856445312 782 c 0,6,7
 369.856445312 782 369.856445312 782 330.416992188 744.5 c 128,-1,8
 290.977539062 707 290.977539062 707 256 644 c 1,9,10
 248.266601562 605.612304688 248.266601562 605.612304688 242.616210938 569.940429688 c 0,0,0
 217.505859375 411.3984375 217.505859375 411.3984375 233.544921875 306.5 c 128,-1,11
 253.192382812 178 253.192382812 178 323.192382812 178 c 0,0,1
289.19921875 -24 m 0,12,13
 117.19921875 -24 117.19921875 -24 54.2080078125 156 c 128,-1,14
 -8.783203125 336 -8.783203125 336 47.7607421875 693 c 0,15,16
 115.07421875 1118 115.07421875 1118 256.938476562 1325.5 c 128,-1,17
 398.803710938 1533 398.803710938 1533 586.803710938 1533 c 0,18,19
 664.803710938 1533 664.803710938 1533 728.705078125 1494.5 c 128,-1,20
 792.607421875 1456 792.607421875 1456 826.25390625 1378 c 1,21,-1
 693.654296875 1229 l 1,22,-1
 679.120117188 1213 l 1,23,-1
 665.545898438 1222 l 1,24,25
 666.23828125 1239 666.23828125 1239 662.930664062 1256 c 128,-1,26
 659.623046875 1273 659.623046875 1273 641.583007812 1298 c 1,27,28
 610.375 1327.03222656 610.375 1327.03222656 566.139648438 1327.03222656 c 0,0,0
 564.665039062 1327.03222656 564.665039062 1327.03222656 563.17578125 1327 c 0,29,30
 521.17578125 1327 521.17578125 1327 471.44921875 1294 c 128,-1,31
 421.72265625 1261 421.72265625 1261 373.517578125 1165 c 128,-1,32
 325.3125 1069 325.3125 1069 288.219726562 879 c 1,33,34
 376.692382812 983 376.692382812 983 494.850585938 984 c 0,35,36
 615.850585938 984 615.850585938 984 675.290039062 860.5 c 128,-1,37
 734.729492188 737 734.729492188 737 695.450195312 489 c 0,38,39
 658.387695312 255 658.387695312 255 550.29296875 115.5 c 128,-1,40
 442.19921875 -24 442.19921875 -24 289.19921875 -24 c 0,12,13
EndSplineSet
Substitution2: "'frac' Diagonal Fractions in Latin lookup 24 subtable" six.numr
Substitution2: "'dnom' Denominators in Latin lookup 22 subtable" six.dnom
Substitution2: "'numr' Numerators in Latin lookup 21 subtable" six.numr
Substitution2: "'sups' Superscript in Latin lookup 20 subtable" uni2076
Substitution2: "'subs' Subscript in Latin lookup 19 subtable" uni2086
AlternateSubs2: "'aalt' Access All Alternates in Latin lookup 1 subtable" uni2086 six.dnom six.numr uni2076
EndChar

StartChar: seven
Encoding: 55 55 481
Width: 708
VWidth: 2430
GlyphClass: 1
Flags: HW
LayerCount: 2
Fore
SplineSet
31 0 m 1,0,1
 160.326171875 343 160.326171875 343 281.034179688 660 c 128,-1,2
 401.741210938 977 401.741210938 977 544.166992188 1308 c 1,3,-1
 145.166992188 1308 l 1,4,-1
 177.793945312 1514 l 1,5,-1
 821.793945312 1514 l 1,6,-1
 799.778320312 1375 l 1,7,8
 645.135742188 1030 645.135742188 1030 516.235351562 696 c 128,-1,9
 387.334960938 362 387.334960938 362 256 0 c 1,10,-1
 31 0 l 1,0,1
EndSplineSet
Substitution2: "'frac' Diagonal Fractions in Latin lookup 24 subtable" seven.numr
Substitution2: "'dnom' Denominators in Latin lookup 22 subtable" seven.dnom
Substitution2: "'numr' Numerators in Latin lookup 21 subtable" seven.numr
Substitution2: "'sups' Superscript in Latin lookup 20 subtable" uni2077
Substitution2: "'subs' Subscript in Latin lookup 19 subtable" uni2087
AlternateSubs2: "'aalt' Access All Alternates in Latin lookup 1 subtable" uni2087 seven.dnom seven.numr uni2077
EndChar

StartChar: eight
Encoding: 56 56 482
Width: 761
VWidth: 2430
GlyphClass: 1
Flags: HW
LayerCount: 2
Fore
SplineSet
315.192382812 178 m 0,0,1
 456.192382812 178 456.192382812 178 491.51171875 401 c 0,2,3
 508.776367188 510 508.776367188 510 479.337890625 583 c 128,-1,4
 449.900390625 656 449.900390625 656 380.869140625 700 c 1,5,6
 316.216796875 658 316.216796875 658 270.892578125 586.5 c 128,-1,7
 225.568359375 515 225.568359375 515 208.62109375 408 c 0,8,9
 190.248046875 292 190.248046875 292 222.220703125 235 c 128,-1,10
 254.192382812 178 254.192382812 178 315.192382812 178 c 0,0,1
456.387695312 899 m 1,11,12
 509.040039062 941 509.040039062 941 541.28515625 1012 c 128,-1,13
 573.530273438 1083 573.530273438 1083 585.567382812 1159 c 0,14,15
 597.921875 1237 597.921875 1237 576.603515625 1285.5 c 128,-1,16
 555.28515625 1334 555.28515625 1334 500.28515625 1334 c 0,17,18
 447.28515625 1334 447.28515625 1334 414.26171875 1286.5 c 128,-1,19
 381.23828125 1239 381.23828125 1239 369.67578125 1166 c 0,20,21
 353.837890625 1066 353.837890625 1066 378.255859375 1005.5 c 128,-1,22
 402.672851562 945 402.672851562 945 456.387695312 899 c 1,11,12
280.19921875 -24 m 0,23,24
 120.19921875 -24 120.19921875 -24 45.0966796875 89 c 128,-1,25
 -30.005859375 202 -30.005859375 202 -1.1806640625 384 c 0,26,27
 22.2607421875 532 22.2607421875 532 91.4453125 640.5 c 128,-1,28
 160.629882812 749 160.629882812 749 262.924804688 814 c 1,29,30
 134.08984375 935 134.08984375 935 168.250976562 1157 c 0,31,32
 194.701171875 1324 194.701171875 1324 295.91015625 1429.5 c 128,-1,33
 397.120117188 1535 397.120117188 1535 538.120117188 1535 c 0,34,35
 686.120117188 1535 686.120117188 1535 747.96484375 1433 c 128,-1,36
 809.809570312 1331 809.809570312 1331 784.467773438 1171 c 0,37,38
 766.412109375 1057 766.412109375 1057 716.548828125 960 c 128,-1,39
 666.685546875 863 666.685546875 863 587.024414062 802 c 1,40,41
 740.1171875 670 740.1171875 670 697.403320312 394 c 0,42,43
 666.994140625 202 666.994140625 202 555.096679688 89 c 128,-1,44
 443.19921875 -24 443.19921875 -24 280.19921875 -24 c 0,23,24
EndSplineSet
Substitution2: "'frac' Diagonal Fractions in Latin lookup 24 subtable" eight.numr
Substitution2: "'dnom' Denominators in Latin lookup 22 subtable" eight.dnom
Substitution2: "'numr' Numerators in Latin lookup 21 subtable" eight.numr
Substitution2: "'sups' Superscript in Latin lookup 20 subtable" uni2078
Substitution2: "'subs' Subscript in Latin lookup 19 subtable" uni2088
AlternateSubs2: "'aalt' Access All Alternates in Latin lookup 1 subtable" uni2088 eight.dnom eight.numr uni2078
EndChar

StartChar: nine
Encoding: 57 57 483
Width: 744
VWidth: 2430
GlyphClass: 1
Flags: HW
LayerCount: 2
Fore
SplineSet
302.34375 1025 m 0,0,1
 280.329101562 886 280.329101562 886 308.7421875 816 c 128,-1,2
 337.155273438 746 337.155273438 746 400.155273438 746 c 0,3,4
 488.155273438 746 488.155273438 746 546.024414062 802 c 1,5,6
 578.334960938 1006 578.334960938 1006 580.890625 1120 c 128,-1,7
 583.446289062 1234 583.446289062 1234 558.969726562 1281.5 c 128,-1,8
 534.493164062 1329 534.493164062 1329 485.493164062 1329 c 0,9,10
 422.493164062 1329 422.493164062 1329 375.088867188 1257 c 128,-1,11
 327.685546875 1185 327.685546875 1185 302.34375 1025 c 0,0,1
233.19921875 -24 m 0,12,13
 46.19921875 -24 46.19921875 -24 -38.15234375 119 c 1,14,-1
 90.7138671875 276 l 1,15,-1
 108.040039062 297 l 1,16,-1
 121.931640625 290 l 1,17,18
 123.921875 271 123.921875 271 126.9921875 252.5 c 128,-1,19
 130.061523438 234 130.061523438 234 149.626953125 206 c 1,20,21
 190.55859375 174 190.55859375 174 249.55859375 174 c 0,22,23
 337.55859375 174 337.55859375 174 401.881835938 296 c 128,-1,24
 466.205078125 418 466.205078125 418 506.030273438 600 c 1,25,26
 436.953125 549 436.953125 549 351.953125 549 c 0,27,28
 215.953125 549 215.953125 549 140.092773438 673 c 128,-1,29
 64.232421875 797 64.232421875 797 100.819335938 1028 c 0,30,31
 139.306640625 1271 139.306640625 1271 258.159179688 1399.5 c 128,-1,32
 377.01171875 1528 377.01171875 1528 517.01171875 1528 c 0,33,34
 695.01171875 1528 695.01171875 1528 751.377929688 1363 c 128,-1,35
 807.744140625 1198 807.744140625 1198 754.685546875 863 c 0,36,37
 681.1953125 399 681.1953125 399 552.35546875 188.5 c 128,-1,38
 423.515625 -22 423.515625 -22 233.19921875 -24 c 0,12,13
EndSplineSet
Substitution2: "'frac' Diagonal Fractions in Latin lookup 24 subtable" nine.numr
Substitution2: "'dnom' Denominators in Latin lookup 22 subtable" nine.dnom
Substitution2: "'numr' Numerators in Latin lookup 21 subtable" nine.numr
Substitution2: "'sups' Superscript in Latin lookup 20 subtable" uni2079
Substitution2: "'subs' Subscript in Latin lookup 19 subtable" uni2089
AlternateSubs2: "'aalt' Access All Alternates in Latin lookup 1 subtable" uni2089 nine.dnom nine.numr uni2079
EndChar

StartChar: zero.zero
Encoding: 65541 -1 484
Width: 768
VWidth: 2430
GlyphClass: 1
Flags: HW
LayerCount: 2
Fore
SplineSet
392.583007812 654 m 128,-1,1
 347.583007812 654 347.583007812 654 321.23046875 686.5 c 128,-1,2
 294.877929688 719 294.877929688 719 302.639648438 768 c 0,3,4
 309.924804688 814 309.924804688 814 346.809570312 848 c 128,-1,5
 383.6953125 882 383.6953125 882 428.6953125 882 c 128,-1,6
 473.6953125 882 473.6953125 882 500.809570312 848 c 128,-1,7
 527.924804688 814 527.924804688 814 520.639648438 768 c 128,-1,8
 513.353515625 722 513.353515625 722 475.46875 688 c 128,-1,0
 437.583007812 654 437.583007812 654 392.583007812 654 c 128,-1,1
316.2421875 172 m 0,9,10
 394.2421875 172 394.2421875 172 452.7578125 311 c 128,-1,11
 511.2734375 450 511.2734375 450 558.629882812 749 c 0,12,13
 649.701171875 1324 649.701171875 1324 498.701171875 1324 c 0,14,15
 345.701171875 1324 345.701171875 1324 254.629882812 749 c 0,16,17
 207.2734375 450 207.2734375 450 225.2578125 311 c 128,-1,18
 243.2421875 172 243.2421875 172 316.2421875 172 c 0,9,10
284.723632812 -27 m 128,-1,20
 126.723632812 -27 126.723632812 -27 59.3662109375 157 c 128,-1,21
 -7.9912109375 341 -7.9912109375 341 56.6298828125 749 c 0,22,23
 120.142578125 1150 120.142578125 1150 247.077148438 1339 c 128,-1,24
 374.01171875 1528 374.01171875 1528 531.01171875 1528 c 0,25,26
 689.01171875 1528 689.01171875 1528 756.577148438 1339 c 128,-1,27
 824.142578125 1150 824.142578125 1150 760.629882812 749 c 0,28,29
 695.534179688 338 695.534179688 338 569.12890625 155.5 c 128,-1,19
 442.723632812 -27 442.723632812 -27 284.723632812 -27 c 128,-1,20
EndSplineSet
EndChar

StartChar: zero.ss02
Encoding: 65542 -1 485
Width: 768
VWidth: 2430
GlyphClass: 1
Flags: HW
LayerCount: 2
Fore
SplineSet
316.2421875 172 m 0,0,1
 394.2421875 172 394.2421875 172 452.7578125 311 c 128,-1,2
 511.2734375 450 511.2734375 450 558.629882812 749 c 0,3,4
 649.701171875 1324 649.701171875 1324 498.701171875 1324 c 0,5,6
 345.701171875 1324 345.701171875 1324 254.629882812 749 c 0,7,8
 207.2734375 450 207.2734375 450 225.2578125 311 c 128,-1,9
 243.2421875 172 243.2421875 172 316.2421875 172 c 0,0,1
284.723632812 -27 m 128,-1,11
 126.723632812 -27 126.723632812 -27 59.3662109375 157 c 128,-1,12
 -7.9912109375 341 -7.9912109375 341 56.6298828125 749 c 0,13,14
 120.142578125 1150 120.142578125 1150 247.077148438 1339 c 128,-1,15
 374.01171875 1528 374.01171875 1528 531.01171875 1528 c 0,16,17
 689.01171875 1528 689.01171875 1528 756.577148438 1339 c 128,-1,18
 824.142578125 1150 824.142578125 1150 760.629882812 749 c 0,19,20
 695.534179688 338 695.534179688 338 569.12890625 155.5 c 128,-1,10
 442.723632812 -27 442.723632812 -27 284.723632812 -27 c 128,-1,11
EndSplineSet
EndChar

StartChar: uni2070
Encoding: 8304 8304 516
Width: 565
VWidth: 2430
GlyphClass: 1
Flags: HW
LayerCount: 2
Fore
SplineSet
301.877929688 719 m 0,0,1
 357.877929688 719 357.877929688 719 395.4453125 801.5 c 128,-1,2
 433.01171875 884 433.01171875 884 461.204101562 1062 c 0,3,4
 467.380859375 1101 467.380859375 1101 472.608398438 1134 c 1,5,-1
 233.309570312 848 l 1,6,7
 236.877929688 719 236.877929688 719 301.877929688 719 c 0,0,1
252.204101562 1062 m 0,8,9
 245.551757812 1020 245.551757812 1020 240.166992188 986 c 1,10,-1
 482.20703125 1283 l 1,11,12
 474.372070312 1404 474.372070312 1404 410.530273438 1405 c 0,13,14
 306.530273438 1405 306.530273438 1405 252.204101562 1062 c 0,8,9
279.86328125 580 m 128,-1,16
 167.86328125 580 167.86328125 580 116.998046875 694.5 c 128,-1,17
 66.1328125 809 66.1328125 809 106.204101562 1062 c 0,18,19
 145.80078125 1312 145.80078125 1312 233.831054688 1429 c 128,-1,20
 321.862304688 1546 321.862304688 1546 432.862304688 1546 c 0,21,22
 544.862304688 1546 544.862304688 1546 595.831054688 1429 c 128,-1,23
 646.80078125 1312 646.80078125 1312 607.204101562 1062 c 0,24,25
 566.81640625 807 566.81640625 807 479.33984375 693.5 c 128,-1,15
 391.86328125 580 391.86328125 580 279.86328125 580 c 128,-1,16
EndSplineSet
Substitution2: "'ss02' Style Set 2 in Latin lookup 36 subtable" uni2070.ss02
Substitution2: "'zero' Slashed Zero in Latin lookup 33 subtable" uni2070.zero
AlternateSubs2: "'aalt' Access All Alternates in Latin lookup 1 subtable" uni2070.ss02 uni2070.zero
EndChar

StartChar: uni00B9
Encoding: 185 185 517
Width: 370
VWidth: 2430
GlyphClass: 1
Flags: HW
LayerCount: 2
Fore
SplineSet
183.713867188 598 m 1,0,-1
 300.91796875 1338 l 1,1,-1
 172.415039062 1278 l 1,2,-1
 160.846679688 1407 l 1,3,-1
 376.595703125 1538 l 1,4,-1
 487.595703125 1538 l 1,5,-1
 338.713867188 598 l 1,6,-1
 183.713867188 598 l 1,0,-1
EndSplineSet
EndChar

StartChar: uni00B2
Encoding: 178 178 518
Width: 545
VWidth: 2430
GlyphClass: 1
Flags: HW
LayerCount: 2
Fore
SplineSet
69.76953125 712 m 1,0,1
 199.893554688 858 199.893554688 858 281.940429688 953 c 128,-1,2
 363.987304688 1048 363.987304688 1048 408.20703125 1122 c 128,-1,3
 452.427734375 1196 452.427734375 1196 467.415039062 1278 c 0,4,5
 475.809570312 1331 475.809570312 1331 461.01171875 1367 c 128,-1,6
 446.212890625 1403 446.212890625 1403 402.212890625 1403 c 0,7,8
 360.212890625 1403 360.212890625 1403 334.362304688 1385 c 1,9,10
 305.293945312 1353 305.293945312 1353 296.1015625 1336 c 128,-1,11
 286.909179688 1319 286.909179688 1319 283.899414062 1300 c 1,12,-1
 269.524414062 1285 l 1,13,-1
 255.899414062 1300 l 1,14,-1
 153.561523438 1361 l 1,15,16
 206.499023438 1449 206.499023438 1449 273.680664062 1497.5 c 128,-1,17
 340.862304688 1546 340.862304688 1546 431.862304688 1546 c 0,18,19
 531.862304688 1546 531.862304688 1546 584.354492188 1476.5 c 128,-1,20
 636.846679688 1407 636.846679688 1407 616.098632812 1276 c 0,21,22
 601.051757812 1181 601.051757812 1181 559.540039062 1102 c 128,-1,23
 518.02734375 1023 518.02734375 1023 448.564453125 938 c 128,-1,24
 379.1015625 853 379.1015625 853 283.521484375 742 c 1,25,-1
 426.521484375 742 l 2,26,27
 465.521484375 742 465.521484375 742 484.234375 746.5 c 128,-1,28
 502.946289062 751 502.946289062 751 520.84765625 763 c 1,29,-1
 539.84765625 763 l 1,30,-1
 513.713867188 598 l 1,31,-1
 51.7138671875 598 l 1,32,-1
 69.76953125 712 l 1,0,1
EndSplineSet
EndChar

StartChar: uni00B3
Encoding: 179 179 519
Width: 537
VWidth: 2430
GlyphClass: 1
Flags: HW
LayerCount: 2
Fore
SplineSet
257.86328125 580 m 0,0,1
 106.86328125 580 106.86328125 580 48.869140625 700 c 1,2,-1
 150.124023438 790 l 1,3,-1
 169.81640625 807 l 1,4,-1
 179.916015625 795 l 1,5,6
 176.90625 776 176.90625 776 183.268554688 762.5 c 128,-1,7
 189.629882812 749 189.629882812 749 212.669921875 724 c 1,8,9
 238.245117188 715 238.245117188 715 269.086914062 714 c 0,10,11
 318.086914062 714 318.086914062 714 351.788085938 750 c 128,-1,12
 385.490234375 786 385.490234375 786 397.685546875 863 c 0,13,14
 413.524414062 963 413.524414062 963 374.830078125 996.5 c 0,15,16
 346.340820312 1021.16503906 346.340820312 1021.16503906 287.3828125 1021.16503906 c 0,17,18
 266.263671875 1021.16503906 266.263671875 1021.16503906 241.235351562 1018 c 1,19,-1
 262.458984375 1152 l 1,20,21
 267.081054688 1151.90917969 267.081054688 1151.90917969 271.568359375 1151.90917969 c 0,22,23
 365.80859375 1151.90917969 365.80859375 1151.90917969 400.793945312 1192 c 0,24,25
 437.446289062 1234 437.446289062 1234 447.899414062 1300 c 0,26,27
 456.293945312 1353 456.293945312 1353 440.125 1383.5 c 128,-1,28
 423.956054688 1414 423.956054688 1414 384.956054688 1414 c 0,29,30
 321.956054688 1414 321.956054688 1414 267.34375 1347 c 1,31,-1
 180.856445312 1426 l 1,32,33
 229.517578125 1487 229.517578125 1487 291.190429688 1516.5 c 128,-1,34
 352.862304688 1546 352.862304688 1546 412.862304688 1546 c 0,35,36
 507.862304688 1546 507.862304688 1546 561.359375 1486 c 128,-1,37
 614.856445312 1426 614.856445312 1426 596.483398438 1310 c 0,38,39
 584.129882812 1232 584.129882812 1232 547.418945312 1177 c 128,-1,40
 510.70703125 1122 510.70703125 1122 458.064453125 1099 c 1,41,42
 506.788085938 1072 506.788085938 1072 534.522460938 1013.5 c 128,-1,43
 562.256835938 955 562.256835938 955 546.893554688 858 c 0,44,45
 525.987304688 726 525.987304688 726 447.924804688 653 c 128,-1,46
 369.86328125 580 369.86328125 580 257.86328125 580 c 0,0,1
EndSplineSet
EndChar

StartChar: uni2074
Encoding: 8308 8308 520
Width: 574
VWidth: 2430
GlyphClass: 1
Flags: HW
LayerCount: 2
Fore
SplineSet
236.940429688 953 m 1,0,-1
 372.940429688 953 l 1,1,-1
 414.120117188 1213 l 1,2,-1
 236.940429688 953 l 1,0,-1
313.713867188 598 m 1,3,-1
 347.608398438 812 l 1,4,-1
 66.6083984375 812 l 1,5,-1
 85.7724609375 933 l 1,6,-1
 499.595703125 1538 l 1,7,-1
 611.595703125 1538 l 1,8,-1
 519.256835938 955 l 1,9,-1
 599.256835938 955 l 1,10,-1
 576.608398438 812 l 1,11,-1
 496.608398438 812 l 1,12,-1
 462.713867188 598 l 1,13,-1
 313.713867188 598 l 1,3,-1
EndSplineSet
EndChar

StartChar: uni2075
Encoding: 8309 8309 521
Width: 547
VWidth: 2430
GlyphClass: 1
Flags: HW
LayerCount: 2
Fore
SplineSet
266.86328125 580 m 0,0,1
 188.86328125 580 188.86328125 580 132.827148438 614.5 c 128,-1,2
 76.791015625 649 76.791015625 649 52.9873046875 726 c 1,3,-1
 172.340820312 804 l 1,4,-1
 190.2421875 816 l 1,5,-1
 198.024414062 802 l 1,6,7
 193.33203125 785 193.33203125 785 199.693359375 771.5 c 128,-1,8
 206.055664062 758 206.055664062 758 225.779296875 731 c 1,9,10
 251.353515625 722 251.353515625 722 280.1953125 721 c 0,11,12
 331.1953125 721 331.1953125 721 365.456054688 770 c 128,-1,13
 399.716796875 819 399.716796875 819 412.071289062 897 c 0,14,15
 442.005859375 1086.00488281 442.005859375 1086.00488281 344.040039062 1086.00488281 c 0,16,17
 343.524414062 1086.00488281 343.524414062 1086.00488281 343.005859375 1086 c 0,18,19
 280.005859375 1086 280.005859375 1086 231.02734375 1023 c 1,20,-1
 134.51171875 1045 l 1,21,-1
 237.120117188 1535 l 1,22,-1
 626.120117188 1535 l 1,23,-1
 604.421875 1398 l 1,24,-1
 351.421875 1398 l 1,25,-1
 307.369140625 1183 l 1,26,27
 355.229492188 1220 355.229492188 1220 415.229492188 1220 c 0,28,29
 505.229492188 1220 505.229492188 1220 547.375 1142 c 128,-1,30
 589.521484375 1064 589.521484375 1064 563.862304688 902 c 0,31,32
 539.313476562 747 539.313476562 747 459.087890625 663.5 c 128,-1,33
 378.86328125 580 378.86328125 580 266.86328125 580 c 0,0,1
EndSplineSet
EndChar

StartChar: uni2076
Encoding: 8310 8310 522
Width: 535
VWidth: 2430
GlyphClass: 1
Flags: HW
LayerCount: 2
Fore
SplineSet
300.669921875 724 m 0,0,1
 337.669921875 724 337.669921875 724 365.401367188 766.5 c 128,-1,2
 393.1328125 809 393.1328125 809 407.862304688 902 c 0,3,4
 422.1171875 992 422.1171875 992 405.374023438 1031.5 c 128,-1,5
 388.629882812 1071 388.629882812 1071 355.629882812 1071 c 0,6,7
 323.629882812 1071 323.629882812 1071 298.3828125 1050.5 c 128,-1,8
 273.135742188 1030 273.135742188 1030 250.909179688 997 c 1,9,10
 246.73046875 975.709960938 246.73046875 975.709960938 243.608398438 955.993164062 c 0,11,12
 227.369140625 853.467773438 227.369140625 853.467773438 239.677734375 793.5 c 0,13,14
 253.954101562 723.9453125 253.954101562 723.9453125 298.172851562 723.9453125 c 0,15,16
 299.41015625 723.9453125 299.41015625 723.9453125 300.669921875 724 c 0,0,1
276.49609375 584 m 0,17,18
 30.49609375 584 30.49609375 584 100.34375 1025 c 0,19,20
 142.31640625 1290 142.31640625 1290 239.485351562 1420.5 c 128,-1,21
 336.654296875 1551 336.654296875 1551 462.654296875 1551 c 0,22,23
 515.654296875 1551 515.654296875 1551 561.7734375 1526.5 c 128,-1,24
 607.893554688 1502 607.893554688 1502 636.815429688 1451 c 1,25,-1
 539.977539062 1351 l 1,26,-1
 525.28515625 1334 l 1,27,-1
 512.869140625 1344 l 1,28,29
 513.877929688 1363 513.877929688 1363 505.8828125 1372.5 c 128,-1,30
 497.887695312 1382 497.887695312 1382 471.530273438 1405 c 0,31,32
 466.530273438 1405 466.530273438 1405 460.530273438 1405 c 128,-1,33
 454.530273438 1405 454.530273438 1405 450.530273438 1405 c 0,34,35
 423.530273438 1405 423.530273438 1405 390.099609375 1386.5 c 128,-1,36
 356.669921875 1368 356.669921875 1368 325.879882812 1312.5 c 128,-1,37
 295.088867188 1257 295.088867188 1257 273.142578125 1150 c 1,38,39
 327.90625 1210.01660156 327.90625 1210.01660156 403.171875 1210.01660156 c 0,40,41
 404.40625 1210.01660156 404.40625 1210.01660156 405.645507812 1210 c 0,42,43
 493.645507812 1210 493.645507812 1210 535.424804688 1136 c 128,-1,44
 577.204101562 1062 577.204101562 1062 552.1796875 904 c 0,45,46
 529.055664062 758 529.055664062 758 456.276367188 671 c 128,-1,47
 383.49609375 584 383.49609375 584 276.49609375 584 c 0,17,18
EndSplineSet
EndChar

StartChar: uni2077
Encoding: 8311 8311 523
Width: 511
VWidth: 2430
GlyphClass: 1
Flags: HW
LayerCount: 2
Fore
SplineSet
95.7138671875 598 m 1,0,1
 179.81640625 807 179.81640625 807 258.725585938 999 c 128,-1,2
 337.635742188 1191 337.635742188 1191 429.99609375 1389 c 1,3,-1
 157.99609375 1389 l 1,4,-1
 181.120117188 1535 l 1,5,-1
 628.120117188 1535 l 1,6,-1
 612.440429688 1436 l 1,7,8
 514.020507812 1225 514.020507812 1225 428.52734375 1023 c 128,-1,9
 343.033203125 821 343.033203125 821 255.713867188 598 c 1,10,-1
 95.7138671875 598 l 1,0,1
EndSplineSet
EndChar

StartChar: uni2078
Encoding: 8312 8312 524
Width: 549
VWidth: 2430
GlyphClass: 1
Flags: HW
LayerCount: 2
Fore
SplineSet
296.669921875 724 m 0,0,1
 342.669921875 724 342.669921875 724 370.763671875 753 c 128,-1,2
 398.856445312 782 398.856445312 782 409.309570312 848 c 0,3,4
 419.60546875 913 419.60546875 913 397.415039062 956 c 128,-1,5
 375.225585938 999 375.225585938 999 328.02734375 1023 c 1,6,7
 287.225585938 999 287.225585938 999 260.653320312 957.5 c 128,-1,8
 234.080078125 916 234.080078125 916 224.1015625 853 c 0,9,10
 213.33203125 785 213.33203125 785 234.000976562 754.5 c 128,-1,11
 254.669921875 724 254.669921875 724 296.669921875 724 c 0,0,1
386.567382812 1159 m 1,12,13
 419.893554688 1180 419.893554688 1180 439.362304688 1224 c 128,-1,14
 458.831054688 1268 458.831054688 1268 465.80078125 1312 c 128,-1,15
 472.76953125 1356 472.76953125 1356 457.545898438 1383 c 128,-1,16
 442.322265625 1410 442.322265625 1410 405.322265625 1410 c 0,17,18
 371.322265625 1410 371.322265625 1410 350.545898438 1383 c 128,-1,19
 329.76953125 1356 329.76953125 1356 323.592773438 1317 c 0,20,21
 314.40625 1259 314.40625 1259 331.387695312 1221 c 128,-1,22
 348.369140625 1183 348.369140625 1183 386.567382812 1159 c 1,12,13
272.49609375 584 m 128,-1,24
 160.49609375 584 160.49609375 584 106.345703125 652.5 c 128,-1,25
 52.1953125 721 52.1953125 721 70.5673828125 837 c 0,26,27
 85.6142578125 932 85.6142578125 932 130.909179688 997 c 128,-1,28
 176.204101562 1062 176.204101562 1062 243.698242188 1103 c 1,29,30
 161.051757812 1181 161.051757812 1181 181.80078125 1312 c 0,31,32
 198.272460938 1416 198.272460938 1416 267.462890625 1483.5 c 128,-1,33
 336.654296875 1551 336.654296875 1551 433.654296875 1551 c 0,34,35
 533.654296875 1551 533.654296875 1551 579.359375 1486 c 128,-1,36
 625.064453125 1421 625.064453125 1421 609.383789062 1322 c 0,37,38
 597.98046875 1250 597.98046875 1250 566.635742188 1191 c 128,-1,39
 535.291015625 1132 535.291015625 1132 485.272460938 1094 c 1,40,41
 583.565429688 1013.71679688 583.565429688 1013.71679688 557.158203125 846.984375 c 0,42,43
 537.838867188 725.009765625 537.838867188 725.009765625 461.163085938 654.5 c 128,-1,23
 384.49609375 584 384.49609375 584 272.49609375 584 c 128,-1,24
EndSplineSet
EndChar

StartChar: uni2079
Encoding: 8313 8313 525
Width: 535
VWidth: 2430
GlyphClass: 1
Flags: HW
LayerCount: 2
Fore
SplineSet
276.654296875 1229 m 0,0,1
 251.3125 1069 251.3125 1069 344.3125 1069 c 0,2,3
 402.3125 1069 402.3125 1069 437.380859375 1101 c 1,4,5
 466.365234375 1284 466.365234375 1284 454.106445312 1345.5 c 128,-1,6
 441.846679688 1407 441.846679688 1407 393.846679688 1407 c 0,7,8
 351.846679688 1407 351.846679688 1407 321.774414062 1365.5 c 128,-1,9
 291.701171875 1324 291.701171875 1324 276.654296875 1229 c 0,0,1
236.49609375 584 m 0,10,11
 102.49609375 584 102.49609375 584 44.5927734375 673 c 1,12,-1
 139.490234375 786 l 1,13,-1
 158.340820312 804 l 1,14,-1
 170.598632812 793 l 1,15,16
 169.58984375 774 169.58984375 774 178.609375 761.5 c 128,-1,17
 187.629882812 749 187.629882812 749 212.987304688 726 c 1,18,19
 229.1953125 721 229.1953125 721 249.1953125 721 c 0,20,21
 302.1953125 721 302.1953125 721 343.1484375 787 c 128,-1,22
 384.1015625 853 384.1015625 853 410.366210938 962 c 1,23,24
 366.297851562 930 366.297851562 930 308.297851562 930 c 0,25,26
 215.297851562 930 215.297851562 930 162.4140625 1006.5 c 128,-1,27
 109.530273438 1083 109.530273438 1083 133.129882812 1232 c 0,28,29
 157.362304688 1385 157.362304688 1385 237.612304688 1465.5 c 128,-1,30
 317.862304688 1546 317.862304688 1546 417.862304688 1546 c 0,31,32
 538.862304688 1546 538.862304688 1546 580.127929688 1443.5 c 128,-1,33
 621.393554688 1341 621.393554688 1341 587.499023438 1127 c 0,34,35
 542.359375 842 542.359375 842 455.427734375 713 c 128,-1,36
 368.49609375 584 368.49609375 584 236.49609375 584 c 0,10,11
EndSplineSet
EndChar

StartChar: fraction
Encoding: 8260 8260 526
Width: 725
VWidth: 2430
GlyphClass: 1
Flags: HW
LayerCount: 2
Fore
SplineSet
40.5283203125 -104 m 1,0,-1
 -68.65234375 -42 l 1,1,-1
 735.166992188 1630 l 1,2,-1
 846.5546875 1563 l 1,3,-1
 40.5283203125 -104 l 1,0,-1
EndSplineSet
EndChar

StartChar: onehalf
Encoding: 189 189 527
Width: 713
VWidth: 2430
GlyphClass: 1
Flags: HW
LayerCount: 2
Fore
SplineSet
261.07421875 -170 m 1,0,-1
 276.596679688 -72 l 1,1,2
 368.65234375 42 368.65234375 42 424.873046875 116 c 128,-1,3
 481.092773438 190 481.092773438 190 512.12109375 247 c 128,-1,4
 543.1484375 304 543.1484375 304 553.126953125 367 c 0,5,6
 558.987304688 404 558.987304688 404 550.447265625 429 c 128,-1,7
 541.90625 454 541.90625 454 514.90625 454 c 0,8,9
 486.90625 454 486.90625 454 465.268554688 440.5 c 128,-1,10
 443.629882812 427 443.629882812 427 417.502929688 382 c 1,11,-1
 343.897460938 435 l 1,12,13
 382.192382812 500 382.192382812 500 429.02734375 540 c 128,-1,14
 475.86328125 580 475.86328125 580 538.86328125 580 c 0,15,16
 608.86328125 580 608.86328125 580 644.572265625 524.5 c 128,-1,17
 680.282226562 469 680.282226562 469 664.126953125 367 c 0,18,19
 652.248046875 292 652.248046875 292 624.086914062 231 c 128,-1,20
 595.92578125 170 595.92578125 170 550.2890625 106 c 128,-1,21
 504.65234375 42 504.65234375 42 437.713867188 -46 c 1,22,-1
 598.713867188 -46 l 1,23,-1
 579.07421875 -170 l 1,24,-1
 261.07421875 -170 l 1,0,-1
51.5283203125 -104 m 1,25,-1
 -41.65234375 -42 l 1,26,-1
 688.166992188 1630 l 1,27,-1
 782.5546875 1563 l 1,28,-1
 51.5283203125 -104 l 1,25,-1
149.188476562 923 m 1,29,-1
 240.1015625 1497 l 1,30,-1
 155.815429688 1451 l 1,31,-1
 149.5546875 1563 l 1,32,-1
 298.02734375 1667 l 1,33,-1
 382.02734375 1667 l 1,34,-1
 264.188476562 923 l 1,35,-1
 149.188476562 923 l 1,29,-1
EndSplineSet
EndChar

StartChar: onequarter
Encoding: 188 188 528
Width: 697
VWidth: 2430
GlyphClass: 1
Flags: HW
LayerCount: 2
Fore
SplineSet
377.373046875 116 m 1,0,-1
 458.373046875 116 l 1,1,-1
 487.040039062 297 l 1,2,-1
 377.373046875 116 l 1,0,-1
411.07421875 -170 m 1,3,-1
 437.208007812 -5 l 1,4,-1
 251.208007812 -5 l 1,5,-1
 267.838867188 100 l 1,6,-1
 557.75390625 573 l 1,7,-1
 635.75390625 573 l 1,8,-1
 563.373046875 116 l 1,9,-1
 616.373046875 116 l 1,10,-1
 597.208007812 -5 l 1,11,-1
 544.208007812 -5 l 1,12,-1
 518.07421875 -170 l 1,13,-1
 411.07421875 -170 l 1,3,-1
41.5283203125 -104 m 1,14,-1
 -49.65234375 -42 l 1,15,-1
 675.166992188 1630 l 1,16,-1
 768.5546875 1563 l 1,17,-1
 41.5283203125 -104 l 1,14,-1
140.188476562 923 m 1,18,-1
 231.1015625 1497 l 1,19,-1
 146.815429688 1451 l 1,20,-1
 141.5546875 1563 l 1,21,-1
 289.02734375 1667 l 1,22,-1
 372.02734375 1667 l 1,23,-1
 254.188476562 923 l 1,24,-1
 140.188476562 923 l 1,18,-1
EndSplineSet
EndChar

StartChar: threequarters
Encoding: 190 190 529
Width: 673
VWidth: 2430
GlyphClass: 1
Flags: HW
LayerCount: 2
Fore
SplineSet
439.373046875 116 m 1,0,-1
 468.040039062 297 l 1,1,-1
 361.373046875 116 l 1,2,-1
 439.373046875 116 l 1,0,-1
418.208007812 -5 m 1,3,-1
 238.208007812 -5 l 1,4,-1
 254.838867188 100 l 1,5,-1
 538.75390625 573 l 1,6,-1
 613.75390625 573 l 1,7,-1
 541.373046875 116 l 1,8,-1
 592.373046875 116 l 1,9,-1
 573.208007812 -5 l 1,10,-1
 522.208007812 -5 l 1,11,-1
 496.07421875 -170 l 1,12,-1
 392.07421875 -170 l 1,13,-1
 418.208007812 -5 l 1,3,-1
35.5283203125 -104 m 1,14,-1
 -52.65234375 -42 l 1,15,-1
 657.166992188 1630 l 1,16,-1
 747.5546875 1563 l 1,17,-1
 35.5283203125 -104 l 1,14,-1
168.288085938 911 m 0,18,19
 66.2880859375 911 66.2880859375 911 29.017578125 1004 c 1,20,-1
 99.2138671875 1081 l 1,21,-1
 114.588867188 1096 l 1,22,-1
 124.005859375 1086 l 1,23,24
 116.204101562 1062 116.204101562 1062 141.453125 1032 c 1,25,26
 156.02734375 1023 156.02734375 1023 178.02734375 1023 c 0,27,28
 206.02734375 1023 206.02734375 1023 227.56640625 1048.5 c 128,-1,29
 249.104492188 1074 249.104492188 1074 258.291015625 1132 c 0,30,31
 270.645507812 1210 270.645507812 1210 247.18359375 1235.5 c 128,-1,32
 229.842773438 1254.34765625 229.842773438 1254.34765625 192.854492188 1254.34765625 c 0,0,0
 179.799804688 1254.34765625 179.799804688 1254.34765625 164.296875 1252 c 1,33,-1
 182.353515625 1366 l 1,34,35
 186.2734375 1365.87890625 186.2734375 1365.87890625 190.043945312 1365.87890625 c 0,0,0
 248.485351562 1365.87890625 248.485351562 1365.87890625 270.946289062 1395 c 128,-1,36
 294.856445312 1426 294.856445312 1426 302.6171875 1475 c 0,37,38
 316.080078125 1560 316.080078125 1560 265.080078125 1560 c 0,39,40
 223.080078125 1560 223.080078125 1560 189.001953125 1509 c 1,41,-1
 129.772460938 1577 l 1,42,43
 163.533203125 1626 163.533203125 1626 206.333984375 1650 c 128,-1,44
 249.135742188 1674 249.135742188 1674 289.135742188 1674 c 0,45,46
 351.135742188 1674 351.135742188 1674 387.112304688 1626.5 c 128,-1,47
 423.088867188 1579 423.088867188 1579 408.04296875 1484 c 0,48,49
 398.380859375 1423 398.380859375 1423 372.149414062 1380.5 c 128,-1,50
 345.91796875 1338 345.91796875 1338 314.909179688 1319 c 1,51,52
 343.583007812 1298 343.583007812 1298 360.456054688 1253 c 128,-1,53
 377.328125 1208 377.328125 1208 364.499023438 1127 c 0,54,55
 348.34375 1025 348.34375 1025 294.31640625 968 c 128,-1,56
 240.288085938 911 240.288085938 911 168.288085938 911 c 0,18,19
EndSplineSet
EndChar

StartChar: uni2070.ss02
Encoding: 65566 -1 533
Width: 565
VWidth: 2430
GlyphClass: 1
Flags: HW
LayerCount: 2
Fore
SplineSet
301.877929688 719 m 0,0,1
 357.877929688 719 357.877929688 719 395.4453125 801.5 c 128,-1,2
 433.01171875 884 433.01171875 884 461.204101562 1062 c 0,3,4
 515.530273438 1405 515.530273438 1405 410.530273438 1405 c 0,5,6
 306.530273438 1405 306.530273438 1405 252.204101562 1062 c 0,7,8
 224.01171875 884 224.01171875 884 237.4453125 801.5 c 128,-1,9
 250.877929688 719 250.877929688 719 301.877929688 719 c 0,0,1
279.86328125 580 m 128,-1,11
 167.86328125 580 167.86328125 580 116.998046875 694.5 c 128,-1,12
 66.1328125 809 66.1328125 809 106.204101562 1062 c 0,13,14
 145.80078125 1312 145.80078125 1312 233.831054688 1429 c 128,-1,15
 321.862304688 1546 321.862304688 1546 432.862304688 1546 c 0,16,17
 544.862304688 1546 544.862304688 1546 595.831054688 1429 c 128,-1,18
 646.80078125 1312 646.80078125 1312 607.204101562 1062 c 0,19,20
 566.81640625 807 566.81640625 807 479.33984375 693.5 c 128,-1,10
 391.86328125 580 391.86328125 580 279.86328125 580 c 128,-1,11
EndSplineSet
EndChar

StartChar: uni2070.zero
Encoding: 65570 -1 537
Width: 565
VWidth: 2430
GlyphClass: 1
Flags: HW
LayerCount: 2
Fore
SplineSet
355.34375 1025 m 0,0,1
 325.34375 1025 325.34375 1025 309.432617188 1044.5 c 128,-1,2
 293.521484375 1064 293.521484375 1064 298.272460938 1094 c 128,-1,3
 303.024414062 1124 303.024414062 1124 326.19140625 1144 c 128,-1,4
 349.359375 1164 349.359375 1164 377.359375 1164 c 0,5,6
 404.359375 1164 404.359375 1164 421.033203125 1143 c 128,-1,7
 437.70703125 1122 437.70703125 1122 433.272460938 1094 c 0,8,9
 428.99609375 1067 428.99609375 1067 405.669921875 1046 c 128,-1,10
 382.34375 1025 382.34375 1025 355.34375 1025 c 0,0,1
301.877929688 719 m 0,11,12
 357.877929688 719 357.877929688 719 395.4453125 801.5 c 128,-1,13
 433.01171875 884 433.01171875 884 461.204101562 1062 c 0,14,15
 515.530273438 1405 515.530273438 1405 410.530273438 1405 c 0,16,17
 306.530273438 1405 306.530273438 1405 252.204101562 1062 c 0,18,19
 224.01171875 884 224.01171875 884 237.4453125 801.5 c 128,-1,20
 250.877929688 719 250.877929688 719 301.877929688 719 c 0,11,12
279.86328125 580 m 128,-1,22
 167.86328125 580 167.86328125 580 116.998046875 694.5 c 128,-1,23
 66.1328125 809 66.1328125 809 106.204101562 1062 c 0,24,25
 145.80078125 1312 145.80078125 1312 233.831054688 1429 c 128,-1,26
 321.862304688 1546 321.862304688 1546 432.862304688 1546 c 0,27,28
 544.862304688 1546 544.862304688 1546 595.831054688 1429 c 128,-1,29
 646.80078125 1312 646.80078125 1312 607.204101562 1062 c 0,30,31
 566.81640625 807 566.81640625 807 479.33984375 693.5 c 128,-1,21
 391.86328125 580 391.86328125 580 279.86328125 580 c 128,-1,22
EndSplineSet
EndChar

StartChar: period
Encoding: 46 46 538
Width: 354
VWidth: 2596
GlyphClass: 1
Flags: HW
LayerCount: 2
Fore
SplineSet
105.540039062 136 m 0,0,1
 44.5400390625 136 44.5400390625 136 9.0087890625 180 c 128,-1,2
 -26.521484375 224 -26.521484375 224 -16.5439453125 287 c 0,3,4
 -6.8818359375 348 -6.8818359375 348 42.5078125 391.5 c 128,-1,5
 91.8974609375 435 91.8974609375 435 152.897460938 435 c 0,6,7
 210.897460938 435 210.897460938 435 247.086914062 392 c 128,-1,8
 283.276367188 349 283.276367188 349 273.456054688 287 c 0,9,10
 263.478515625 224 263.478515625 224 213.508789062 180 c 128,-1,11
 163.540039062 136 163.540039062 136 105.540039062 136 c 0,0,1
EndSplineSet
EndChar

StartChar: comma
Encoding: 44 44 539
Width: 400
VWidth: 2596
GlyphClass: 1
Flags: HW
LayerCount: 2
Fore
SplineSet
25.1962890625 -245 m 1,0,-1
 -85.2822265625 -147 l 1,1,2
 -22.3046875 -84 -22.3046875 -84 19.2529296875 -20.5 c 128,-1,3
 60.810546875 43 60.810546875 43 67.9375 88 c 0,4,5
 73.3232421875 122 73.3232421875 122 58.7578125 150 c 128,-1,6
 44.1923828125 178 44.1923828125 178 28.9189453125 211 c 128,-1,7
 13.6455078125 244 13.6455078125 244 21.248046875 292 c 0,8,9
 32.3349609375 362 32.3349609375 362 81.6708984375 402 c 128,-1,10
 131.005859375 442 131.005859375 442 188.005859375 442 c 0,11,12
 253.005859375 442 253.005859375 442 290.745117188 393 c 128,-1,13
 328.484375 344 328.484375 344 313.12109375 247 c 0,14,15
 275.375976562 15 275.375976562 15 25.1962890625 -245 c 1,0,-1
EndSplineSet
EndChar

StartChar: colon
Encoding: 58 58 540
Width: 358
VWidth: 2705
GlyphClass: 1
Flags: HW
LayerCount: 2
Fore
SplineSet
122.803710938 245 m 0,0,1
 61.8037109375 245 61.8037109375 245 26.2734375 289 c 128,-1,2
 -9.2578125 333 -9.2578125 333 0.4033203125 394 c 128,-1,3
 10.064453125 455 10.064453125 455 61.3505859375 501 c 128,-1,4
 112.63671875 547 112.63671875 547 170.63671875 547 c 128,-1,5
 228.63671875 547 228.63671875 547 266.587890625 502.5 c 128,-1,6
 304.540039062 458 304.540039062 458 294.403320312 394 c 0,7,8
 285.216796875 336 285.216796875 336 235.510742188 290.5 c 128,-1,9
 185.803710938 245 185.803710938 245 122.803710938 245 c 0,0,1
244.6015625 1014 m 0,10,11
 186.6015625 1014 186.6015625 1014 149.650390625 1058.5 c 128,-1,12
 112.698242188 1103 112.698242188 1103 122.201171875 1163 c 0,13,14
 131.862304688 1224 131.862304688 1224 182.831054688 1268 c 128,-1,15
 233.80078125 1312 233.80078125 1312 291.80078125 1312 c 128,-1,16
 349.80078125 1312 349.80078125 1312 387.911132812 1268.5 c 128,-1,17
 426.020507812 1225 426.020507812 1225 416.201171875 1163 c 0,18,19
 407.014648438 1105 407.014648438 1105 356.30859375 1059.5 c 128,-1,20
 305.6015625 1014 305.6015625 1014 244.6015625 1014 c 0,10,11
EndSplineSet
EndChar

StartChar: semicolon
Encoding: 59 59 541
Width: 399
VWidth: 2705
GlyphClass: 1
Flags: HW
LayerCount: 2
Fore
SplineSet
39.4599609375 -136 m 1,0,-1
 -68.0185546875 -38 l 1,1,2
 -5.0400390625 25 -5.0400390625 25 36.5166015625 88.5 c 128,-1,3
 78.07421875 152 78.07421875 152 85.2021484375 197 c 0,4,5
 90.5869140625 231 90.5869140625 231 74.521484375 259 c 128,-1,6
 58.4560546875 287 58.4560546875 287 44.1826171875 320 c 128,-1,7
 29.91015625 353 29.91015625 353 37.51171875 401 c 0,8,9
 48.5986328125 471 48.5986328125 471 98.4345703125 511 c 128,-1,10
 148.26953125 551 148.26953125 551 204.26953125 551 c 0,11,12
 269.26953125 551 269.26953125 551 307.008789062 502 c 128,-1,13
 344.748046875 453 344.748046875 453 329.384765625 356 c 0,14,15
 291.639648438 124 291.639648438 124 39.4599609375 -136 c 1,0,-1
265.6015625 1014 m 0,16,17
 207.6015625 1014 207.6015625 1014 170.650390625 1058.5 c 128,-1,18
 133.698242188 1103 133.698242188 1103 143.201171875 1163 c 0,19,20
 152.862304688 1224 152.862304688 1224 203.831054688 1268 c 128,-1,21
 254.80078125 1312 254.80078125 1312 312.80078125 1312 c 128,-1,22
 370.80078125 1312 370.80078125 1312 409.411132812 1268.5 c 128,-1,23
 448.020507812 1225 448.020507812 1225 438.201171875 1163 c 0,24,25
 429.014648438 1105 429.014648438 1105 377.80859375 1059.5 c 128,-1,26
 326.6015625 1014 326.6015625 1014 265.6015625 1014 c 0,16,17
EndSplineSet
EndChar

StartChar: ellipsis
Encoding: 8230 8230 542
Width: 713
VWidth: 2430
GlyphClass: 1
Flags: HW
LayerCount: 2
Fore
SplineSet
0.19921875 -24 m 0,0,1
 -43.80078125 -24 -43.80078125 -24 -69.361328125 13.5 c 128,-1,2
 -94.9228515625 51 -94.9228515625 51 -86.052734375 107 c 0,3,4
 -77.658203125 160 -77.658203125 160 -40.1396484375 198 c 128,-1,5
 -2.62109375 236 -2.62109375 236 41.37890625 236 c 0,6,7
 83.37890625 236 83.37890625 236 108.360351562 198 c 128,-1,8
 133.341796875 160 133.341796875 160 124.947265625 107 c 0,9,10
 116.077148438 51 116.077148438 51 79.138671875 13.5 c 128,-1,11
 42.19921875 -24 42.19921875 -24 0.19921875 -24 c 0,0,1
245.19921875 -24 m 0,12,13
 201.19921875 -24 201.19921875 -24 176.138671875 13.5 c 128,-1,14
 151.077148438 51 151.077148438 51 159.947265625 107 c 0,15,16
 168.341796875 160 168.341796875 160 205.360351562 198 c 128,-1,17
 242.37890625 236 242.37890625 236 286.37890625 236 c 0,18,19
 328.37890625 236 328.37890625 236 353.860351562 198 c 128,-1,20
 379.341796875 160 379.341796875 160 370.947265625 107 c 0,21,22
 362.077148438 51 362.077148438 51 324.638671875 13.5 c 128,-1,23
 287.19921875 -24 287.19921875 -24 245.19921875 -24 c 0,12,13
493.19921875 -24 m 128,-1,25
 449.19921875 -24 449.19921875 -24 425.138671875 13.5 c 128,-1,26
 401.077148438 51 401.077148438 51 409.947265625 107 c 0,27,28
 418.341796875 160 418.341796875 160 454.360351562 198 c 128,-1,29
 490.37890625 236 490.37890625 236 534.37890625 236 c 128,-1,30
 578.37890625 236 578.37890625 236 602.360351562 198 c 128,-1,31
 626.341796875 160 626.341796875 160 617.947265625 107 c 0,32,33
 609.077148438 51 609.077148438 51 573.138671875 13.5 c 128,-1,24
 537.19921875 -24 537.19921875 -24 493.19921875 -24 c 128,-1,25
EndSplineSet
EndChar

StartChar: exclam
Encoding: 33 33 543
Width: 361
VWidth: 2430
GlyphClass: 1
Flags: HW
LayerCount: 2
Fore
SplineSet
81.7236328125 -27 m 128,-1,1
 20.7236328125 -27 20.7236328125 -27 -15.8076171875 17 c 128,-1,2
 -52.3388671875 61 -52.3388671875 61 -42.8359375 121 c 0,3,4
 -33.173828125 182 -33.173828125 182 17.953125 227 c 128,-1,5
 69.0810546875 272 69.0810546875 272 129.081054688 272 c 0,6,7
 190.081054688 272 190.081054688 272 226.794921875 226 c 128,-1,8
 263.508789062 180 263.508789062 180 254.1640625 121 c 0,9,10
 244.502929688 60 244.502929688 60 193.61328125 16.5 c 128,-1,0
 142.723632812 -27 142.723632812 -27 81.7236328125 -27 c 128,-1,1
88.974609375 486 m 1,11,-1
 180.70703125 1444 l 2,12,13
 181.34375 1448.67578125 181.34375 1448.67578125 182.065429688 1453.23144531 c 0,14,15
 195.236328125 1536.38964844 195.236328125 1536.38964844 236.747070312 1580 c 0,16,17
 280.533203125 1626 280.533203125 1626 339.533203125 1626 c 0,18,19
 395.533203125 1626 395.533203125 1626 427.16796875 1579.5 c 0,20,21
 456.543945312 1536.32128906 456.543945312 1536.32128906 441.442382812 1440.9765625 c 0,22,23
 440.28125 1433.64257812 440.28125 1433.64257812 438.856445312 1426 c 1,24,-1
 225.974609375 486 l 1,25,-1
 88.974609375 486 l 1,11,-1
EndSplineSet
EndChar

StartChar: question
Encoding: 63 63 545
Width: 725
VWidth: 2430
GlyphClass: 1
Flags: HW
LayerCount: 2
Fore
SplineSet
288.248046875 -30 m 0,0,1
 227.248046875 -30 227.248046875 -30 191.717773438 14 c 128,-1,2
 156.186523438 58 156.186523438 58 166.1640625 121 c 0,3,4
 175.826171875 182 175.826171875 182 225.215820312 225.5 c 128,-1,5
 274.60546875 269 274.60546875 269 335.60546875 269 c 0,6,7
 393.60546875 269 393.60546875 269 429.294921875 226 c 128,-1,8
 464.984375 183 464.984375 183 455.1640625 121 c 0,9,10
 445.186523438 58 445.186523438 58 395.717773438 14 c 128,-1,11
 346.248046875 -30 346.248046875 -30 288.248046875 -30 c 0,0,1
281.853515625 561 m 2,12,13
 298.325195312 665 298.325195312 665 331.571289062 736 c 128,-1,14
 364.81640625 807 364.81640625 807 403.790039062 860.5 c 128,-1,15
 442.763671875 914 442.763671875 914 481.4453125 962.5 c 128,-1,16
 520.126953125 1011 520.126953125 1011 551.8671875 1072.5 c 128,-1,17
 583.608398438 1134 583.608398438 1134 598.337890625 1227 c 0,18,19
 612.592773438 1317 612.592773438 1317 582.328125 1369 c 128,-1,20
 552.064453125 1421 552.064453125 1421 488.064453125 1421 c 0,21,22
 407.064453125 1421 407.064453125 1421 338.66015625 1349 c 1,23,24
 314.275390625 1315 314.275390625 1315 306.50390625 1297.5 c 128,-1,25
 298.732421875 1280 298.732421875 1280 300.72265625 1261 c 1,26,-1
 288.188476562 1245 l 1,27,-1
 271.088867188 1257 l 1,28,-1
 154.353515625 1366 l 1,29,30
 229.517578125 1487 229.517578125 1487 326.629882812 1554 c 128,-1,31
 423.741210938 1621 423.741210938 1621 544.741210938 1621 c 0,32,33
 685.741210938 1621 685.741210938 1621 754.190429688 1516.5 c 128,-1,34
 822.638671875 1412 822.638671875 1412 792.545898438 1222 c 0,35,36
 774.806640625 1110 774.806640625 1110 741.32421875 1037.5 c 128,-1,37
 707.840820312 965 707.840820312 965 668.025390625 912.5 c 128,-1,38
 628.2109375 860 628.2109375 860 588.1875 812.5 c 128,-1,39
 548.1640625 765 548.1640625 765 516.977539062 707 c 128,-1,40
 485.791015625 649 485.791015625 649 471.853515625 561 c 2,41,-1
 454.58984375 452 l 1,42,-1
 264.58984375 452 l 1,43,-1
 281.853515625 561 l 2,12,13
EndSplineSet
EndChar

StartChar: periodcentered
Encoding: 183 183 547
Width: 356
VWidth: 2430
GlyphClass: 1
Flags: HW
LayerCount: 2
Fore
SplineSet
189.008789062 663 m 128,-1,1
 128.008789062 663 128.008789062 663 92.4775390625 707 c 128,-1,2
 56.9462890625 751 56.9462890625 751 66.6083984375 812 c 128,-1,3
 76.26953125 873 76.26953125 873 125.659179688 916.5 c 128,-1,4
 175.048828125 960 175.048828125 960 236.048828125 960 c 0,5,6
 294.048828125 960 294.048828125 960 331.080078125 916 c 128,-1,7
 368.111328125 872 368.111328125 872 358.608398438 812 c 0,8,9
 348.946289062 751 348.946289062 751 299.477539062 707 c 128,-1,0
 250.008789062 663 250.008789062 663 189.008789062 663 c 128,-1,1
EndSplineSet
Substitution2: "Single Substitution lookup 11 subtable" periodcentered.loclCAT
Substitution2: "Single Substitution lookup 10 subtable" periodcentered.loclCAT
Substitution2: "'aalt' Access All Alternates in Latin lookup 0 subtable" periodcentered.loclCAT
EndChar

StartChar: bullet
Encoding: 8226 8226 548
Width: 483
VWidth: 2430
GlyphClass: 1
Flags: HW
LayerCount: 2
Fore
SplineSet
226.984375 505 m 0,0,1
 138.984375 505 138.984375 505 88.4619140625 568 c 128,-1,2
 37.9404296875 631 37.9404296875 631 51.5615234375 717 c 0,3,4
 65.81640625 807 65.81640625 807 139.056640625 868.5 c 128,-1,5
 212.297851562 930 212.297851562 930 294.297851562 930 c 0,6,7
 379.297851562 930 379.297851562 930 431.819335938 867 c 128,-1,8
 484.340820312 804 484.340820312 804 470.561523438 717 c 0,9,10
 457.098632812 632 457.098632812 632 384.541992188 568.5 c 128,-1,11
 311.984375 505 311.984375 505 226.984375 505 c 0,0,1
EndSplineSet
EndChar

StartChar: asterisk
Encoding: 42 42 549
Width: 768
VWidth: 2430
GlyphClass: 1
Flags: HW
LayerCount: 2
Fore
SplineSet
182.2890625 267 m 1,0,-1
 45.521484375 420 l 1,1,-1
 299.055664062 758 l 1,2,-1
 72.78515625 851 l 1,3,-1
 178.48046875 1089 l 1,4,-1
 365.297851562 930 l 1,5,-1
 392.592773438 1317 l 1,6,-1
 615.592773438 1317 l 1,7,-1
 513.297851562 930 l 1,8,-1
 747.421875 1076 l 1,9,-1
 776.309570312 848 l 1,10,-1
 514.055664062 758 l 1,11,-1
 658.837890625 422 l 1,12,-1
 474.2890625 267 l 1,13,-1
 385.723632812 617 l 1,14,-1
 182.2890625 267 l 1,0,-1
EndSplineSet
Substitution2: "'ss01' Style Set 1 in Latin lookup 35 subtable" asterisk.ss01
Substitution2: "'salt' Stylistic Alternatives in Latin lookup 34 subtable" asterisk.ss01
Substitution2: "'aalt' Access All Alternates in Latin lookup 0 subtable" asterisk.ss01
EndChar

StartChar: uni2E12
Encoding: 11794 11794 550
Width: 291
VWidth: 2194
GlyphClass: 1
Flags: HW
LayerCount: 2
Fore
SplineSet
-100.962890625 -246 m 1,0,-1
 -78.7890625 -106 l 1,1,2
 -31.7890625 -106 -31.7890625 -106 1.259765625 -61.5 c 128,-1,3
 34.3076171875 -17 34.3076171875 -17 44.7607421875 49 c 0,4,5
 54.8974609375 113 54.8974609375 113 37.841796875 160 c 128,-1,6
 20.78515625 207 20.78515625 207 -29.21484375 207 c 1,7,-1
 -7.673828125 343 l 1,8,9
 93.326171875 343 93.326171875 343 144.684570312 269.5 c 128,-1,10
 196.04296875 196 196.04296875 196 172.444335938 47 c 0,11,12
 149.63671875 -97 149.63671875 -97 74.8369140625 -171.5 c 128,-1,13
 0.037109375 -246 0.037109375 -246 -100.962890625 -246 c 1,0,-1
EndSplineSet
EndChar

StartChar: numbersign
Encoding: 35 35 551
Width: 751
VWidth: 2430
GlyphClass: 1
Flags: HW
LayerCount: 2
Fore
SplineSet
304.505859375 603 m 1,0,-1
 424.505859375 603 l 1,1,-1
 508.256835938 955 l 1,2,-1
 386.256835938 955 l 1,3,-1
 304.505859375 603 l 1,0,-1
289.326171875 21 m 1,4,-1
 388.580078125 433 l 1,5,-1
 267.580078125 433 l 1,6,-1
 171.384765625 34 l 1,7,-1
 23.068359375 32 l 1,8,-1
 115.629882812 427 l 1,9,-1
 -3.3701171875 427 l 1,10,-1
 29.7138671875 598 l 1,11,-1
 154.713867188 598 l 1,12,-1
 237.940429688 953 l 1,13,-1
 100.940429688 953 l 1,14,-1
 132.182617188 1125 l 1,15,-1
 274.182617188 1125 l 1,16,-1
 367.110351562 1516 l 1,17,-1
 518.90234375 1521 l 1,18,-1
 424.974609375 1130 l 1,19,-1
 546.974609375 1130 l 1,20,-1
 637.477539062 1512 l 1,21,-1
 791.793945312 1514 l 1,22,-1
 702.608398438 1134 l 1,23,-1
 812.608398438 1134 l 1,24,-1
 772.048828125 960 l 1,25,-1
 666.048828125 960 l 1,26,-1
 579.614257812 610 l 1,27,-1
 704.614257812 610 l 1,28,-1
 667.689453125 440 l 1,29,-1
 544.689453125 440 l 1,30,-1
 447.384765625 34 l 1,31,-1
 289.326171875 21 l 1,4,-1
EndSplineSet
EndChar

StartChar: slash
Encoding: 47 47 552
Width: 763
VWidth: 2430
GlyphClass: 1
Flags: HW
LayerCount: 2
Fore
SplineSet
119.844726562 -102 m 1,0,-1
 -67.068359375 -32 l 1,1,-1
 694.265625 1618 l 1,2,-1
 880.120117188 1535 l 1,3,-1
 119.844726562 -102 l 1,0,-1
EndSplineSet
Substitution2: "'frac' Diagonal Fractions in Latin lookup 23 subtable" fraction
Substitution2: "'aalt' Access All Alternates in Latin lookup 0 subtable" fraction
EndChar

StartChar: backslash
Encoding: 92 92 553
Width: 765
VWidth: 2430
GlyphClass: 1
Flags: HW
LayerCount: 2
Fore
SplineSet
423.528320312 -104 m 1,0,-1
 181.595703125 1538 l 1,1,-1
 391.94921875 1616 l 1,2,-1
 633.931640625 -32 l 1,3,-1
 423.528320312 -104 l 1,0,-1
EndSplineSet
EndChar

StartChar: asterisk.ss01
Encoding: 65572 -1 555
Width: 768
VWidth: 2430
GlyphClass: 1
Flags: HW
LayerCount: 2
Fore
SplineSet
205.413085938 413 m 1,0,-1
 68.6455078125 566 l 1,1,-1
 322.1796875 904 l 1,2,-1
 95.9091796875 997 l 1,3,-1
 201.446289062 1234 l 1,4,-1
 388.421875 1076 l 1,5,-1
 415.716796875 1463 l 1,6,-1
 638.716796875 1463 l 1,7,-1
 536.421875 1076 l 1,8,-1
 770.545898438 1222 l 1,9,-1
 799.434570312 994 l 1,10,-1
 537.1796875 904 l 1,11,-1
 681.961914062 568 l 1,12,-1
 497.413085938 413 l 1,13,-1
 408.84765625 763 l 1,14,-1
 205.413085938 413 l 1,0,-1
EndSplineSet
EndChar

StartChar: parenleft
Encoding: 40 40 556
Width: 646
VWidth: 2435
GlyphClass: 1
Flags: HW
LayerCount: 2
Fore
SplineSet
394.037109375 -246 m 1,0,1
 256.400390625 -149 256.400390625 -149 169.7421875 11 c 128,-1,2
 83.083984375 171 83.083984375 171 55.7607421875 371 c 128,-1,3
 28.4375 571 28.4375 571 62.6484375 787 c 128,-1,4
 96.859375 1003 96.859375 1003 185.744140625 1198 c 128,-1,5
 274.629882812 1393 274.629882812 1393 408.520507812 1547 c 128,-1,6
 542.412109375 1701 542.412109375 1701 708.93359375 1799 c 1,7,-1
 769.682617188 1608 l 1,8,9
 584.725585938 1482 584.725585938 1482 450.569335938 1269.5 c 128,-1,10
 316.412109375 1057 316.412109375 1057 272.856445312 782 c 0,11,12
 244.34765625 602 244.34765625 602 263.689453125 440 c 128,-1,13
 283.03125 278 283.03125 278 345.782226562 147 c 128,-1,14
 408.534179688 16 408.534179688 16 508.913085938 -70 c 1,15,-1
 394.037109375 -246 l 1,0,1
EndSplineSet
EndChar

StartChar: parenright
Encoding: 41 41 557
Width: 647
VWidth: 2435
GlyphClass: 1
Flags: HW
LayerCount: 2
Fore
SplineSet
-12.962890625 -246 m 1,0,1
 155.400390625 -149 155.400390625 -149 291.7421875 11 c 0,2,3
 428.083984375 171 428.083984375 171 518.760742188 371 c 0,4,5
 609.4375 571 609.4375 571 645.6484375 787 c 0,6,7
 679.859375 1003 679.859375 1003 651.744140625 1198 c 0,8,9
 624.629882812 1393 624.629882812 1393 540.020507812 1547 c 0,10,11
 455.412109375 1701 455.412109375 1701 319.93359375 1799 c 1,12,-1
 197.682617188 1608 l 1,13,14
 342.725585938 1482 342.725585938 1482 408.990234375 1269 c 0,15,16
 476.412109375 1057 476.412109375 1057 432.856445312 782 c 0,17,18
 404.34765625 602 404.34765625 602 333.689453125 440 c 0,19,20
 263.03125 278 263.03125 278 159.282226562 147 c 0,21,22
 54.5341796875 16 54.5341796875 16 -73.0869140625 -70 c 1,23,-1
 -12.962890625 -246 l 1,0,1
EndSplineSet
EndChar

StartChar: braceleft
Encoding: 123 123 558
Width: 715
VWidth: 2475
GlyphClass: 1
Flags: HW
LayerCount: 2
Fore
SplineSet
487.124023438 -176 m 2,0,1
 366.124023438 -176 366.124023438 -176 280.405273438 -139.5 c 128,-1,2
 194.686523438 -103 194.686523438 -103 158.495117188 -9.5 c 128,-1,3
 125.53515625 75.6513671875 125.53515625 75.6513671875 149.071289062 224.252929688 c 0,0,0
 151.37890625 238.821289062 151.37890625 238.821289062 154.229492188 254 c 2,4,-1
 195.608398438 490 l 2,5,6
 211.447265625 590 211.447265625 590 203.287109375 639.5 c 128,-1,7
 195.126953125 689 195.126953125 689 168.58203125 704.5 c 128,-1,8
 142.037109375 720 142.037109375 720 98.037109375 720 c 2,9,-1
 52.037109375 720 l 1,10,-1
 84.0302734375 922 l 1,11,-1
 130.030273438 922 l 2,12,13
 198.030273438 922 198.030273438 922 240.81640625 968 c 128,-1,14
 283.6015625 1014 283.6015625 1014 304.19140625 1144 c 2,15,-1
 328.967773438 1332 l 1,16,17
 362.38671875 1543 362.38671875 1543 477.913085938 1650.5 c 128,-1,18
 593.439453125 1758 593.439453125 1758 749.439453125 1758 c 2,19,-1
 867.439453125 1758 l 1,20,-1
 837.504882812 1569 l 1,21,-1
 709.504882812 1569 l 2,22,23
 646.504882812 1569 646.504882812 1569 602.690429688 1516.5 c 128,-1,24
 558.875 1464 558.875 1464 541.927734375 1357 c 2,25,-1
 516.1015625 1175 l 2,26,27
 495.669921875 1046 495.669921875 1046 442.57421875 957 c 128,-1,28
 389.477539062 868 389.477539062 868 314.192382812 822 c 1,29,30
 372.540039062 780 372.540039062 780 397.206054688 689.5 c 128,-1,31
 421.872070312 599 421.872070312 599 398.748046875 453 c 2,32,-1
 362.546875 256 l 1,33,34
 343.323242188 122 343.323242188 122 375.532226562 66.5 c 128,-1,35
 407.7421875 11 407.7421875 11 493.7421875 11 c 2,36,-1
 588.7421875 11 l 1,37,-1
 559.124023438 -176 l 1,38,-1
 487.124023438 -176 l 2,0,1
EndSplineSet
EndChar

StartChar: braceright
Encoding: 125 125 559
Width: 715
VWidth: 2475
GlyphClass: 1
Flags: HW
LayerCount: 2
Fore
SplineSet
-14.8759765625 -176 m 2,0,1
 106.124023438 -176 106.124023438 -176 203.826171875 -140 c 0,2,3
 300.686523438 -103 300.686523438 -103 366.416015625 -10 c 0,4,5
 426.421875 75.607421875 426.421875 75.607421875 449.963867188 224.249023438 c 0,0,0
 452.272460938 238.821289062 452.272460938 238.821289062 454.229492188 254 c 2,1,-1
 486.608398438 490 l 2,2,3
 502.447265625 590 502.447265625 590 525.208007812 639 c 0,4,5
 548.126953125 689 548.126953125 689 581.661132812 705 c 0,6,7
 614.037109375 720 614.037109375 720 657.037109375 720 c 2,8,-1
 703.037109375 720 l 1,9,-1
 735.030273438 922 l 1,10,-1
 689.030273438 922 l 2,11,12
 621.030273438 922 621.030273438 922 593.31640625 968 c 0,13,14
 564.6015625 1014 564.6015625 1014 585.19140625 1144 c 2,15,-1
 619.967773438 1332 l 1,16,17
 653.38671875 1543 653.38671875 1543 572.651367188 1652 c 0,18,19
 492.348632812 1758.00878906 492.348632812 1758.00878906 338.325195312 1758.00878906 c 0,0,0
 336.885742188 1758.00878906 336.885742188 1758.00878906 335.439453125 1758 c 2,1,-1
 216.439453125 1758 l 1,2,-1
 186.504882812 1569 l 1,3,-1
 314.504882812 1569 l 2,4,5
 377.504882812 1569 377.504882812 1569 405.110351562 1516 c 0,6,7
 432.124023438 1465.40527344 432.124023438 1465.40527344 415.864257812 1362.74316406 c 0,0,0
 415.413085938 1359.89160156 415.413085938 1359.89160156 414.927734375 1357 c 2,1,-1
 384.1015625 1175 l 2,2,3
 363.669921875 1046 363.669921875 1046 388.57421875 957 c 0,4,5
 413.477539062 868 413.477539062 868 474.192382812 822 c 1,6,7
 402.540039062 780 402.540039062 780 348.28515625 690 c 0,8,9
 294.872070312 599 294.872070312 599 271.748046875 453 c 2,10,-1
 245.546875 256 l 1,11,12
 222.323242188 122 222.323242188 122 172.453125 66 c 0,13,14
 124.44140625 10.982421875 124.44140625 10.982421875 39.77734375 10.982421875 c 0,0,0
 38.265625 10.982421875 38.265625 10.982421875 36.7421875 11 c 2,1,-1
 -58.2578125 11 l 1,2,-1
 -87.8759765625 -176 l 1,3,-1
 -14.8759765625 -176 l 2,0,1
EndSplineSet
EndChar

StartChar: bracketleft
Encoding: 91 91 560
Width: 605
VWidth: 2505
GlyphClass: 1
Flags: HW
LayerCount: 2
Fore
SplineSet
-84.33203125 -141 m 1,0,-1
 207.728515625 1703 l 1,1,-1
 746.728515625 1703 l 1,2,-1
 713.943359375 1496 l 1,3,-1
 380.943359375 1496 l 1,4,-1
 153.186523438 58 l 1,5,-1
 488.186523438 58 l 1,6,-1
 456.66796875 -141 l 1,7,-1
 -84.33203125 -141 l 1,0,-1
EndSplineSet
EndChar

StartChar: bracketright
Encoding: 93 93 561
Width: 606
VWidth: 2505
GlyphClass: 1
Flags: HW
LayerCount: 2
Fore
SplineSet
457.66796875 -141 m 1,0,-1
 749.728515625 1703 l 1,1,-1
 211.728515625 1703 l 1,2,-1
 178.943359375 1496 l 1,3,-1
 510.943359375 1496 l 1,4,-1
 283.186523438 58 l 1,5,-1
 -52.8134765625 58 l 1,6,-1
 -84.33203125 -141 l 1,7,-1
 457.66796875 -141 l 1,0,-1
EndSplineSet
EndChar

StartChar: hyphen
Encoding: 45 45 562
Width: 564
VWidth: 2430
GlyphClass: 1
Flags: HW
LayerCount: 2
Fore
SplineSet
44.1171875 670 m 1,0,-1
 76.9033203125 877 l 1,1,-1
 576.903320312 877 l 1,2,-1
 544.1171875 670 l 1,3,-1
 44.1171875 670 l 1,0,-1
EndSplineSet
EndChar

StartChar: endash
Encoding: 8211 8211 564
Width: 701
VWidth: 2430
GlyphClass: 1
Flags: HW
LayerCount: 2
Fore
SplineSet
44.1171875 670 m 1,0,-1
 76.9033203125 877 l 1,1,-1
 713.903320312 877 l 1,2,-1
 681.1171875 670 l 1,3,-1
 44.1171875 670 l 1,0,-1
EndSplineSet
EndChar

StartChar: emdash
Encoding: 8212 8212 565
Width: 713
VWidth: 2430
GlyphClass: 1
Flags: HW
LayerCount: 2
Fore
SplineSet
8.1171875 670 m 1,0,-1
 40.9033203125 877 l 1,1,-1
 744.903320312 877 l 1,2,-1
 712.1171875 670 l 1,3,-1
 8.1171875 670 l 1,0,-1
EndSplineSet
EndChar

StartChar: underscore
Encoding: 95 95 569
Width: 768
VWidth: 2430
GlyphClass: 1
Flags: HW
LayerCount: 2
Fore
SplineSet
-100.170898438 -241 m 1,0,-1
 -68.1767578125 -39 l 1,1,-1
 635.823242188 -39 l 1,2,-1
 603.829101562 -241 l 1,3,-1
 -100.170898438 -241 l 1,0,-1
EndSplineSet
EndChar

StartChar: quotedblleft
Encoding: 8220 8220 572
Width: 749
VWidth: 2430
GlyphClass: 1
Flags: HW
LayerCount: 2
Fore
SplineSet
394.080078125 1560 m 1,0,-1
 492.716796875 1463 l 1,1,2
 431.73828125 1400 431.73828125 1400 387.522460938 1335.5 c 128,-1,3
 343.306640625 1271 343.306640625 1271 333.645507812 1210 c 0,4,5
 327.78515625 1173 327.78515625 1173 344.983398438 1149 c 128,-1,6
 362.182617188 1125 362.182617188 1125 376.748046875 1097 c 128,-1,7
 391.3125 1069 391.3125 1069 384.02734375 1023 c 0,8,9
 373.732421875 958 373.732421875 958 327.921875 915 c 128,-1,10
 282.111328125 872 282.111328125 872 224.111328125 872 c 0,11,12
 168.111328125 872 168.111328125 872 129.79296875 920.5 c 128,-1,13
 91.474609375 969 91.474609375 969 105.095703125 1055 c 0,14,15
 122.834960938 1167 122.834960938 1167 193.236328125 1289.5 c 128,-1,16
 263.638671875 1412 263.638671875 1412 394.080078125 1560 c 1,0,-1
756.080078125 1560 m 1,17,-1
 854.716796875 1463 l 1,18,19
 793.73828125 1400 793.73828125 1400 749.522460938 1335.5 c 128,-1,20
 705.306640625 1271 705.306640625 1271 695.645507812 1210 c 0,21,22
 689.78515625 1173 689.78515625 1173 706.983398438 1149 c 128,-1,23
 724.182617188 1125 724.182617188 1125 738.248046875 1097 c 128,-1,24
 752.3125 1069 752.3125 1069 745.02734375 1023 c 0,25,26
 734.732421875 958 734.732421875 958 689.421875 915 c 128,-1,27
 644.111328125 872 644.111328125 872 586.111328125 872 c 0,28,29
 530.111328125 872 530.111328125 872 491.79296875 920.5 c 128,-1,30
 453.474609375 969 453.474609375 969 467.095703125 1055 c 0,31,32
 484.834960938 1167 484.834960938 1167 555.236328125 1289.5 c 128,-1,33
 625.638671875 1412 625.638671875 1412 756.080078125 1560 c 1,17,-1
EndSplineSet
EndChar

StartChar: quoteleft
Encoding: 8216 8216 574
Width: 400
VWidth: 2430
GlyphClass: 1
Flags: HW
LayerCount: 2
Fore
SplineSet
401.080078125 1560 m 1,0,-1
 505.716796875 1463 l 1,1,2
 442.73828125 1400 442.73828125 1400 396.522460938 1335.5 c 128,-1,3
 350.306640625 1271 350.306640625 1271 340.645507812 1210 c 0,4,5
 334.78515625 1173 334.78515625 1173 351.983398438 1149 c 128,-1,6
 369.182617188 1125 369.182617188 1125 385.248046875 1097 c 128,-1,7
 401.3125 1069 401.3125 1069 394.02734375 1023 c 0,8,9
 383.732421875 958 383.732421875 958 336.921875 915 c 128,-1,10
 290.111328125 872 290.111328125 872 229.111328125 872 c 0,11,12
 171.111328125 872 171.111328125 872 131.29296875 920.5 c 128,-1,13
 91.474609375 969 91.474609375 969 105.095703125 1055 c 0,14,15
 122.834960938 1167 122.834960938 1167 194.236328125 1289.5 c 128,-1,16
 265.638671875 1412 265.638671875 1412 401.080078125 1560 c 1,0,-1
EndSplineSet
EndChar

StartChar: quoteright
Encoding: 8217 8217 575
Width: 400
VWidth: 2430
GlyphClass: 1
Flags: HW
LayerCount: 2
Fore
SplineSet
196.111328125 872 m 1,0,-1
 91.474609375 969 l 1,1,2
 154.453125 1032 154.453125 1032 199.248046875 1097 c 128,-1,3
 244.04296875 1162 244.04296875 1162 253.229492188 1220 c 0,4,5
 259.40625 1259 259.40625 1259 242.786132812 1283.5 c 128,-1,6
 226.166992188 1308 226.166992188 1308 211.022460938 1335.5 c 128,-1,7
 195.877929688 1363 195.877929688 1363 203.322265625 1410 c 0,8,9
 213.6171875 1475 213.6171875 1475 260.348632812 1517.5 c 128,-1,10
 307.080078125 1560 307.080078125 1560 365.080078125 1560 c 128,-1,11
 423.080078125 1560 423.080078125 1560 464.3984375 1511.5 c 128,-1,12
 505.716796875 1463 505.716796875 1463 492.25390625 1378 c 0,13,14
 474.514648438 1266 474.514648438 1266 403.033203125 1143 c 128,-1,15
 331.551757812 1020 331.551757812 1020 196.111328125 872 c 1,0,-1
EndSplineSet
EndChar

StartChar: guillemotleft
Encoding: 171 171 576
Width: 764
VWidth: 2430
GlyphClass: 1
Flags: HW
LayerCount: 2
Fore
SplineSet
541.055664062 114 m 1,0,-1
 329.427734375 552 l 1,1,-1
 341.940429688 631 l 1,2,-1
 676.918945312 1016 l 1,3,-1
 763.903320312 877 l 1,4,-1
 507.288085938 589 l 1,5,-1
 676.487304688 243 l 1,6,-1
 541.055664062 114 l 1,0,-1
240.055664062 114 m 1,7,-1
 25.427734375 552 l 1,8,-1
 37.9404296875 631 l 1,9,-1
 377.918945312 1016 l 1,10,-1
 457.01171875 884 l 1,11,-1
 208.288085938 589 l 1,12,-1
 369.170898438 241 l 1,13,-1
 240.055664062 114 l 1,7,-1
EndSplineSet
EndChar

StartChar: guilsinglleft
Encoding: 8249 8249 578
Width: 477
VWidth: 2430
GlyphClass: 1
Flags: HW
LayerCount: 2
Fore
SplineSet
236.471679688 104 m 1,0,-1
 23.8447265625 542 l 1,1,-1
 36.83203125 624 l 1,2,-1
 376.126953125 1011 l 1,3,-1
 479.577148438 856 l 1,4,-1
 238.86328125 580 l 1,5,-1
 392.1796875 260 l 1,6,-1
 236.471679688 104 l 1,0,-1
EndSplineSet
EndChar

StartChar: guilsinglright
Encoding: 8250 8250 579
Width: 477
VWidth: 2430
GlyphClass: 1
Flags: HW
LayerCount: 2
Fore
SplineSet
82.4716796875 104 m 1,0,-1
 -20.8203125 260 l 1,1,-1
 233.86328125 580 l 1,2,-1
 80.5771484375 856 l 1,3,-1
 232.126953125 1011 l 1,4,-1
 449.83203125 624 l 1,5,-1
 436.844726562 542 l 1,6,-1
 82.4716796875 104 l 1,0,-1
EndSplineSet
EndChar

StartChar: quotedbl
Encoding: 34 34 580
Width: 559
VWidth: 2430
GlyphClass: 1
Flags: HW
LayerCount: 2
Fore
SplineSet
193.94921875 1616 m 1,0,-1
 391.94921875 1616 l 1,1,2
 368.825195312 1470 368.825195312 1470 352.887695312 1382 c 0,3,4
 336.94921875 1294 336.94921875 1294 320.604492188 1235 c 0,5,6
 305.259765625 1176 305.259765625 1176 291.548828125 1121 c 0,7,8
 276.837890625 1066 276.837890625 1066 254.80078125 990 c 1,9,-1
 132.80078125 990 l 1,10,11
 136.154296875 1068 136.154296875 1068 138.548828125 1121 c 0,12,13
 141.259765625 1176 141.259765625 1176 144.446289062 1234 c 0,14,15
 147.6328125 1292 147.6328125 1292 158.728515625 1381 c 0,16,17
 170.825195312 1470 170.825195312 1470 193.94921875 1616 c 1,0,-1
488.94921875 1616 m 1,18,-1
 688.94921875 1616 l 1,19,20
 665.825195312 1470 665.825195312 1470 648.887695312 1382 c 0,21,22
 632.94921875 1294 632.94921875 1294 617.604492188 1235 c 0,23,24
 602.259765625 1176 602.259765625 1176 587.548828125 1121 c 0,25,26
 572.837890625 1066 572.837890625 1066 551.80078125 990 c 1,27,-1
 429.80078125 990 l 1,28,29
 433.154296875 1068 433.154296875 1068 434.548828125 1121 c 0,30,31
 437.259765625 1176 437.259765625 1176 440.446289062 1234 c 0,32,33
 443.6328125 1292 443.6328125 1292 454.728515625 1381 c 0,34,35
 465.825195312 1470 465.825195312 1470 488.94921875 1616 c 1,18,-1
EndSplineSet
Substitution2: "'ss03' Style Set 3 in Latin lookup 37 subtable" quotedbl.ss03
Substitution2: "'aalt' Access All Alternates in Latin lookup 0 subtable" quotedbl.ss03
EndChar

StartChar: quotesingle
Encoding: 39 39 581
Width: 263
VWidth: 2430
GlyphClass: 1
Flags: HW
LayerCount: 2
Fore
SplineSet
193.94921875 1616 m 1,0,-1
 392.94921875 1616 l 1,1,2
 369.825195312 1470 369.825195312 1470 354.045898438 1383 c 128,-1,3
 338.266601562 1296 338.266601562 1296 322.762695312 1236 c 128,-1,4
 307.259765625 1176 307.259765625 1176 292.627929688 1121.5 c 128,-1,5
 277.99609375 1067 277.99609375 1067 255.80078125 990 c 1,6,-1
 133.80078125 990 l 1,7,8
 137.154296875 1068 137.154296875 1068 139.70703125 1122 c 128,-1,9
 142.259765625 1176 142.259765625 1176 145.525390625 1234.5 c 128,-1,10
 148.791015625 1293 148.791015625 1293 159.807617188 1381.5 c 128,-1,11
 170.825195312 1470 170.825195312 1470 193.94921875 1616 c 1,0,-1
EndSplineSet
Substitution2: "'ss03' Style Set 3 in Latin lookup 37 subtable" quotesingle.ss03
Substitution2: "'aalt' Access All Alternates in Latin lookup 0 subtable" quotesingle.ss03
EndChar

StartChar: quotesingle.ss03
Encoding: 65574 -1 583
Width: 319
VWidth: 2430
GlyphClass: 1
Flags: HW
LayerCount: 2
Fore
SplineSet
245.741210938 977 m 1,0,-1
 97.3349609375 1006 l 1,1,2
 142.390625 1120 142.390625 1120 162.244140625 1198 c 0,3,4
 178.7890625 1263 178.7890625 1263 187.709960938 1319.31933594 c 0,5,6
 189.494140625 1330.58300781 189.494140625 1330.58300781 190.97265625 1341.5 c 0,7,8
 199.846679688 1407 199.846679688 1407 212.04296875 1484 c 0,9,10
 235.166992188 1630 235.166992188 1630 342.166992188 1630 c 0,11,12
 391.166992188 1630 391.166992188 1630 414.514648438 1588 c 128,-1,13
 437.862304688 1546 437.862304688 1546 425.508789062 1468 c 0,14,15
 412.045898438 1383 412.045898438 1383 370.598632812 1276 c 128,-1,16
 329.151367188 1169 329.151367188 1169 245.741210938 977 c 1,0,-1
EndSplineSet
EndChar

StartChar: hyphen_greater.dlig
Encoding: 65575 -1 584
Width: 798
VWidth: 2430
GlyphClass: 1
Flags: HW
LayerCount: 2
Fore
SplineSet
43.9091796875 675 m 1,0,-1
 76.2197265625 879 l 1,1,-1
 516.219726562 879 l 1,2,-1
 483.909179688 675 l 1,3,-1
 43.9091796875 675 l 1,0,-1
251.046875 95 m 1,4,-1
 291.118164062 348 l 1,5,-1
 657.064453125 777 l 1,6,-1
 422.359375 1164 l 1,7,-1
 461.638671875 1412 l 1,8,-1
 775.78515625 851 l 1,9,-1
 753.453125 710 l 1,10,-1
 251.046875 95 l 1,4,-1
EndSplineSet
Ligature2: "'dlig' Discretionary Ligatures in Latin lookup 32 subtable" hyphen greater
EndChar

StartChar: exclam_equal_equal.dlig
Encoding: 65576 -1 585
Width: 737
VWidth: 2400
GlyphClass: 1
Flags: HW
LayerCount: 2
Fore
SplineSet
-76.7734375 33 m 1,0,-1
 -46.046875 227 l 1,1,-1
 241.953125 227 l 1,2,-1
 305.866210938 479 l 1,3,-1
 78.8662109375 479 l 1,4,-1
 111.018554688 682 l 1,5,-1
 358.018554688 682 l 1,6,-1
 423.08984375 935 l 1,7,-1
 66.08984375 935 l 1,8,-1
 97.1328125 1131 l 1,9,-1
 473.1328125 1131 l 1,10,-1
 549.331054688 1429 l 1,11,-1
 590.51171875 1367 l 1,12,-1
 530.1328125 1131 l 1,13,-1
 801.1328125 1131 l 1,14,-1
 770.08984375 935 l 1,15,-1
 479.08984375 935 l 1,16,-1
 415.018554688 682 l 1,17,-1
 645.018554688 682 l 1,18,-1
 612.866210938 479 l 1,19,-1
 362.866210938 479 l 1,20,-1
 298.953125 227 l 1,21,-1
 657.953125 227 l 1,22,-1
 627.2265625 33 l 1,23,-1
 248.2265625 33 l 1,24,-1
 177.037109375 -246 l 1,25,-1
 135.065429688 -189 l 1,26,-1
 192.2265625 33 l 1,27,-1
 -76.7734375 33 l 1,0,-1
EndSplineSet
Ligature2: "'dlig' Discretionary Ligatures in Latin lookup 32 subtable" exclam equal equal
EndChar

StartChar: uni20B5
Encoding: 8373 8373 594
Width: 785
VWidth: 2430
GlyphClass: 2
Flags: HW
AnchorPoint: "Anchor-2" 325 0 basechar 0
AnchorPoint: "Anchor-0" 555.794 1514 basechar 0
LayerCount: 2
Fore
SplineSet
256.055664062 758 m 0,0,1
 219.46875 527 219.46875 527 236.586914062 392 c 128,-1,2
 253.705078125 257 253.705078125 257 306.418945312 211 c 1,3,-1
 477.791015625 1293 l 1,4,5
 412.505859375 1247 412.505859375 1247 352.811523438 1119.5 c 128,-1,6
 293.1171875 992 293.1171875 992 256.055664062 758 c 0,0,1
245.7578125 -172 m 1,7,-1
 269.990234375 -19 l 1,8,9
 180.68359375 -2 180.68359375 -2 118.012695312 79 c 128,-1,10
 55.341796875 160 55.341796875 160 36.158203125 323 c 128,-1,11
 16.974609375 486 16.974609375 486 56.6298828125 749 c 0,12,13
 100.34375 1025 100.34375 1025 175.501953125 1187 c 128,-1,14
 250.66015625 1349 250.66015625 1349 340.27734375 1425.5 c 128,-1,15
 429.893554688 1502 429.893554688 1502 513.90234375 1521 c 1,16,-1
 532.75 1640 l 1,17,-1
 680.75 1640 l 1,18,-1
 661.90234375 1521 l 1,19,20
 737.893554688 1502 737.893554688 1502 783.786132812 1444.5 c 128,-1,21
 829.6796875 1387 829.6796875 1387 848.375 1303 c 1,22,-1
 725.55859375 1140 l 1,23,-1
 711.390625 1120 l 1,24,-1
 699.291015625 1132 l 1,25,26
 697.983398438 1149 697.983398438 1149 701.864257812 1173.5 c 128,-1,27
 705.744140625 1198 705.744140625 1198 693.446289062 1234 c 1,28,29
 667.524414062 1285 667.524414062 1285 628.166992188 1308 c 1,30,-1
 452.518554688 199 l 1,31,32
 520.903320312 233 520.903320312 233 585.534179688 338 c 1,33,-1
 653.92578125 170 l 1,34,35
 548.692382812 17 548.692382812 17 418.782226562 -14 c 1,36,-1
 393.7578125 -172 l 1,37,-1
 245.7578125 -172 l 1,7,-1
EndSplineSet
EndChar

